<?xml version="1.0" encoding="utf-8"?>
<!-- Generator: Adobe Illustrator 18.1.1, SVG Export Plug-In . SVG Version: 6.00 Build 0)  -->
<!DOCTYPE svg PUBLIC "-//W3C//DTD SVG 1.1//EN" "http://www.w3.org/Graphics/SVG/1.1/DTD/svg11.dtd">
<svg version="1.1" id="Layer_1" xmlns="http://www.w3.org/2000/svg" xmlns:xlink="http://www.w3.org/1999/xlink" x="0px" y="0px"
	 viewBox="1416.9 57.6 422.5 607.5" enable-background="new 1416.9 57.6 422.5 607.5" xml:space="preserve">
<g id="Color_Background">
</g>
<g id="Illustrations">
	<g>
		<path fill="none" d="M1640.4,351.7v-1.4C1640.4,350.3,1640.4,350.3,1640.4,351.7z"/>
		<path fill="none" d="M1641.8,365.3c0,6.8,0,12.3,0,19.1C1641.8,378.9,1641.8,372.1,1641.8,365.3z"/>
		<path fill="none" d="M1637.7,327.2c-1.4-4.1-1.4-9.5-2.7-13.6C1636.3,317.6,1636.3,323.1,1637.7,327.2z"/>
		<path fill="#211D1E" d="M1555.9,308.1c-9.5,4.1-15,9.5-15,9.5c-1.4,1.4-1.4,1.4-2.7,2.7c-6.8-2.7-13.6-4.1-20.4-4.1
			c-20.4,0-38.2,12.3-46.3,30L1425,334l-2.7-38.2c0-1.4-1.4-2.7-2.7-2.7s-2.7,1.4-2.7,2.7l2.7,39.5c0,1.4,0,1.4,1.4,2.7l46.3,20.4
			c0,1.4,0,4.1,0,5.5s0,4.1,0,5.5l-45,23.2c-1.4,0-1.4,1.4-1.4,2.7v39.5c0,1.4,1.4,2.7,2.7,2.7s2.7-1.4,2.7-2.7v-38.2l45-15
			c8.2,16.4,25.9,27.3,47.7,27.3c6.8,0,13.6-1.4,20.4-4.1c1.4,1.4,1.4,1.4,2.7,2.7c0,0,6.8,4.1,16.4,8.2
			c23.2,91.3,72.2,265.8,118.6,248.1c66.8-25.9,42.3-159.5,23.2-181.3c-13.6-15-46.3-43.6-76.3-69.5c1.4-1.4,4.1-2.7,5.5-2.7
			c2.7-1.4,5.5-2.7,8.2-4.1c1.4-6.8,1.4-15,2.7-21.8l0,0c0-6.8,0-12.3,0-19.1c0-4.1,0-9.5-1.4-13.6v-1.4c0-6.8-1.4-13.6-2.7-21.8
			c-1.4-4.1-1.4-9.5-2.7-13.6l0,0c0,0-6.8-4.1-15-8.2c28.6-25.9,60-51.8,72.2-68.2c17.7-23.2,35.4-156.7-32.7-179.9
			C1614.5,42.3,1572.2,215.4,1555.9,308.1z"/>
		<path fill="#FFFFFF" d="M1634.9,313.5c1.4,4.1,1.4,9.5,2.7,13.6c1.4,6.8,2.7,15,2.7,21.8v1.4c0,4.1,0,9.5,1.4,13.6
			c0,6.8,0,13.6,0,19.1l0,0c0,13.6-2.7,21.8-2.7,21.8c8.2-4.1,17.7,0,17.7,0c4.1,1.4,8.2,2.7,12.3,4.1c0,0,16.4-40.9,0-106.3
			c-5.5,2.7-10.9,5.5-16.4,6.8C1643.1,316.2,1634.9,313.5,1634.9,313.5L1634.9,313.5L1634.9,313.5L1634.9,313.5z"/>
		<path fill="#FFFFFF" d="M1640.4,350.3c0-8.2-1.4-15-2.7-21.8C1639,335.3,1640.4,342.1,1640.4,350.3z"/>
		<path fill="#FFFFFF" d="M1641.8,384.4L1641.8,384.4L1641.8,384.4z"/>
		<path fill="#FFFFFF" d="M1640.4,351.7c0,5.5,0,9.5,1.4,13.6C1641.8,359.9,1640.4,355.8,1640.4,351.7z"/>
		<path fill="#FFFFFF" d="M1634.9,313.5L1634.9,313.5L1634.9,313.5z"/>
		<path fill="none" d="M1700.4,295.8c4.1,4.1,8.2,17.7,10.9,34.1C1709.9,313.5,1705.8,299.9,1700.4,295.8z"/>
		<path fill="#211D1E" d="M1711.3,329.9c-2.7-16.4-6.8-30-10.9-34.1c-1.4-1.4-1.4-1.4-2.7-1.4l0,0c-6.8,1.4-16.4,5.5-16.4,5.5
			c-4.1,1.4-9.5,2.7-13.6,5.5c16.4,65.4,0,106.3,0,106.3c4.1,1.4,9.5,2.7,15,5.5c2.7,1.4,8.2,2.7,13.6,4.1
			C1714,404.8,1716.7,361.2,1711.3,329.9z"/>
		<path fill="#231F20" d="M1697.6,294.4c1.4,0,1.4,1.4,2.7,1.4C1699,295.8,1699,294.4,1697.6,294.4z"/>
		<path fill="#FFFFFF" d="M1727.6,289c-10.9,1.4-20.4,2.7-30,5.5c1.4,0,1.4,0,2.7,1.4c5.5,4.1,9.5,17.7,10.9,34.1
			c4.1,31.3,1.4,75-16.4,90l0,0c2.7,0,23.2,4.1,34.1,4.1c25.9-61.3,0-136.3,0-136.3C1729,289,1727.6,289,1727.6,289z"/>
		<path fill="#211D1E" d="M1729,425.3c8.2,1.4,17.7,0,17.7,0c6.8,0,13.6-1.4,20.4-2.7c15-5.5,20.4-94,0-130.9
			c-6.8-1.4-15-2.7-21.8-2.7c-5.5,0-13.6,0-16.4,0C1729,289,1754.9,364,1729,425.3z"/>
		<path fill="#FFFFFF" d="M1778.1,293.1c-4.1-1.4-6.8-1.4-10.9-2.7c20.4,38.2,15,125.4,0,130.9c4.1-1.4,8.2-1.4,10.9-2.7
			c10.9-2.7,20.4-9.5,20.4-9.5c1.4-1.4,4.1-2.7,5.5-4.1c9.5-40.9,1.4-96.8,1.4-98.1c-2.7-1.4-5.5-4.1-8.2-5.5
			C1794.4,298.5,1778.1,293.1,1778.1,293.1z"/>
		<path fill="#211D1E" d="M1808.1,310.8c0,1.4,6.8,54.5-2.7,95.4c10.9-6.8,23.2-21.8,27.3-30c0,0,6.8-9.5,6.8-20.4
			c0-12.3-6.8-20.4-6.8-20.4c-9.5-13.6-24.5-25.9-24.5-25.9V310.8z"/>
	</g>
</g>
<g id="Other_Assets" display="none">
</g>
</svg>
