<?xml version="1.0" encoding="utf-8"?>
<!-- Generator: Adobe Illustrator 18.0.0, SVG Export Plug-In . SVG Version: 6.00 Build 0)  -->
<!DOCTYPE svg PUBLIC "-//W3C//DTD SVG 1.1//EN" "http://www.w3.org/Graphics/SVG/1.1/DTD/svg11.dtd">
<svg version="1.1" xmlns="http://www.w3.org/2000/svg" xmlns:xlink="http://www.w3.org/1999/xlink" x="0px" y="0px"
	 viewBox="0 0 36 34" enable-background="new 0 0 36 34" xml:space="preserve">
<g id="Color_Background">
</g>
<g id="Illustrations">
	<g>
		<path fill="#211D1E" d="M35.2,21.5c0.2-0.6,0.7-2.9,0.4-5.6c-0.2-1.6-0.7-3.1-1.4-4.4C33.3,10,32,8.7,30.4,7.7l-0.1,0
			c-0.1,0-0.2-0.1-0.2-0.1c0,0,0,0-0.1,0c0.1-0.1,0.3-0.2,0.4-0.3l0.2-0.1L31,6.5l-1.5-0.7c-0.4-0.2-0.7-0.3-1-0.4c0,0,0,0,0,0
			c-0.3-0.1-0.7-0.1-0.9-0.2c0-0.1-0.1-0.2-0.1-0.4c-0.2-0.6-0.7-1.3-1.2-1.9c-0.4-0.5-0.7-1-0.9-1.3l0,0l0,0
			c-0.1-0.1-0.2-0.2-0.3-0.3l0,0c-0.2-0.1-0.9,0-1.9,0.3c-0.8,0.2-1.8,0.5-2.5,1c-0.5,0.3-0.6,0.4-0.8,0.3c-0.1,0-0.3-0.2-0.5-0.4
			c-0.4-0.4-2.4-1.6-3.2-1.8c0,0-0.1,0-0.1,0l0,0l0,0c-0.2,0-0.2,0-0.8,0.3c0,0,0,0-0.1,0l-0.1,0l-0.2,0.2c-0.4,0.3-0.6,0.6-0.5,1
			c0,0.1,0,0.2-0.5,0.9c0,0,0,0,0,0l0,0l0,0c-0.4,0-0.7,0-1.1,0C11.4,3,10.2,3.3,9.1,3.7C6.8,4.5,2.6,7.5,0.8,13.9
			c-0.7,2.5-0.7,4.9-0.1,7.2c0.5,2,1.5,3.8,3,5.6c3.3,3.9,7.8,5.6,9.1,6c0.3,0.1,0.5,0.2,0.8,0.2c1.1,0.3,2.9,0.7,5.1,0.8
			c2.3,0.1,4.4-0.2,6.3-0.8c2.4-0.7,4.4-2,6.1-3.6C32.9,27.3,34.3,24.7,35.2,21.5z"/>
	</g>
</g>
<g id="Other_Assets" display="none">
</g>
</svg>
