<?xml version="1.0" encoding="utf-8"?>
<!-- Generator: Adobe Illustrator 18.0.0, SVG Export Plug-In . SVG Version: 6.00 Build 0)  -->
<!DOCTYPE svg PUBLIC "-//W3C//DTD SVG 1.1//EN" "http://www.w3.org/Graphics/SVG/1.1/DTD/svg11.dtd">
<svg version="1.1" xmlns="http://www.w3.org/2000/svg" xmlns:xlink="http://www.w3.org/1999/xlink" x="0px" y="0px"
	 viewBox="0 0 30.6 31.8" enable-background="new 0 0 30.6 31.8" xml:space="preserve">
<g id="Color_Background">
</g>
<g id="Illustrations">
	<path fill="#211D1E" d="M27.8,21c0-0.1,0.1-0.2,0.2-0.2c0.2-0.1,0.4-0.2,0.4-0.5c0-0.1,0-0.2,0-0.2c0.3-0.5,0.5-1,0.8-1.4
		c0.3-0.4,0.5-0.8,0.6-1.2c0-0.2,0.1-0.3,0-0.5c-0.1-0.2,0-0.3,0.1-0.4c0.2-0.3,0.4-0.5,0.2-0.9c-0.1-0.3-0.1-0.7-0.1-1
		c0.1-0.7,0.1-1.4-0.3-2.1c-0.1-0.1-0.1-0.3,0-0.4c0.1-0.1,0.2-0.3,0.1-0.4c-0.1-0.4-0.3-0.8-0.5-1.1c-0.1-0.2-0.4-0.4-0.4-0.7
		c-0.1-0.4-0.3-0.6-0.5-0.9c-0.1-0.1-0.2-0.3-0.3-0.4c-0.2-0.2-0.4-0.3-0.6-0.4c-0.4-0.2-0.8-0.4-1.2-0.6c-0.3-0.2-0.7-0.2-0.9-0.6
		c-0.2-0.4-0.3-0.8-0.5-1.2c-0.1-0.3-0.2-0.6-0.3-0.9c-0.2-0.6-0.4-1.2-0.4-1.9c0-0.2,0.1-0.5,0.3-0.7C24.8,2.1,25,2,25.1,1.8
		c0.1-0.1,0.2-0.3,0.2-0.4c0.1-0.5-0.5-1.1-1-1.1c-0.6,0-1,0.3-1.4,0.6c-0.4,0.3-0.9,0.5-1.3,0.7c-0.3,0.2-0.7,0.4-1,0.6
		c-0.3,0.2-0.5,0.5-0.8,0.7c-0.6,0.3-1.2,0.6-1.8,0.9C17.5,4,17,4.3,16.4,4.6c-0.4,0.2-0.9,0.5-1.3,0.8c-0.3,0.2-0.5,0.3-0.7,0.5
		c-0.6,0.4-1.2,0.9-1.8,1.3c-0.4,0.3-0.7,0.5-1.1,0.8c-0.5,0.5-1,0.9-1.5,1.4C9.8,9.7,9.5,10,9.3,10.2C9,10.6,8.7,11,8.4,11.3
		c-0.6-0.2-1.2-0.4-1.8-0.5c-0.6-0.1-1.2-0.1-1.8,0c-0.5,0.1-1.1,0.2-1.5,0.5c-0.7,0.4-1.3,0.9-1.7,1.5c-0.5,0.6-0.8,1.3-0.9,2
		c-0.1,0.7-0.2,1.4-0.2,2.2c0,0.4,0.1,0.9,0.2,1.3c0.1,0.3,0.2,0.5,0.3,0.8c0.2,0.7,0.6,1.3,0.9,1.9C2,21.4,2.3,21.7,2.5,22
		c0.2,0.2,0.4,0.5,0.7,0.7c0.3,0.3,0.7,0.5,1.1,0.8c0.2,0.1,0.4,0.2,0.6,0.3c0.6,0.2,1.1,0.3,1.7,0.4c0.4,0.1,0.9,0,1.4,0.1
		C8,23.8,8,23.4,8.1,23.1c0.2-0.7,0.4-1.3,0.6-1.9c0.2-0.5,0.4-1.1,0.7-1.6c0.2-0.3,0.4-0.7,0.7-1c0.4-0.4,0.9-0.9,1.4-1.2
		c0.5-0.3,1.1-0.5,1.7-0.5c0.4,0,0.8,0,1.3-0.1c-0.1-0.5-0.1-1-0.3-1.5c-0.1-0.5-0.4-0.9-0.7-1.3c-0.2-0.2-0.4-0.5-0.7-0.7
		c-0.4-0.2-0.8-0.4-1.2-0.6c-0.4-0.2-0.9-0.2-1.3-0.4c-0.1,0-0.3,0-0.3-0.3c0.1-0.6,0.3-1.1,0.7-1.6c0.1-0.2,0.2-0.3,0.3-0.5
		c0.3-0.3,0.5-0.6,0.8-0.8c0.2-0.3,0.5-0.5,0.8-0.7c0.3-0.2,0.5-0.4,0.8-0.7c0.3-0.2,0.5-0.4,0.8-0.6C14.6,7,15,6.7,15.4,6.4
		C15.7,6.2,16,6,16.3,5.9c0.4-0.2,0.7-0.4,1.1-0.6C18,5,18.5,4.8,19,4.6c0.3-0.1,0.6-0.2,0.9-0.3c0.4-0.2,0.8-0.3,1.3-0.5
		c0,0.3-0.1,0.5-0.1,0.7c-0.1,0.3-0.3,0.5-0.4,0.7c-0.2,0.3-0.4,0.7-0.5,1.1c-0.2,0.5-0.4,1.1-0.6,1.6c-0.1,0.3-0.2,0.6-0.3,0.9
		c-0.2,0.9-0.3,1.8-0.5,2.7c0,0.2-0.1,0.5-0.1,0.7c-0.1,0.7-0.1,1.4-0.2,2.1c-0.1,0.4-0.1,0.8-0.2,1.1c0,0.1,0,0.3-0.1,0.4
		c-0.1,0.4-0.1,0.8-0.2,1.2c-0.1,0.3-0.2,0.6-0.3,0.9c-0.1,0.3-0.3,0.6-0.5,1c-0.1-0.1-0.1-0.2-0.2-0.2c-0.5-0.4-0.9-0.8-1.5-1
		c-0.4-0.2-0.8-0.3-1.3-0.4c-0.5-0.1-0.9,0-1.4,0.2c-0.7,0.2-1.4,0.4-2,0.9c-0.5,0.5-0.9,1-1.3,1.7c-0.2,0.4-0.3,0.9-0.5,1.3
		c-0.3,0.6-0.5,1.3-0.6,2c-0.1,0.6-0.2,1.3-0.2,1.9c0,0.3,0,0.6,0,0.9c0.1,0.5,0.3,0.9,0.4,1.4c0.1,0.3,0.3,0.6,0.5,0.9
		c0.2,0.3,0.4,0.6,0.6,0.8c0.2,0.2,0.4,0.5,0.6,0.7c0.6,0.5,1.2,0.9,1.9,1.2c0.3,0.1,0.6,0.2,0.9,0.4c0.2,0.1,0.5,0.2,0.7,0.2
		c0.4,0,0.9,0.1,1.3,0.1c0.3,0,0.7,0,1,0c0.5-0.1,0.9-0.2,1.4-0.3c0.4-0.1,0.9-0.3,1.3-0.5c0.4-0.2,0.7-0.4,1-0.6
		c0.6-0.3,1-0.9,1.4-1.4c0.3-0.3,0.4-0.6,0.7-0.9c0.3-0.4,0.5-0.8,0.6-1.3c0.1-0.3,0.2-0.6,0.2-0.9c-0.1-0.6-0.2-1.2-0.3-1.8
		c-0.1-0.4-0.3-0.8-0.5-1.2c-0.3-0.6-0.7-1-1.3-1.4c-0.6-0.4-1.1-0.8-1.8-1c-0.2-0.1-0.3-0.2-0.3-0.4c0-0.1,0-0.2,0.1-0.4
		c0.1-0.8,0.3-1.7,0.4-2.5c0.1-0.7,0.2-1.3,0.3-2c0.1-0.5,0.1-1.1,0.2-1.6c0.1-0.4,0.2-0.9,0.2-1.3c0.1-0.8,0.2-1.5,0.5-2.2
		c0.1-0.2,0.2-0.5,0.3-0.7c0.2-0.4,0.4-0.9,0.5-1.3c0.2-0.4,0.4-0.9,0.6-1.3c0.2-0.4,0.4-0.9,0.7-1.2c0.4-0.3,0.6-0.8,0.8-1.2
		c0.1-0.1,0.1-0.3,0.2-0.4c0,0,0.1,0,0.1,0c0.1,0.3,0.2,0.7,0.2,1C24,5,24,5.6,24.1,6.2c0.1,0.5,0,1-0.4,1.4
		c-0.2,0.2-0.4,0.3-0.6,0.4c-0.5,0.4-0.9,0.8-1.4,1.2c-0.3,0.3-0.5,0.6-0.8,0.9c-0.2,0.2-0.3,0.5-0.1,0.8c0.1,0.2,0.1,0.3,0.1,0.5
		c-0.1,0.4-0.2,0.8-0.3,1.2c-0.1,0.3-0.2,0.7,0.1,1c0.2,0.2,0.2,0.5,0.1,0.7c-0.2,0.6,0,1.1,0.4,1.5c0.3,0.3,0.4,0.6,0.5,1
		c0.1,0.4,0.1,0.8,0.1,1.1c0,0.3,0.1,0.4,0.4,0.5c0.1,0,0.1,0.1,0.2,0.1c0.2,0.4,0.3,0.8,0.4,1.2c0.1,0.2,0.2,0.4,0.3,0.5
		c0.2,0.1,0.3,0.3,0.4,0.4c0.2,0.3,0.3,0.6,0.4,0.9c0.1,0.1,0.2,0.2,0.3,0.3c0.3,0.5,0.4,1.1,0.2,1.6c0,0.1,0,0.1,0,0.2
		c0.1,0,0.1,0,0.2-0.1c0.2-0.1,0.4-0.3,0.7-0.4c0.1-0.1,0.3-0.1,0.5-0.2c0.3-0.1,0.5-0.3,0.8-0.5c0.2-0.1,0.3-0.2,0.5-0.3
		c0.1-0.1,0.3-0.1,0.3-0.2C27.6,21.8,27.7,21.4,27.8,21z"/>
</g>
<g id="Other_Assets" display="none">
</g>
</svg>
