<?xml version="1.0" encoding="utf-8"?>
<!-- Generator: Adobe Illustrator 18.0.0, SVG Export Plug-In . SVG Version: 6.00 Build 0)  -->
<!DOCTYPE svg PUBLIC "-//W3C//DTD SVG 1.1//EN" "http://www.w3.org/Graphics/SVG/1.1/DTD/svg11.dtd">
<svg version="1.1" xmlns="http://www.w3.org/2000/svg" xmlns:xlink="http://www.w3.org/1999/xlink" x="0px" y="0px"
	 viewBox="0 0 91.5 68.4" enable-background="new 0 0 91.5 68.4" xml:space="preserve">
<g id="Layer_3">
</g>
<g id="Background">
</g>
<g id="Layer_2">
	<g>
		<g>
			<path fill="#FFFFFF" d="M76.6,39.7c0.1,0.8,0.6,3.1,1.2,3.7c0.6,0.6,1.2,1.4,1.2,1.4s-0.1,1.5,0.1,2c0.1,0.5,0.2,1.2,0.4,1.7
				c0.1,0.5,0.6,1.1,0.6,1.1s0.3,0.6,0.4,1.1c0.1,0.5,0.5,4.3,0.5,4.3l-0.6,3.5l-0.6,2.7c0,0-0.4,1.5-0.9,2c-0.5,0.4-1.1,0.7-1,1.3
				c0.1,0.6,1.5,1,1.5,1s0.9-0.3,1.4-0.2c0.5,0,1.4,0.1,1.4,0.1l0.6-0.4c0,0,0.6-0.1,0.7-0.7c0-0.6,0.4-1.1-0.1-1.4
				c-0.4-0.3-0.5,0.6-0.4-0.3c0-0.9,0-0.9,0-0.9l0.8-0.3c0,0,1.2-0.1,0.8-0.4c-0.4-0.3-0.9-1.3-0.9-1.3l-0.3-2.6c0,0,0-3.1,0.1-4
				c0-0.9,0.1-2.5,0.1-2.5l0.1-1.2l-0.1-1.5l0.1-1.8l0.7-1.3l-0.3-2.2L83,41c0,0-1.3-5.1-1.2-6.4c0.1-1.2,0.4-2.7,0.2-3.7
				c-0.3-0.9-0.2-1.9-0.2-2.3c0-0.5,0.3-2.9,0.4-4.4c0.1-1.5,0.5-2.9,0.5-3.4c0-0.5,0.7-2.6,0.7-2.6l0.3-2c0,0,1.3,2.1,1.8,3.2
				c0.6,1.1,1.2,3,1.4,3.6c0.1,0.6,0.2,2.8,0.3,3.2c0.1,0.3,0.3,1.3,0.4,2c0,0.3,0.1,0.5,0.1,0.7c0,0.5,0,2.8,0,2.8l0.1,1.7l0.2,1.4
				l0,0.9l0.6-0.4l-0.3,2.1c0,0,0.1,0.5,0.1,1.4c0,0.9,0,0.9,0,0.9l0.1,1.1c0,0,0,0.5,0.3,0.9c0.3,0.5,1.2,1.1,1.2,1.1
				s0.1-1.4,0.2-1.8c0.2-0.5,0.5-1.5,0.6-2.1c0-0.6-0.7-2-0.7-2l0.6-0.3l-0.7-0.8l-0.6-1c0,0,0.4-1.2,0-2.3
				c-0.4-1.1-0.4-1.1-0.4-1.1l-0.4-1.6l-0.2-0.6c0,0,0-0.3,0-0.5c0-0.2-0.1-1.1-0.1-1.1L88,27.1L87.8,26c0,0-0.1-1.4,0-1.7
				c0-0.3-0.6-2.8-0.7-3.2c-0.1-0.4-1.4-4-2.1-5.2c-0.7-1.2-1-1.7-1.1-1.9c-0.1-0.3,0.2-0.5-0.3-0.8c-0.5-0.4-1.2-2.5-6.4-4.3
				c-5.1-1.7-6.1-2.1-6.9-2.2c-0.7,0-2.9,0.1-3.7,0c-0.8,0-8.3-1.3-9.7-1.6c-1.4-0.3-5.5-0.4-6.1-0.5c-0.6-0.1-0.6-0.1-1.1-0.4
				c-0.5-0.2,0.5,0-0.5-0.2c-1-0.2-5.9-0.4-6.6-0.4c-0.7,0-4.5-0.5-5.6-0.7c-1.1-0.2-3.5-0.7-4.7-0.4c-1.2,0.3-3.2,1.5-4.4,1.9
				c-1.2,0.3-3.4,1.4-3.6,1.4c-0.3,0-0.8-0.5-1.3-0.8c-0.5-0.3-0.6-0.4-0.7-0.7c-0.1-0.3-0.4-0.6-0.7-0.8c-0.3-0.1-0.9-0.4-1.1-0.7
				c-0.1-0.3-0.6-1.1-0.8-1.1c-0.2-0.1-1-1.2-2.7-1.3c-1.7-0.1-2.4,1-2.9,1.3c-0.5,0.3-0.9,1.1-1.1,1.3c-0.2,0.2-0.9,0.6-1.2,0.7
				c-0.3,0.1-0.2,0.1-0.3,0.5c-0.2,0.4-0.9,1.4-1.4,1.8C9.5,6.3,9.4,6.7,9.4,6.7s-2.9-1-4.1-1C4,5.8,1.6,6.2,0.9,8.3
				c0,0,0.1,0.6,0.2,0.8c0.1,0.1,0.3,0.2,0.5,0.5c0.2,0.3,0.4,0.5,0.6,0.7c0.2,0.1,1.7,1,2.2,1.2c0.5,0.2,1.6,0.5,1.8,0.5
				c0.3,0,1.6-0.2,2-0.6c0.4-0.4,1-0.9,1.2-1.1c0.1-0.2,0.7-0.2,0.9-0.1c0.2,0.1,0.5,0.2,0.5,0.2s-0.1,1.2-0.1,1.4
				c0.1,0.2,0.6,1.2,0.8,1.6c0.2,0.4,0.3,1.2,0.3,1.2s0.1,1.4,0.2,2c0.1,0.5,0.5,1.3,0.5,1.7c0.1,0.4,0.3,0.6,0.2,1.1
				c0,0.5,0.1,1.3,0.1,1.3s-0.2,0.5-0.3,0.8c-0.1,0.3-0.3,0.6-0.3,0.9c0,0.4-0.1,1-0.1,1.2c0,0.2-0.1,0.5,0,0.7
				c0.1,0.2,0.1,0.7,0.6,0.8c0.6,0.1,0.7,0.2,0.9,0.1c0.2,0,0.4-0.1,0.4-0.1s0.3,0.2,0.7,0.4c0.4,0.2,0.4,0.3,0.7,0.3
				c0.3,0.1,0.4,0.2,0.7,0c0.3-0.1,0.3-0.1,0.3-0.1s0.6-0.1,0.8,0c0.2,0.1,0.3,0.1,0.5,0.1c0.2,0,0.4-0.1,0.6-0.3
				c0.1-0.2,0.2-0.4,0.2-0.4s0.8,1,1,1.1c0.3,0.2,2.4,3.1,2.5,3.7c0.1,0.5,0.2,1.5,0.4,1.8c0.2,0.3,0.1,1.1,0.5,1.6
				c0.4,0.5,0.5,0.9,0.7,1.1c0.2,0.1,0.4,1,0.8,1.3c0.4,0.3,0.6,0.5,0.6,0.6c0,0.1,1.7,3.3,1.9,3.5c0.2,0.3,1,1.8,1.4,1.9
				c0.4,0.2,0.7,0.6,0.7,0.6s0.3,2.8,0.3,3.2c0,0.4,0,2.3,0,2.7c0.1,0.4,0.5,2.2,0.6,2.4c0.1,0.2,0.4,0.8,0.4,0.8s-0.1,3.8-0.3,4.6
				c-0.2,0.8-0.8,2.8-0.9,3.1c-0.1,0.3-0.1,0.7-0.1,0.9c0,0.2-0.1,0.7-0.3,1.1c-0.2,0.3-0.6,1.1-0.6,1.1s-1,0.8-1.3,1.2
				c-0.3,0.4-0.5,0.5-0.7,0.9c-0.2,0.4-0.6,0.4-0.4,0.7c0.2,0.2,0.5,0.5,0.8,0.5c0.4,0,1,0.1,1.7,0.1c0.7,0,1.6,0.1,1.9,0
				c0.3-0.1,0.6-0.2,0.9-0.5c0.4-0.3,0.4-0.4,0.7-0.7c0.3-0.3,0.3-0.7,0.4-0.9c0-0.2-0.2-0.5-0.2-0.6c0-0.1,0.2-0.5,0.2-0.9
				c0-0.3,0.1-0.6,0.1-0.6s0.2,0,0.3,0.1c0.2,0.1,0.3,0.2,0.5,0.2c0.2,0.1,0.3,0.3,0.5,0c0.1-0.3,0.2-0.7,0.1-0.8
				c-0.1-0.1-0.4-0.7-0.4-0.7l-0.2-0.5c0,0,0.2-0.8,0.2-0.9c0-0.2,0-0.6,0-0.6l-0.1-0.7l0-4.4c0,0,0.4-3.2,0.4-3.6
				c0-0.3,0.3-0.7,0.3-0.9c0-0.2,0.1-1.6,0.1-1.9c0-0.3,0.4-2.8,0.5-3.2c0-0.5,0-1.8,0-1.8s0.5-0.7,0.7-0.9c0.2-0.2,1.3-1,1.3-1
				s0.1,0.9,0.2,1.1c0,0.2-0.2,5.2-0.2,5.2s-0.6,2.9-0.6,3.5c0.1,0.6,0.4,1.7,0.6,2.2c0.2,0.5,0.5,1,0.5,1s0.6,3,0.6,3.6
				c-0.1,0.7-0.3,3-0.5,3.4c-0.2,0.4-0.2,1.3-0.3,1.5c0,0.2-0.2,0.7-0.3,0.9c-0.1,0.2-0.5,1.3-0.6,1.4c-0.2,0.1-0.3,0.2-0.3,0.4
				c-0.1,0.2-0.1,0.6-0.1,0.6s-0.4,0.6-0.7,0.9c-0.3,0.3-0.9,0.8-0.9,1.1c0,0.3-0.1,0.9-0.1,0.9s-0.2,0.2,0,0.2
				c0.2,0,0.5,0.1,0.7,0.1c0.3,0,0.3,0.1,0.6,0.2c0.3,0.1,0.8,0.1,1.3,0.2c0.5,0,1.8-0.1,1.9-0.1c0.1,0,0.8-0.2,0.8-0.2
				s1.4-1.7,1.4-2c0-0.3,0-0.7-0.2-0.8c-0.2-0.1-0.3-0.2-0.3-0.5c0-0.2,0-0.8,0-0.8l0.2-0.5l0.8-1.5c0,0-0.8-2.6-0.8-2.9
				c0-0.3-0.2-1.8-0.2-1.8l-0.1-2.1l0-1.8l0.4-0.9l0.1-0.5l0.1-1.1l0.3-0.9l0.5-2.5l0.7-3.2l1.3-5.3c0,0,0.5,0.1,0.6,0.3
				c0.1,0.2,0.2,0.4,0.5,0.4c0.3,0,0.7,0,1.4,0.2c0.6,0.2,3.3,0.4,4.8,0.8c1.5,0.3,4.3,0.7,4.7,0.7c0.4,0.1,1.3,0.2,2.3,0.2
				c0.9,0,5.1-0.7,5.2-0.6c0.1,0.1,2.8,1,3,1c0.2,0,0.4,0.2,0.5,0c0.1-0.2,0.3,0.9,0.4,1.2c0.1,0.4,0.4,3.4,0.5,3.9
				c0.2,0.4,0.5,3.1,0.1,4.5c-0.4,1.4-0.7,3.1-1,4.2c-0.4,1.1-1.2,2.9-1.4,3.2c-0.2,0.3-0.6,0.8-0.7,0.9c-0.1,0.1-0.5,0.6-0.5,0.6
				l-2.2,2.2c0,0,0.3,0.2,0.8,0.4c0.5,0.2,0.9,0.2,1.6,0.2c0.7,0,1.1,0,1.4-0.1c0.4-0.1,0.4,0.1,0.9-0.3c0.5-0.4,0.5-0.5,0.7-0.8
				c0.1-0.3,0.2-1,0.2-1l0.5-0.6l0.2-0.4c0,0,0.4,0.1,0.6,0.2c0.2,0.1,0.3,0.3,0.3,0.3l0.8-0.8l-0.4-1.2c0,0,0.8-4.1,0.8-4.3
				c0-0.2,1.1-5.3,1.4-5.9c0.3-0.7,0.4-2.7,0.7-3.1c0.3-0.5,0.8-1,0.8-1.6c0-0.6,0.7-1,1.1-1.2c0.4-0.2,0.7-0.3,0.9-0.3
				c0.2-0.1,0.5-0.4,0.9-0.7C76.1,40.9,76.6,39.7,76.6,39.7z"/>
			<path fill="#231F20" d="M36.5,68.4c-0.1,0-0.1,0-0.2,0c-0.5,0-1-0.1-1.3-0.2c-0.2,0-0.3-0.1-0.4-0.1c-0.1,0-0.1-0.1-0.2-0.1
				c-0.2,0-0.3,0-0.4-0.1c-0.1,0-0.2,0-0.3-0.1c-0.2,0-0.3-0.2-0.3-0.2c-0.1-0.2,0-0.3,0.1-0.4c0-0.2,0.1-0.6,0.1-0.8
				c0-0.4,0.4-0.7,0.8-1.1c0.1-0.1,0.2-0.2,0.2-0.2c0.3-0.3,0.6-0.7,0.7-0.8c0-0.1,0.1-0.4,0.1-0.5c0.1-0.3,0.2-0.4,0.4-0.5
				c0.2-0.1,0.5-1,0.6-1.3l0.1-0.2c0.1-0.2,0.2-0.5,0.2-0.6c0-0.8,0.1-1.3,0.3-1.6c0.2-0.3,0.4-2.4,0.5-3.1l0-0.2
				c0.1-0.4-0.3-2.3-0.5-3.5c-0.1-0.1-0.3-0.6-0.5-1c-0.2-0.6-0.6-1.7-0.6-2.3c-0.1-0.6,0.5-3.2,0.6-3.5c0.1-1.9,0.2-4.9,0.2-5.1
				c0-0.1-0.1-0.4-0.1-0.6c-0.4,0.3-0.8,0.6-0.9,0.7c-0.2,0.1-0.5,0.5-0.7,0.8c0,0.3,0,1.3,0,1.8c0,0.3-0.1,1.1-0.3,1.9
				c-0.1,0.6-0.2,1.2-0.2,1.4c0,0.2,0,0.7-0.1,1.2c0,0.3-0.1,0.7-0.1,0.8c0,0.2-0.1,0.3-0.2,0.5c-0.1,0.1-0.1,0.3-0.2,0.4
				c0,0.4-0.4,3.4-0.4,3.6l0,4.3l0.1,0.7c0,0,0,0.4,0,0.6c0,0.2-0.1,0.7-0.2,0.9l0.2,0.4c0,0,0.3,0.6,0.3,0.7
				c0.1,0.2,0.1,0.8-0.1,1.1C33.7,62,33.6,62,33.4,62c-0.1,0-0.2-0.1-0.3-0.1c0,0-0.1,0-0.1-0.1c-0.2-0.1-0.4-0.1-0.5-0.3
				c0,0.1,0,0.2,0,0.3c0,0.2-0.1,0.4-0.1,0.6c0,0.1-0.1,0.2-0.1,0.2c0,0,0,0,0.1,0.1c0.1,0.2,0.2,0.4,0.2,0.6c0,0.2-0.1,0.7-0.4,1.1
				c-0.1,0.1-0.1,0.2-0.2,0.2c-0.1,0.2-0.2,0.3-0.5,0.5c-0.4,0.3-0.6,0.4-0.9,0.5l-0.1,0c-0.2,0.1-0.4,0.1-0.9,0.1
				c-0.3,0-0.8,0-1.1,0c-0.4,0-0.8-0.1-1.1-0.1c-0.2,0-0.4,0-0.6,0c-0.5,0-0.7-0.3-1-0.5l-0.1-0.1c-0.1-0.1-0.2-0.2-0.2-0.3
				c0-0.2,0.1-0.3,0.3-0.4c0.1-0.1,0.2-0.2,0.2-0.3c0.1-0.2,0.3-0.4,0.4-0.6c0.1-0.1,0.2-0.2,0.3-0.4c0.3-0.4,1.1-1,1.3-1.2
				c0.1-0.2,0.4-0.8,0.6-1.1c0.2-0.3,0.2-0.8,0.2-1c0-0.2,0.1-0.6,0.1-0.9c0-0.2,0.3-1,0.6-2.1l0.3-1c0.2-0.6,0.2-3.3,0.3-4.4
				c-0.1-0.2-0.3-0.5-0.3-0.7c-0.1-0.2-0.5-2.1-0.6-2.5c-0.1-0.4-0.1-2.4,0-2.7c0-0.2-0.2-2-0.3-3.1c-0.1-0.1-0.3-0.4-0.5-0.5
				c-0.3-0.2-0.6-0.7-1.1-1.4C27.2,40.3,27,40,26.9,40c-0.3-0.3-1.9-3.5-2-3.7c0,0-0.1-0.2-0.5-0.5c-0.3-0.2-0.4-0.6-0.6-0.9
				c-0.1-0.1-0.1-0.3-0.2-0.4c-0.2-0.1-0.2-0.3-0.3-0.5c-0.1-0.2-0.2-0.4-0.4-0.6c-0.3-0.3-0.4-0.8-0.4-1.2c0-0.2-0.1-0.4-0.1-0.5
				c-0.2-0.3-0.3-0.8-0.4-1.5c0-0.1,0-0.3-0.1-0.4c-0.1-0.4-2.1-3.2-2.4-3.5c-0.2-0.1-0.6-0.6-0.8-0.9c0,0,0,0,0,0.1
				c-0.2,0.3-0.5,0.4-0.8,0.4c-0.3,0.1-0.5,0-0.7-0.2c0,0,0,0-0.1,0c-0.2,0-0.4,0.1-0.4,0.1L16.5,26c-0.2,0.1-0.5,0.1-0.7,0
				c-0.1,0-0.1,0-0.2,0c-0.3-0.1-0.4-0.1-0.7-0.3l-0.7-0.4c-0.1,0-0.2,0.1-0.4,0.1c-0.2,0-0.4,0-0.7-0.1l-0.3-0.1
				c-0.6-0.1-0.7-0.6-0.8-0.8c0,0,0-0.1,0-0.1c-0.1-0.2-0.1-0.5,0-0.7l0-0.1c0-0.1,0-0.2,0-0.4c0-0.2,0.1-0.6,0.1-0.8
				c0-0.3,0.1-0.5,0.2-0.7c0.1-0.1,0.1-0.2,0.1-0.3c0.1-0.3,0.2-0.6,0.2-0.8c0-0.2-0.1-0.8-0.1-1.3c0-0.3-0.1-0.5-0.1-0.7
				c0-0.1-0.1-0.2-0.1-0.4c0-0.2-0.1-0.5-0.3-0.8c-0.1-0.3-0.2-0.6-0.3-0.8c-0.2-0.6-0.3-2-0.3-2l0,0c0,0-0.1-0.8-0.3-1.2
				c-0.1-0.2-0.3-0.6-0.5-0.9c-0.2-0.4-0.3-0.6-0.3-0.7c-0.1-0.2,0-0.8,0-1.3c-0.1,0-0.2-0.1-0.3-0.1c0,0,0,0-0.1,0
				c-0.2,0-0.4,0.1-0.4,0.1c-0.1,0.1-0.2,0.2-0.5,0.4c-0.2,0.2-0.5,0.4-0.7,0.6c-0.5,0.5-1.9,0.7-2.2,0.7c-0.4,0-1.6-0.4-2-0.5
				c-0.5-0.2-2.1-1.1-2.3-1.2c-0.2-0.1-0.3-0.3-0.4-0.4C1.6,10,1.5,9.8,1.4,9.7C1.3,9.6,1.2,9.5,1.1,9.5C1,9.4,0.9,9.4,0.9,9.3
				C0.7,9.1,0.6,8.7,0.6,8.4l0-0.1l0-0.1c0.9-2.5,3.8-2.7,4.7-2.7c0,0,0,0,0,0c1.1,0,3.3,0.7,4,0.9C9.4,6.2,9.6,5.9,10,5.7
				c0.5-0.4,1.2-1.3,1.3-1.6c0-0.1,0.1-0.2,0.1-0.2c0.1-0.3,0.2-0.3,0.4-0.4c0.3-0.1,0.9-0.5,1.1-0.7c0-0.1,0.1-0.2,0.2-0.3
				c0.3-0.4,0.6-0.8,1-1.1c0.1-0.1,0.2-0.1,0.3-0.2c0.5-0.4,1.4-1.2,2.8-1.1c1.4,0.1,2.3,0.9,2.6,1.2c0.1,0.1,0.1,0.1,0.1,0.1
				c0.3,0.1,0.9,1.1,0.9,1.3c0,0.1,0.3,0.3,0.8,0.5l0.1,0c0.4,0.2,0.7,0.6,0.8,1c0,0.2,0,0.2,0.4,0.4l0.2,0.1
				c0.2,0.1,0.4,0.3,0.6,0.4c0.2,0.1,0.4,0.4,0.5,0.4c0.1,0,0.6-0.2,1-0.4c0.8-0.3,1.9-0.8,2.6-1c0.5-0.1,1.2-0.5,2-0.9
				c0.9-0.4,1.7-0.8,2.4-1C33.4,2,36,2.4,37.1,2.6c1.1,0.2,4.9,0.7,5.5,0.7c0.1,0,0.4,0,0.7,0c1.7,0.1,5.1,0.2,6,0.4
				C49.8,3.9,50,3.9,50,4.1c0.4,0.2,0.4,0.2,0.9,0.3c0.2,0,0.9,0.1,1.7,0.1c1.5,0.1,3.5,0.2,4.4,0.4c1.3,0.3,8.8,1.6,9.6,1.6
				c0.4,0,1.2,0,1.9,0c0.7,0,1.4,0,1.8,0c0.5,0,1.1,0.2,3,0.9c0.9,0.3,2.2,0.7,3.9,1.3c4.3,1.4,5.6,3.2,6.2,4
				c0.1,0.1,0.2,0.3,0.2,0.3c0.4,0.3,0.4,0.6,0.4,0.8c0,0.1,0,0.1,0,0.1c0.1,0.2,0.3,0.6,0.8,1.4l0.3,0.4c0.7,1.2,2,4.8,2.1,5.3
				c0.1,0.3,0.7,2.8,0.7,3.3c0,0.3,0,1.3,0,1.7l0.4,1.7c0,0.2,0.1,0.9,0.1,1.1c0,0.2,0,0.4,0,0.4l0.2,0.5l0.4,1.6l0.4,1.1
				c0.4,1,0.2,2,0.1,2.4l0.5,0.8l1,1L90.4,37c0.2,0.5,0.6,1.4,0.6,1.9c0,0.8-0.6,2.2-0.6,2.2c-0.1,0.3-0.2,1.4-0.2,1.7l0,0.5
				l-0.4-0.3c-0.1-0.1-0.9-0.7-1.2-1.2c-0.3-0.5-0.3-1.1-0.3-1.1l-0.1-1l0-1c0-0.8-0.1-1.3-0.1-1.3l0-0.1l0.2-1.6l-0.6,0.4l0.1-1.5
				l-0.2-1.3l-0.1-1.7c0-0.1,0-2.3,0-2.8c0-0.1,0-0.2-0.1-0.6c-0.1-0.7-0.3-1.6-0.4-1.9c-0.1-0.3-0.1-0.8-0.2-1.7
				c0-0.6-0.1-1.3-0.1-1.6c-0.1-0.6-0.8-2.4-1.3-3.5c-0.3-0.7-1-1.8-1.4-2.5l-0.2,1.2c-0.3,0.9-0.7,2.2-0.7,2.6
				c0,0.2-0.1,0.5-0.1,0.8c-0.1,0.7-0.3,1.6-0.3,2.5c-0.1,1-0.2,2.3-0.3,3.3c-0.1,0.5-0.1,0.9-0.1,1.1c0,0.4-0.1,1.3,0.2,2.2
				c0.2,0.7,0.1,1.6,0,2.5c-0.1,0.4-0.1,0.9-0.1,1.3c-0.1,1.2,1.2,6.2,1.2,6.3l0.8,1.6l0.4,2.3l-0.7,1.4l-0.1,1.8l0.1,1.5l-0.2,3.7
				c0,0.9-0.1,3.9-0.1,4l0.3,2.6c0.1,0.3,0.5,0.9,0.8,1.1c0.2,0.2,0.2,0.4,0.2,0.5c0,0.1-0.1,0.4-1.1,0.5l-0.6,0.2l0,0.7
				c0.1,0,0.2,0,0.3,0.1c0.5,0.3,0.4,0.8,0.3,1.2c0,0.1-0.1,0.3-0.1,0.5c0,0.6-0.5,0.9-0.8,1l-0.7,0.5l-1.5-0.1c0,0,0,0,0,0
				c-0.4,0-1.1,0.2-1.3,0.2l-0.1,0l-0.1,0c-0.3-0.1-1.5-0.5-1.7-1.2c-0.1-0.6,0.3-1,0.8-1.3c0.1-0.1,0.2-0.2,0.3-0.3
				c0.3-0.3,0.6-1.3,0.8-1.8l0.6-2.7l0.6-3.5c-0.2-1.5-0.4-3.9-0.5-4.2c-0.1-0.4-0.4-1.1-0.4-1.1c0,0,0,0,0,0c0,0-0.4-0.6-0.6-1.1
				c-0.1-0.2-0.1-0.6-0.2-0.9c-0.1-0.3-0.1-0.6-0.2-0.8c-0.1-0.4-0.1-1.6-0.1-2c-0.2-0.2-0.6-0.8-1.1-1.3c-0.5-0.6-0.9-2.1-1.1-3.1
				c-0.2,0.3-0.4,0.6-0.6,0.8c-0.2,0.1-0.3,0.2-0.4,0.3c-0.2,0.2-0.3,0.3-0.5,0.4c-0.2,0.1-0.4,0.1-0.9,0.3c-0.5,0.2-1,0.5-1,0.9
				c0,0.6-0.4,1.2-0.8,1.6L72.2,45c-0.1,0.2-0.2,0.9-0.3,1.5c-0.1,0.6-0.2,1.2-0.3,1.6c-0.3,0.6-1.4,5.5-1.4,5.9
				c0,0.2-0.6,3.4-0.8,4.2l0.5,1.3l-1.2,1.1l-0.2-0.3c0-0.1-0.2-0.2-0.2-0.2c-0.1,0-0.2-0.1-0.3-0.1l-0.1,0.2l-0.4,0.6
				c0,0.2-0.1,0.7-0.2,1c-0.2,0.3-0.3,0.5-0.8,0.9c-0.4,0.3-0.6,0.3-0.8,0.3c-0.1,0-0.1,0-0.2,0c-0.4,0.1-0.7,0.1-1.5,0.1l-0.1,0
				c-0.7,0-1.1-0.1-1.6-0.2c-0.6-0.2-0.9-0.4-0.9-0.4L61,62.4l2.4-2.5c0.1-0.2,0.4-0.5,0.5-0.6c0.1-0.1,0.4-0.5,0.6-0.8
				c0.2-0.3,1-2.1,1.4-3.1c0.2-0.5,0.3-1.2,0.5-2c0.2-0.7,0.3-1.5,0.5-2.2c0.4-1.3,0-3.9-0.1-4.3c-0.1-0.2-0.2-1-0.3-2.2
				c-0.1-0.7-0.2-1.5-0.2-1.6c0-0.1-0.1-0.3-0.1-0.6c0-0.1-0.1-0.3-0.1-0.4c-0.1,0-0.2,0-0.3-0.1c0,0-0.1,0-0.1,0c0,0-2.4-0.6-3-1
				c-0.3,0-1.1,0.1-2,0.2c-1.1,0.2-2.4,0.3-3,0.3l-0.1,0c-0.7,0-1.4-0.1-2.3-0.3c-0.1,0-0.3,0-0.5-0.1c-1-0.1-3-0.4-4.2-0.7
				c-0.7-0.2-1.8-0.3-2.8-0.4c-0.9-0.1-1.7-0.2-2-0.3c-0.4-0.1-0.7-0.1-1-0.1l-0.2,0c-0.1,0-0.1,0-0.2,0c-0.5,0-0.6-0.3-0.7-0.5
				c0,0-0.1-0.1-0.2-0.1l-1.2,5l-0.7,3.2l-0.5,2.5l-0.3,0.9l-0.2,1.6l-0.4,0.8l0,1.8l0.1,2.1c0,0.1,0.2,1.4,0.2,1.8
				c0,0.2,0.4,1.6,0.8,2.8l0,0.1l-0.9,1.6l-0.1,0.5l0,0.7c0,0,0,0.1,0.1,0.2c0.3,0.2,0.3,0.7,0.3,1.1c0,0.1,0,0.4-1.5,2.1l0,0.1
				l-0.1,0c-0.3,0.1-0.7,0.2-0.8,0.2c-0.1,0-0.2,0-0.4,0C37.5,68.4,36.9,68.4,36.5,68.4z M34,67.4c0,0,0.1,0,0.1,0
				c0.1,0,0.2,0.1,0.4,0.1c0.2,0,0.3,0.1,0.4,0.1c0.1,0,0.1,0.1,0.2,0.1c0.3,0.1,0.8,0.1,1.3,0.2c0.3,0,1,0,1.4-0.1
				c0.2,0,0.4,0,0.5,0c0.1,0,0.4-0.1,0.6-0.2c0.6-0.7,1.2-1.6,1.3-1.8c0-0.3,0-0.5-0.1-0.6c-0.3-0.2-0.4-0.5-0.4-0.7l0-0.8l0.2-0.6
				l0.8-1.5c-0.2-0.7-0.8-2.6-0.7-2.9c0-0.2-0.1-1.1-0.2-1.7l-0.2-2.2l0.1-2l0.4-0.8l0.2-1.6l0.3-0.9l0.5-2.5l0.7-3.2l1.3-5.5
				l0.3,0.1c0.2,0,0.6,0.2,0.8,0.4c0.1,0.2,0.2,0.2,0.3,0.3c0,0,0.1,0,0.2,0l0.2,0c0.3,0,0.7,0,1.1,0.2c0.3,0.1,1.1,0.2,1.9,0.3
				c1,0.1,2.1,0.3,2.8,0.5c1.2,0.3,3.2,0.5,4.2,0.6c0.3,0,0.4,0.1,0.5,0.1c0.8,0.1,1.6,0.2,2.2,0.2l0.1,0c0.5,0,1.8-0.2,2.9-0.3
				c0.9-0.1,1.8-0.2,2.1-0.2c0.1,0,0.2,0,0.3,0.1c0.3,0.2,2.5,0.9,2.8,0.9c0.1,0,0.2,0,0.2,0.1c0,0,0,0,0,0l0-0.1l0.2,0
				c0.3,0,0.3,0.3,0.5,1c0,0.2,0.1,0.4,0.1,0.5c0.1,0.2,0.1,0.8,0.2,1.7c0.1,0.8,0.2,1.9,0.3,2.1c0.2,0.5,0.6,3.2,0.1,4.7
				c-0.2,0.7-0.4,1.4-0.5,2.1c-0.2,0.8-0.3,1.5-0.5,2c-0.4,1.1-1.2,2.9-1.4,3.3c0,0-0.5,0.8-0.8,1c0,0-0.2,0.3-0.4,0.5l-2,2
				c0.1,0.1,0.3,0.1,0.4,0.2c0.5,0.1,0.8,0.2,1.4,0.2h0.1c0.7,0,1.1,0,1.4-0.1c0.1,0,0.2,0,0.3,0c0.1,0,0.2,0,0.5-0.2
				c0.4-0.3,0.5-0.5,0.6-0.7c0.1-0.2,0.1-0.6,0.2-0.9l0-0.1l0.5-0.7l0.3-0.6l0.2,0.1c0,0,0.4,0.1,0.6,0.2c0.1,0,0.1,0.1,0.2,0.2
				l0.5-0.5l-0.4-1.1l0-0.1c0.3-1.6,0.8-4,0.8-4.2c0-0.3,1.2-5.4,1.5-6c0.1-0.3,0.2-0.9,0.3-1.5c0.1-0.9,0.2-1.5,0.4-1.7l0.1-0.1
				c0.3-0.4,0.6-0.9,0.7-1.3c0-0.8,0.9-1.2,1.3-1.4c0.5-0.2,0.7-0.3,0.9-0.4c0.1,0,0.2-0.1,0.3-0.3c0.1-0.1,0.3-0.3,0.5-0.4
				c0.2-0.1,0.6-0.8,0.8-1.3l0.4-0.8l0.1,0.9c0.1,0.8,0.6,3,1.1,3.6c0.6,0.6,1.2,1.4,1.2,1.5l0.1,0.1l0,0.1c0,0.6,0,1.6,0,1.9
				c0.1,0.2,0.1,0.6,0.2,0.9c0.1,0.3,0.1,0.6,0.2,0.8c0.1,0.3,0.4,0.9,0.5,1c0,0.1,0.3,0.7,0.4,1.2c0.1,0.5,0.5,4,0.6,4.4l0,0
				l-0.7,3.5l-0.6,2.7c0,0.2-0.4,1.6-1,2.1c-0.1,0.1-0.2,0.2-0.4,0.3c-0.4,0.3-0.6,0.5-0.5,0.8c0.1,0.3,0.7,0.6,1.2,0.8
				c0.2-0.1,0.9-0.2,1.3-0.2l0.1,0l1.3,0.1l0.7-0.4c0,0,0.4-0.1,0.4-0.5c0-0.2,0.1-0.4,0.1-0.6c0.1-0.4,0.1-0.5-0.1-0.6L83,63.3
				l-0.3,0l-0.1-0.1c-0.1-0.1-0.1-0.2-0.1-0.6l0.1-1.1l1-0.3c0.2,0,0.3,0,0.5-0.1c-0.4-0.4-0.7-1.1-0.8-1.2l0-0.1L83,57.2
				c0-0.2,0-3.1,0-4l0.2-3.7l-0.1-1.5l0.1-2l0.6-1.3l-0.3-2l-0.8-1.5c-0.1-0.3-1.3-5.3-1.2-6.5c0-0.4,0.1-0.9,0.1-1.3
				c0.1-0.8,0.2-1.7,0.1-2.3c-0.3-1-0.2-1.9-0.2-2.4c0-0.2,0-0.6,0.1-1.1c0.1-1,0.2-2.3,0.3-3.3c0.1-1,0.2-1.9,0.4-2.6
				c0.1-0.3,0.1-0.6,0.1-0.8c0-0.5,0.7-2.4,0.8-2.6l0.3-2.7l0.4,0.7c0.1,0.1,1.3,2.1,1.8,3.2c0.6,1.1,1.2,3,1.4,3.7
				c0.1,0.3,0.1,1,0.1,1.6c0,0.6,0.1,1.4,0.1,1.6c0.1,0.3,0.3,1.3,0.4,2c0.1,0.4,0.1,0.6,0.1,0.7c0,0.4,0,2.7,0,2.7l0.1,1.7l0.2,1.4
				l0,0.4l0.7-0.5l-0.3,2.7c0,0.2,0.1,0.6,0.1,1.4l0,0.9l0.1,1c0,0,0,0.4,0.2,0.8c0.1,0.2,0.4,0.5,0.7,0.7c0-0.5,0.1-1.1,0.2-1.4
				c0.2-0.5,0.5-1.5,0.6-2c0-0.4-0.4-1.4-0.6-1.9l-0.1-0.3l0.5-0.2L89.7,36L89,34.9l0-0.1c0,0,0.3-1.1,0-2.1l-0.4-1.1L88.2,30
				L88,29.4c0-0.1,0-0.4,0-0.6c0-0.1-0.1-0.6-0.1-1l-0.4-1.7c0-0.1-0.1-1.4-0.1-1.8c0-0.3-0.5-2.7-0.7-3.1c-0.1-0.5-1.4-4-2.1-5.1
				l-0.3-0.4c-0.6-0.9-0.8-1.3-0.9-1.6c0-0.1,0-0.2,0-0.3c0-0.1,0-0.2-0.2-0.4c-0.1-0.1-0.2-0.2-0.3-0.4c-0.6-0.8-1.8-2.4-5.9-3.8
				c-1.7-0.6-3-1-3.9-1.3C71.4,7.2,70.8,7,70.3,7c-0.4,0-1,0-1.7,0c-0.8,0-1.5,0-2,0c-0.9,0-8.3-1.3-9.7-1.6C56,5.2,54.1,5.1,52.6,5
				c-1,0-1.6-0.1-1.8-0.1c-0.6-0.1-0.6-0.1-1.2-0.4c-0.1,0-0.2-0.1-0.3-0.2c-0.1,0-0.1,0-0.2,0c-0.8-0.2-4.4-0.3-5.9-0.4
				c-0.3,0-0.6,0-0.7,0c-0.7,0-4.5-0.5-5.6-0.7c-0.8-0.2-2.4-0.5-3.6-0.5c-0.4,0-0.7,0-1,0.1c-0.6,0.1-1.5,0.6-2.3,1
				c-0.8,0.4-1.5,0.7-2.1,0.9c-0.7,0.2-1.8,0.6-2.5,1c-0.8,0.3-1,0.4-1.2,0.4c0,0,0,0,0,0c-0.3,0-0.6-0.2-0.9-0.5
				c-0.2-0.1-0.3-0.3-0.5-0.4L22.7,5c-0.4-0.3-0.6-0.4-0.7-0.8c0-0.2-0.3-0.5-0.5-0.6l-0.1,0c-0.5-0.2-1-0.5-1.1-0.8
				c-0.1-0.2-0.5-0.9-0.7-1c-0.1,0-0.1-0.1-0.3-0.2c-0.4-0.3-1.1-1-2.3-1.1c-1.2-0.1-2,0.6-2.4,1c-0.1,0.1-0.2,0.2-0.3,0.3
				c-0.3,0.2-0.6,0.7-0.8,1c-0.1,0.1-0.2,0.3-0.2,0.3c-0.2,0.3-1,0.7-1.3,0.8c0,0-0.1,0-0.1,0c0,0,0,0,0,0c0,0.1,0,0.1-0.1,0.3
				c-0.2,0.5-0.9,1.5-1.5,1.9C9.8,6.5,9.7,6.8,9.7,6.8L9.6,7.1L9.3,7c0,0-2.8-0.9-4-0.9c-0.8,0-3.4,0.2-4.2,2.3
				c0,0.2,0.1,0.5,0.1,0.5c0,0,0.1,0.1,0.1,0.1c0.1,0.1,0.2,0.2,0.4,0.4C1.9,9.5,2,9.6,2.1,9.7C2.2,9.9,2.3,10,2.4,10
				c0.2,0.1,1.7,1,2.1,1.1c0.5,0.2,1.6,0.5,1.8,0.5h0c0.3,0,1.5-0.2,1.8-0.5c0.2-0.2,0.5-0.5,0.8-0.7C9,10.3,9.2,10.1,9.2,10
				C9.4,9.8,10,9.8,10,9.8c0.2,0,0.3,0,0.4,0.1c0.1,0,0.3,0.1,0.4,0.1l0.3,0l0,0.3C11,10.8,11,11.5,11,11.6c0,0.1,0.2,0.4,0.3,0.6
				c0.2,0.4,0.4,0.7,0.5,1c0.2,0.4,0.3,1.3,0.3,1.3c0,0,0.1,1.4,0.2,1.9c0.1,0.2,0.2,0.5,0.3,0.8c0.1,0.4,0.2,0.7,0.3,0.9
				c0,0.1,0.1,0.2,0.1,0.3c0.1,0.2,0.2,0.5,0.2,0.9c0,0.5,0.1,1.2,0.1,1.2l0,0.1l0,0.1c0,0-0.2,0.5-0.2,0.8c0,0.2-0.1,0.3-0.2,0.4
				c-0.1,0.2-0.1,0.3-0.1,0.5c0,0.2,0,0.6-0.1,0.8c0,0.2,0,0.3,0,0.4c0,0,0,0.1,0,0.2c0,0.1,0,0.3,0,0.4c0,0,0,0.1,0.1,0.2
				c0.1,0.2,0.1,0.4,0.4,0.4l0.3,0.1c0.3,0.1,0.4,0.1,0.5,0.1c0.2,0,0.4-0.1,0.4-0.1l0.1,0l0.9,0.6c0.3,0.2,0.3,0.2,0.5,0.2
				c0.1,0,0.1,0,0.2,0c0.1,0,0.1,0.1,0.3,0l0.3-0.1c0.1,0,0.3-0.1,0.6-0.1c0.2,0,0.3,0,0.4,0.1c0.3,0.2,0.2,0.1,0.3,0.1
				c0.1,0,0.3-0.1,0.4-0.2c0.1-0.2,0.2-0.4,0.2-0.4l0.2-0.4l0.3,0.3c0.3,0.4,0.8,1,1,1.1c0.3,0.2,2.5,3.2,2.6,3.8
				c0,0.1,0,0.2,0.1,0.4c0.1,0.4,0.2,1.1,0.3,1.3c0.1,0.2,0.1,0.4,0.2,0.7c0,0.3,0.1,0.7,0.3,0.9c0.2,0.3,0.4,0.6,0.5,0.8
				c0,0.1,0.1,0.2,0.1,0.3c0.2,0.1,0.3,0.3,0.4,0.6c0.1,0.2,0.2,0.6,0.4,0.7c0.4,0.3,0.7,0.6,0.7,0.8c0.1,0.2,1.6,3.2,1.8,3.4
				c0.1,0.1,0.2,0.3,0.4,0.7c0.2,0.4,0.7,1.1,0.9,1.2c0.4,0.2,0.7,0.7,0.8,0.7l0,0.1c0,0.3,0.3,2.9,0.3,3.2c0,0.4,0,2.2,0,2.6
				c0.1,0.4,0.5,2.2,0.6,2.4c0.1,0.2,0.3,0.6,0.3,0.7l0,0.1l0,0.1c0,0.2-0.1,3.8-0.3,4.6l-0.3,1c-0.2,0.8-0.5,1.9-0.6,2.1
				c-0.1,0.3-0.1,0.7-0.1,0.8c0,0.2-0.1,0.8-0.3,1.2c-0.2,0.3-0.6,1.1-0.6,1.1l-0.1,0.1c-0.3,0.2-1.1,0.8-1.3,1.1
				c-0.1,0.2-0.2,0.3-0.4,0.4c-0.1,0.2-0.3,0.3-0.4,0.5c-0.1,0.2-0.3,0.3-0.4,0.4c0,0,0,0,0,0c0.2,0.2,0.4,0.3,0.6,0.3
				c0.2,0,0.4,0,0.6,0c0.3,0,0.7,0.1,1.1,0.1c0.4,0,0.8,0,1.1,0c0.4,0,0.6,0,0.7-0.1l0.1,0c0.3-0.1,0.5-0.2,0.8-0.4
				c0.2-0.2,0.3-0.3,0.4-0.4c0.1-0.1,0.1-0.2,0.2-0.3c0.2-0.2,0.3-0.6,0.3-0.8c0-0.1-0.1-0.2-0.1-0.3c0-0.1-0.1-0.2-0.1-0.2
				c0-0.1,0-0.3,0.1-0.5c0-0.1,0.1-0.3,0.1-0.5c0-0.4,0.1-0.7,0.1-0.7l0.1-0.2l0.2,0c0,0,0.3,0,0.5,0.2c0.1,0.1,0.2,0.1,0.4,0.2
				c0.1,0,0.1,0.1,0.2,0.1c0.1-0.2,0.1-0.4,0.1-0.5c-0.1-0.1-0.4-0.7-0.4-0.7l-0.3-0.6l0-0.1c0.1-0.4,0.2-0.8,0.2-0.9
				c0-0.2,0-0.5,0-0.5l-0.1-0.7l0-4.4c0.1-1.1,0.4-3.3,0.4-3.6c0-0.2,0.1-0.5,0.2-0.7c0-0.1,0.1-0.2,0.1-0.2c0-0.1,0-0.4,0.1-0.8
				c0-0.4,0.1-1,0.1-1.1c0-0.2,0.1-0.7,0.2-1.4c0.1-0.7,0.3-1.6,0.3-1.8c0-0.5,0-1.8,0-1.8l0-0.1l0.1-0.1c0.1-0.1,0.5-0.7,0.8-0.9
				c0.2-0.2,1.2-0.9,1.3-1l0.4-0.3l0.1,0.5c0,0,0.1,0.9,0.2,1c0,0.2-0.1,3-0.2,5.3c-0.2,1.1-0.6,3-0.6,3.4c0.1,0.5,0.4,1.7,0.6,2.1
				c0.2,0.5,0.4,1,0.5,1l0,0.1c0.1,0.3,0.6,3,0.6,3.7l0,0.2c-0.2,1.5-0.3,2.9-0.5,3.2c-0.1,0.1-0.2,0.5-0.2,1.4
				c0,0.2-0.1,0.5-0.2,0.8l-0.1,0.2c0,0-0.4,1.3-0.7,1.6c-0.2,0.1-0.2,0.1-0.2,0.2c-0.1,0.2-0.1,0.5-0.1,0.5l0,0.1
				c0,0-0.4,0.6-0.8,1c-0.1,0.1-0.2,0.2-0.3,0.3c-0.2,0.2-0.6,0.5-0.6,0.7C34.1,66.8,34,67.2,34,67.4z"/>
		</g>
		<g>
			<path fill-rule="evenodd" clip-rule="evenodd" d="M40.2,3.5c-1.7,1.6-4.5-1.6-6.5-0.4c0-0.3,0.2-0.3,0.4-0.4
				C36.4,2.6,38,3.3,40.2,3.5z"/>
			<path fill-rule="evenodd" clip-rule="evenodd" d="M76.4,13.1c0.7,0.5,1.3,0.6,2.3,0.7c1.9,1.4,2.5,3.2,1.8,6.4
				c-0.1,0.6-0.6,1.2-0.7,1.9c-0.7-0.2-1.1-0.1-1.3-0.8c-0.3,0-0.1,0.4-0.5,0.3c-0.9-1.1-2.3-1.8-1.9-3.8c-0.2-0.4-0.4-0.8-0.5-1.2
				c0.5-0.5,0.3-1.2,0.3-2.1C76.3,13.9,76.6,13.9,76.4,13.1z"/>
			<path fill-rule="evenodd" clip-rule="evenodd" fill="#FFFFFF" d="M64.6,20.2c0.4,0.4,0.4,1.2,0.9,1.5c0.3,0,0.4-0.3,0.8-0.2
				c0,0.4,0.2,0.6,0.2,1c-0.4,0-0.5-0.4-0.7-0.6c-0.4,0-0.4,0.4-0.7,0.4C65,21.6,64.6,21,64.6,20.2z"/>
			<path fill-rule="evenodd" clip-rule="evenodd" d="M65.7,29.3c0.2,0.2,0.6,0.1,1,0.2c1.1,1.3,1.5,4.3-0.1,5.5
				c-0.6,0.2-0.9,0.2-1.4,0.7c-0.6,0-0.5-0.1-1-0.2c-0.3-1.2-0.7-2.5-0.3-3.5C64.4,31.1,65.7,30.5,65.7,29.3z"/>
			<path fill-rule="evenodd" clip-rule="evenodd" d="M43.8,29.4c1.2,0.7,2.7,2.7,1.3,4.3c-0.4,0.1-0.4-0.3-0.8-0.3
				c0.2,0.9-0.5,1.8,0,2.7c-1.4,2.4-2.2,5.9-2.8,9.4c-0.4,2-0.3,4.5-1.6,5.4c-0.1-1.4-0.8-4.3,0.8-5.1c-0.4-0.9,0.3-1.5,0.3-2.3
				c0.4,0.1,0.6,0,0.8-0.2c0.2-2.4,1.8-4.7,0.6-6.6c0.8-1.7-0.8-3.5,0.5-4.9c0.6,0.2,0.7,0.2,1.3,0.3C44.2,31.2,43.6,30.3,43.8,29.4
				z"/>
			<path fill-rule="evenodd" clip-rule="evenodd" d="M34.5,35.9c0.4,0,1.2,0.4,1,0.9C34.9,36.8,34.3,36.4,34.5,35.9z"/>
			<path fill-rule="evenodd" clip-rule="evenodd" d="M35.9,36.7c0.4,0.2,0.5,0.8,0.6,1.4c-0.2-0.4-0.7-0.6-0.8-1.2
				C35.9,36.9,35.9,36.8,35.9,36.7z"/>
			<path fill-rule="evenodd" clip-rule="evenodd" d="M35.1,37.7c0.5-0.3,1,0.2,1.2,0.5c-0.3,0.3-1.1,0-1.3-0.2
				C34.9,37.7,35.9,37.9,35.1,37.7z"/>
			<path fill-rule="evenodd" clip-rule="evenodd" d="M36.7,38.7c-0.5,0.5-1.2,0.7-1.9,0.9c0.1-0.3,0.2-0.5-0.1-0.7
				C35,38.5,36.3,38.3,36.7,38.7z"/>
			<path fill-rule="evenodd" clip-rule="evenodd" d="M65.1,40.5c1-0.3,1.7,0.5,2.7,0.5c-0.3,0.5,0.2,1,0,1.8
				c-0.2,0.1-0.3,0.2-0.5,0.3c-0.5-0.4-0.5-1.2-0.7-1.8c-0.3,0-0.6,0-0.9,0c0-0.2,0.1-0.3,0.1-0.4C65.7,40.6,65.3,40.9,65.1,40.5z"
				/>
			<path fill-rule="evenodd" clip-rule="evenodd" d="M76.2,40.7c-0.9-0.4-1.8,0.3-2.8,0.2c0.2,0.5-0.3,1-0.2,1.8
				c0.1,0.1,0.3,0.2,0.4,0.4c0.5-0.3,0.6-1.1,0.9-1.7c0.3,0,0.6,0,0.9,0c0.1-0.2-0.1-0.3-0.1-0.4C75.6,40.7,75.9,41.1,76.2,40.7z"/>
			<path fill-rule="evenodd" clip-rule="evenodd" d="M36.6,39.3c-0.4,0.9-2,2.1-2.9,2.4C34,40.2,35.3,39.7,36.6,39.3z"/>
			<path fill-rule="evenodd" clip-rule="evenodd" d="M52.6,40.3c0.2-0.3,0.9,0,1.1,0.1C53.4,40.7,53,40.2,52.6,40.3z"/>
			<path fill-rule="evenodd" clip-rule="evenodd" d="M69.1,41.2c0.7,0.2,0.4,1.1,0.4,1.6c-0.2-0.1-0.5-0.4-0.5-0.2
				C68.6,42.1,69.2,41.8,69.1,41.2z"/>
			<path fill-rule="evenodd" clip-rule="evenodd" d="M71.4,41c0.3,0.5,0.2,1.4,0.6,1.9c-0.6,0-0.5-0.4-1.1-0.2
				c-0.1-0.4,0.2-1.1,0-1.3C70.8,41.1,71.3,41.2,71.4,41z"/>
			<path fill-rule="evenodd" clip-rule="evenodd" d="M37,40.5c2,1.1,2.1,4.6,1.2,6.9c-0.8,0.2-1.2,0.3-1.8,0.2
				C36.7,45.7,36.7,42.8,37,40.5z"/>
			<path fill-rule="evenodd" clip-rule="evenodd" d="M68.9,58.8c0.4,0.1,0.6,0.4,0.6,0.8C68.6,61,67,59.1,68.9,58.8z"/>
			<path fill-rule="evenodd" clip-rule="evenodd" d="M84,60.1c0.3,0.4,0.5,0.7,0.5,1.4c-0.5,0.1-0.6-0.2-1-0.3
				C83.5,60.7,83.9,60.6,84,60.1z"/>
			<path fill-rule="evenodd" clip-rule="evenodd" d="M33.2,60.2c0.5,0.2,0.8,1.2,0.4,1.6C32.1,61.5,32.3,60.8,33.2,60.2z"/>
			<path fill-rule="evenodd" clip-rule="evenodd" d="M41,61.8c0.3,0.3,0.5,0.8,0.6,1.3c-0.4,0.2-0.6,0.2-1.3,0.3
				C40.2,62.6,40.7,62.3,41,61.8z"/>
			<path fill-rule="evenodd" clip-rule="evenodd" d="M40.3,65.9c-0.2,3-4.6,2.6-6.7,1.7c0.2-1.5,1.2-2.1,2-2.9c0.5,0.3,1,0,1.1,0.5
				c0.9-0.3,1.3,0.2,2.2-0.1C39.3,65.3,39.8,65.6,40.3,65.9z"/>
			<path fill-rule="evenodd" clip-rule="evenodd" d="M17.4,0.4c0.2,0.1-0.1,0.1-0.2,0.1c-0.1,0.2-0.3,0.4-0.4,0.6
				c-0.3,0-0.2-0.4-0.4-0.5c-0.4-0.2-0.4,0.2-0.5,0.2C14.3,1.5,16.2,0.1,17.4,0.4z"/>
			<path fill-rule="evenodd" clip-rule="evenodd" d="M32.3,3.1c0.1,0.3,0.3-0.1,0.6,0c-0.3,0.4-0.6,0.1-0.9,0.4
				c-0.3-0.2,0.3-0.3,0.4-0.5c-0.3,0.1-0.6,0.1-0.7,0.5c-0.4-0.2-0.6,0.2-1.1-0.1c0.4-0.5,1.2-0.6,2.1-0.7C32.6,2.9,32.5,3,32.3,3.1
				z"/>
			<path fill-rule="evenodd" clip-rule="evenodd" d="M66.6,12.5c0.3,2.1,2.7,3.3,1.8,6c0,0.5,0.6,0.7,0.7,0.7
				c0.3-0.3,0.3-0.3,0.3-0.8c0.3-0.1,0.7-0.1,0.8-0.4c1.2,0.7,1.1,2.4,0.6,3.9c0.9,1.7,0.1,3.8-0.5,5.6c-0.4-0.3-0.6-0.6-0.6-1.3
				c-0.3,0-0.1,0.3-0.5,0.4c-0.4,0-0.4-0.7-0.8-0.4c0.1,0.4,0.4,2.3-0.3,2.9c-0.6-0.3-1.4-0.4-1.8-0.9C66.2,29,65.4,28.8,65,29
				c-0.1-0.4-0.6-0.5-0.7-0.8c-0.4,0.9,0.6,3.4-1,3.6c0,0.2,0,0.4,0,0.6c-1.4,0.4-2.3,1.7-2.8,2.2c-0.5,0-0.7-0.4-0.7-0.8
				c-1.4-0.4-2.8-0.2-3.2-1.8c-0.3-0.3-0.7-0.3-1-0.6c0-0.3,0-0.5-0.1-0.7c-1.2-1.1-2.7-1.8-2.6-3.9c-0.5,0.4-0.4,0.9-0.7,1.3
				c-0.4,0-0.7-0.1-1-0.2c0-0.7-0.6-1.1-0.8-1.8c-0.4-1.4,0.1-3.2-0.8-4.5c-0.3,0.1-0.2,0-0.7,0.1c-1.1-1.4-1.9-3.1-3.6-4
				c-0.5-1.2-1.1-2.3-1.5-3.5c0.9-1.2-0.4-2.3-0.7-3.5c-0.4-1.2,0-2.6-0.7-3.8c0.8,0.3,1.3,0.5,2.4,0.5c1.8,1.3,2.9,3.3,4.6,4.8
				c0.1-0.4-0.4-1.3-0.2-2.1c-0.5-1-2.1-1.2-1.9-2.5c-0.4-0.6-0.3-1.2-0.9-1.7c0.5-0.5,0-1.2-0.1-1.8c3.9,0.5,8.2,1.2,12.8,1.8
				c0.1,0.4-0.4,0.2-0.6,0.2c2.2,1.3,5.1,1.7,8.2,2c0.9,0.8,0.4,2,0.2,3c0.1,0.5,0.5,0.7,0.6,1.1c-0.2,0.4-0.3-0.1-0.5-0.1
				c0.1,0.5-0.1,0.7,0.1,1C67,13.1,66.8,12.5,66.6,12.5z M53.4,16c-0.8-0.2-1.1-0.7-1.3-1.4c-1.1-0.1-1-1.3-1.9-1.5
				c0,0.7-0.1,0.9,0.2,1.3c-0.9,1,1,1.9,1.2,2.9C52.5,16.8,52.6,16.6,53.4,16z M65.1,22.3c0.3,0,0.3-0.4,0.7-0.4
				c0.2,0.2,0.3,0.6,0.7,0.6c0-0.4-0.1-0.7-0.2-1c-0.4-0.1-0.4,0.2-0.8,0.2c-0.5-0.3-0.6-1-0.9-1.5C64.6,21,65,21.6,65.1,22.3z"/>
			<path fill-rule="evenodd" clip-rule="evenodd" d="M24.1,5.9c2.1-0.9,6.1-2.7,8.1-0.2c0.5,0.1,0.8,0.3,1.1,0.5
				C33.6,6.2,33.6,6,34,6.1c1.2,0.5,1.2,2.1,2.3,2.7c0.6,1.7,2.4,2.4,2.8,4.4c0.1,0.2,0.3,0.3,0.4,0.5c0.2,0.7,0,1.6-0.1,2.1
				c0.8,0.3,0.6,1.5,0.9,2c0.5,0.2,0.7,0.7,1.3,1c0.9,2.1,1.9,4.6,1.4,7.6c-0.1,0.1-0.6,0-0.5,0.4c-0.3-0.5-0.6-1-1.2-1.3
				c-0.3,2.2,2,3.9,0.9,6.1c-0.5,0.4-1.1,0.1-1.3,0.9c-0.4,0.2-1,0.1-1.1-0.4c-0.9,0.6-0.1,2.4-0.8,3.2c-1.6,0-2.6-1.3-2.5-3.2
				c-0.8-1.4-2.2-2.2-2.9-3.6c-0.6,0.1-1.1,0.5-1.4,0.9c-0.5-0.5-0.9-0.2-1.5-0.1c-0.6-0.7-1.1-1.4-1.8-1.9c0.3,0.7-0.9,1.3-0.5,2
				c-0.2,0.1-0.7-0.1-0.8,0.4c-0.4,0.1-0.3-0.2-0.5-0.2c0.6,1.3-0.5,2-1.1,2.6c-0.1-0.3-0.5-0.4-0.6-0.7c-0.4,1-1.6,0.1-2,0.7
				c-0.7-0.7-1.4-2.7-0.8-3.6c-1-0.3-0.8-1.8-1.5-2.3c0.4-0.4,0.4-1.2,0.8-1.6c-0.7-2-0.3-5.3,0.6-7.6c-0.3,0.5-0.2-0.3-0.2-0.7
				c-0.5,1.3-0.7,3-1.2,4.3c-0.3-1.3-0.6-2.3-0.8-3.5c-0.4-0.1-0.5,0.3-0.8,0.1c0-1.2-0.7-1.8-0.4-3.2c0.6-0.2,0.8-1.7,0.3-2.4
				c1.2-1.4,0.8-3.7,1.7-5c-0.3-0.4,0-0.9,0.1-1.1c-0.1-0.1-0.3-0.2-0.2-0.6c0.6-0.3-0.1-1.3,0.7-1.2c-1.1-0.9,0.4-0.1,0.8,0.4
				c-0.1,0.3,0.2,0.3,0.1,0.6C23,4.9,23.4,5.5,24.1,5.9z"/>
			<path fill-rule="evenodd" clip-rule="evenodd" d="M83.7,16.3c-0.8,2.6-1.2,5.5-1.7,8.5c-0.1-1.6-1.1-3.3-0.3-5
				c-0.3-1.4,0.2-3.7-0.4-5.3c-0.3-0.9-0.9-1.4-1.1-2.4c0.4-0.2,0.9-0.8,1-0.8c2,0.5,2.6,3.2,3.6,5c-0.2,0-0.1-0.3-0.4-0.2
				c-0.1,0.6,0.6,1.3,0,1.3c0.5,1,1.2,2.3,1.2,3.1C85.1,18.9,84.6,17.4,83.7,16.3z"/>
			<path fill-rule="evenodd" clip-rule="evenodd" d="M13,3c0.3,0.6-0.6,1.7-1,2.6c0,0.4,0.5,0.3,0.6,0.5C12.6,6.7,13,7.5,13.4,8
				c0.2,1.3,0.3,2.6,0.6,3.9c0.2,0.8,0.6,1.5,0.8,2.3c0.5,2-0.5,3.4-1.3,5c-0.2,0.5,0.1,1.1-0.6,1.3c-0.3-3.7-1.6-6.5-2.1-10.1
				C8.9,9.6,8.7,11.9,6.7,12C4.2,12.1,2.6,10.4,1,9c0.3-2.2,2.9-3.6,5.5-3c1,0.2,2.1,0.9,2.8,0.8c0.4-0.1,1.9-1.6,2.2-2.2
				c0.2-0.3,0.1-0.7,0.3-0.9C12.2,3.3,12.7,3.5,13,3z"/>
			<path fill-rule="evenodd" clip-rule="evenodd" fill="#FFFFFF" d="M51.6,17.4c-0.2-1-2.1-1.9-1.2-2.9c-0.2-0.5-0.1-0.6-0.2-1.3
				c0.9,0.3,0.8,1.5,1.9,1.5c0.2,0.7,0.5,1.2,1.3,1.4C52.6,16.6,52.5,16.8,51.6,17.4z"/>
			<path fill-rule="evenodd" clip-rule="evenodd" d="M13.5,23.5c-0.3,0.1,0.1,0.2,0,0.4c0.1,0,0.2-0.1,0.2-0.2
				c0.1,0.2,0.2,0.6,0.1,0.7c0.1-0.1,0.3-0.1,0.4-0.1c0.1,0.3,0,0.2,0.1,0.7c0.2,0,0.4,0,0.6,0c-0.4-0.3-0.6-0.8-0.4-1.4
				c0.5,0.1,0.3,0.1,0.6-0.2c0.2,0.3,0.5,0.4,0.9-0.1c-0.3-0.1-0.5-0.4-1-0.5c0.3-0.3,0.4-0.4,0.3-0.9c0.5,0.1,0.1,0.5,0.7,0.1
				c-0.1,0.3,0.2,0.2,0.2,0.5c0.8-0.4,1.1,0.6,1.6,0.4c0,0.2-0.1,0.3-0.2,0.3c0.2,0.2,0.6,0.3,0.9,0.5c0,0.2-0.1,0.3-0.1,0.4
				c0.1,0.1,0.2,0.1,0.2,0.3c0.2-0.1,0.3-0.3,0.6-0.3c0.1-0.6,0-0.8,0.3-1c0-0.1-0.1-0.1-0.1-0.2c-0.3,0.5-1.1-0.2-1.1,0.2
				c-0.6-0.4,0-1.3,0.5-1.7c-0.2-0.1-0.7,0-0.9-0.4c0.1-0.5,1,0.1,1.2,0.1c0.1,0,0.4-0.2,0.3-0.2c0.6,0.3,0.8,1.6,0.1,2.1
				c0.2,0.1,0.3,0.3,0.4,0.5c-0.1,0.5-0.5,0.6-0.7,0.9c0.4,0,0.3-0.1,0.4,0.5c0.1-0.1,0.3-0.1,0.6-0.1c-0.2,0.3-0.9,0.3-1.2,0.2
				c-1.5,1.4-3.9,0.2-5.5-0.1c0.1-1-0.2-2.1-0.4-3.2c0.4,0.1,0.2-0.5,0.4-0.6c0.3,0,0.5,1.2,0.9,0.5C15.6,22.4,13.9,24.2,13.5,23.5z
				 M17.1,24.8c-0.4-0.2-0.5-0.6-1-0.6C15.9,25,17.3,25,17.1,24.8z"/>
			<path fill-rule="evenodd" clip-rule="evenodd" fill="#FFFFFF" d="M16.2,24.2c0.5,0,0.6,0.4,1,0.6C17.3,25,15.9,25,16.2,24.2z"/>
			<path fill-rule="evenodd" clip-rule="evenodd" d="M71.6,32.2C72.1,31.8,73.1,32.6,71.6,32.2L71.6,32.2z"/>
			<path fill-rule="evenodd" clip-rule="evenodd" d="M73.5,33.2c1.5,1.4,3,4.3,3.2,6.8c-0.1-0.5-0.1,0.2-0.6,0.2
				c0.2-0.7-0.3-1.2,0-1.7C75.1,36.8,75,34.4,73.5,33.2z"/>
			<path fill-rule="evenodd" clip-rule="evenodd" d="M63.4,61.1c0,0.2,0.1,0.2,0.1,0.4c0.6,0.2,1.5-0.1,2.1-0.3
				c0.5,0.2,0.8,0.4,1.2,0.6c-0.5,1.6-4,1.6-5.4,0.6c0.5-0.9,1.4-1.5,2.2-2.1c0.4,0.3-0.4,0.5,0.2,1C63.5,61.4,63.8,60.9,63.4,61.1z
				"/>
			<path fill-rule="evenodd" clip-rule="evenodd" d="M83.4,63.9c0.4,0.8-0.4,1.7-1.2,1.9c-2.3,0.6-5.6-0.4-3.5-2.3
				c0.5-0.5,1.5-0.4,2.1-0.6c-0.2,0.2,0.3,0.3,0.9,0.4c-0.3,0.1-0.2,0.5-0.5,0.5c0,0.3,0.5,0.1,0.5,0.4
				C82.4,63.5,82.6,63.7,83.4,63.9z"/>
			<path fill-rule="evenodd" clip-rule="evenodd" d="M31.8,63.1c0.9,0.9-0.2,2.2-1.2,2.5c-1.5,0.4-3.8,0.1-4.7-0.6
				c0.5-1.2,1.4-1.9,2.4-2.7c0.3,0,0.5,0.3,0.8,0.4c-0.2,0.2-0.3,0.3-0.1,0.7C29.3,62.7,30.7,63.6,31.8,63.1z"/>
		</g>
	</g>
</g>
<g id="Other_Assets" display="none">
</g>
</svg>
