<?xml version="1.0" encoding="utf-8"?>
<!-- Generator: Adobe Illustrator 18.0.0, SVG Export Plug-In . SVG Version: 6.00 Build 0)  -->
<!DOCTYPE svg PUBLIC "-//W3C//DTD SVG 1.1//EN" "http://www.w3.org/Graphics/SVG/1.1/DTD/svg11.dtd">
<svg version="1.1" xmlns="http://www.w3.org/2000/svg" xmlns:xlink="http://www.w3.org/1999/xlink" x="0px" y="0px"
	 viewBox="0 0 130.1 82.8" enable-background="new 0 0 130.1 82.8" xml:space="preserve">
<g id="Color_Background">
</g>
<g id="Illustrations">
	<path fill="#231F20" d="M126.1,80.8C126.1,80.8,126.1,80.8,126.1,80.8L126.1,80.8c-0.4-0.7-0.1-1.6,0.6-2l0,0
		c0.7-0.4,1.6-0.1,2,0.6h0c0.4,0.7,0.1,1.6-0.6,2l0,0c-0.2,0.1-0.5,0.2-0.7,0.2l0,0C126.9,81.6,126.4,81.3,126.1,80.8z M121.8,74.3
		c-0.5-0.7-0.3-1.6,0.4-2.1l0,0c0.7-0.5,1.6-0.3,2.1,0.4l0,0c0.5,0.7,0.3,1.6-0.4,2.1l0,0c-0.3,0.2-0.6,0.3-0.9,0.3l0,0
		C122.6,74.9,122.1,74.7,121.8,74.3z M117,68c-0.5-0.6-0.4-1.6,0.2-2.1l0,0c0.7-0.5,1.6-0.4,2.1,0.2l0,0c0.5,0.6,0.4,1.6-0.2,2.1
		l0,0c-0.3,0.2-0.6,0.3-0.9,0.3l0,0C117.8,68.5,117.3,68.3,117,68z M111.9,61.9c-0.6-0.6-0.5-1.6,0.1-2.1l0,0
		c0.6-0.5,1.6-0.5,2.1,0.1l0,0c0.6,0.6,0.5,1.6-0.1,2.1l0,0c-0.3,0.3-0.6,0.4-1,0.4l0,0C112.6,62.4,112.2,62.2,111.9,61.9z
		 M106.5,56.1c-0.6-0.6-0.6-1.5,0-2.1l0,0c0.6-0.6,1.5-0.6,2.1,0l0,0c0.6,0.6,0.6,1.5,0,2.1l0,0c-0.3,0.3-0.7,0.4-1.1,0.4l0,0
		C107.2,56.6,106.8,56.4,106.5,56.1z M100.8,50.6c-0.6-0.6-0.6-1.5-0.1-2.1l0,0c0.6-0.6,1.5-0.6,2.1-0.1l0,0
		c0.6,0.6,0.6,1.5,0.1,2.1l0,0c-0.3,0.3-0.7,0.5-1.1,0.5l0,0C101.4,51,101.1,50.8,100.8,50.6z M94.8,45.3c-0.6-0.5-0.7-1.5-0.2-2.1
		l0,0c0.5-0.6,1.5-0.7,2.1-0.2l0,0c0.6,0.5,0.7,1.5,0.2,2.1l0,0c-0.3,0.4-0.7,0.5-1.1,0.5l0,0C95.5,45.7,95.1,45.5,94.8,45.3z
		 M88.7,40.3c-0.7-0.5-0.8-1.4-0.3-2.1l0,0c0.5-0.7,1.4-0.8,2.1-0.3l0,0c0.6,0.5,0.8,1.5,0.3,2.1l0,0c-0.3,0.4-0.7,0.6-1.2,0.6l0,0
		C89.3,40.6,89,40.5,88.7,40.3z M82.3,35.6L82.3,35.6L82.3,35.6c-0.7-0.5-0.8-1.4-0.4-2.1l0,0c0.5-0.7,1.4-0.8,2.1-0.4l0,0
		c0.7,0.5,0.8,1.4,0.4,2.1l0,0c-0.3,0.4-0.8,0.6-1.2,0.6l0,0C82.9,35.9,82.6,35.8,82.3,35.6z M75.7,31.2c-0.7-0.5-0.9-1.4-0.5-2.1
		l0,0c0.4-0.7,1.4-0.9,2.1-0.5l0,0c0.7,0.5,0.9,1.4,0.5,2.1l0,0c-0.3,0.5-0.8,0.7-1.3,0.7l0,0C76.3,31.4,76,31.3,75.7,31.2z M69,27
		c-0.7-0.4-1-1.3-0.5-2.1l0,0c0.4-0.7,1.3-1,2-0.5l0,0c0.7,0.4,1,1.3,0.5,2.1l0,0c-0.3,0.5-0.8,0.7-1.3,0.7l0,0
		C69.4,27.2,69.2,27.2,69,27z M62,23.2c-0.7-0.4-1-1.3-0.6-2l0,0c0.4-0.7,1.3-1,2-0.6l0,0c0.7,0.4,1,1.3,0.6,2l0,0
		c-0.3,0.5-0.8,0.8-1.3,0.8l0,0C62.5,23.4,62.2,23.3,62,23.2z M54.9,19.7L54.9,19.7L54.9,19.7c-0.8-0.4-1.1-1.2-0.7-2l0,0
		c0.3-0.8,1.2-1.1,2-0.7l0,0c0.8,0.3,1.1,1.2,0.7,2l0,0c-0.3,0.5-0.8,0.9-1.4,0.9l0,0C55.3,19.8,55.1,19.8,54.9,19.7z M47.7,16.4
		C47.7,16.4,47.7,16.4,47.7,16.4L47.7,16.4c-0.8-0.3-1.1-1.2-0.8-2l0,0c0.3-0.8,1.2-1.1,2-0.8l0,0c0.8,0.3,1.1,1.2,0.8,2l0,0
		c-0.2,0.6-0.8,0.9-1.4,0.9l0,0C48,16.6,47.8,16.5,47.7,16.4z M40.3,13.5c-0.8-0.3-1.2-1.2-0.9-1.9l0,0c0.3-0.8,1.1-1.2,1.9-0.9l0,0
		c0.8,0.3,1.2,1.2,0.9,1.9l0,0c-0.2,0.6-0.8,1-1.4,1l0,0C40.6,13.6,40.4,13.6,40.3,13.5z M32.8,10.9L32.8,10.9L32.8,10.9
		c-0.8-0.3-1.2-1.1-1-1.9l0,0c0.2-0.8,1.1-1.2,1.9-1v0c0.8,0.3,1.2,1.1,1,1.9l0,0c-0.2,0.6-0.8,1-1.4,1l0,0
		C33.1,11,32.9,11,32.8,10.9z M25.2,8.6C25.2,8.6,25.2,8.6,25.2,8.6L25.2,8.6c-0.8-0.2-1.3-1-1-1.8l0,0c0.2-0.8,1.1-1.3,1.9-1l0,0
		c0.8,0.2,1.3,1,1,1.8l0,0c-0.2,0.7-0.8,1.1-1.4,1.1l0,0C25.4,8.7,25.3,8.7,25.2,8.6z M17.5,6.7c-0.8-0.2-1.3-1-1.1-1.8l0,0
		c0.2-0.8,1-1.3,1.8-1.1l0,0c0.8,0.2,1.3,1,1.1,1.8l0,0c-0.2,0.7-0.8,1.2-1.5,1.2l0,0C17.7,6.7,17.6,6.7,17.5,6.7z M9.7,5
		c-0.8-0.2-1.3-1-1.2-1.8l0,0c0.2-0.8,1-1.3,1.8-1.2l0,0c0.8,0.2,1.4,1,1.2,1.8l0,0C11.4,4.5,10.7,5,10,5l0,0C9.9,5,9.8,5,9.7,5z
		 M1.9,3.6C1.1,3.5,0.5,2.8,0.7,1.9l0,0c0.1-0.8,0.9-1.4,1.7-1.3l0,0c0.8,0.1,1.4,0.9,1.2,1.7l0,0C3.5,3.1,2.9,3.7,2.1,3.7l0,0
		C2.1,3.7,2,3.6,1.9,3.6z"/>
</g>
<g id="Other_Assets" display="none">
</g>
</svg>
