<?xml version="1.0" encoding="utf-8"?>
<!-- Generator: Adobe Illustrator 18.0.0, SVG Export Plug-In . SVG Version: 6.00 Build 0)  -->
<!DOCTYPE svg PUBLIC "-//W3C//DTD SVG 1.1//EN" "http://www.w3.org/Graphics/SVG/1.1/DTD/svg11.dtd">
<svg version="1.1" xmlns="http://www.w3.org/2000/svg" xmlns:xlink="http://www.w3.org/1999/xlink" x="0px" y="0px"
	 viewBox="0 0 36.7 25.4" enable-background="new 0 0 36.7 25.4" xml:space="preserve">
<g id="Color_Background">
</g>
<g id="Illustrations">
	<g>
		<path fill="#FFFFFF" d="M0.8,9.3v6.9c11.7-7.3,23.5,7.3,35.2,0V9.3C24.3,16.7,12.5,2,0.8,9.3z"/>
		<path fill="#2E3191" d="M0.8,2.5c0,1.3,0,2.5,0,3.8v3.1C12.5,2,24.3,16.7,36,9.3V6.3c0-1.3,0-2.5,0-3.8C24.3,9.8,12.5-4.8,0.8,2.5
			z"/>
		<path fill="#2E3191" d="M0.8,16.2V20c0,0.9,0,1.9,0,2.8c11.7-7.3,23.5,7.3,35.2,0c0-0.9,0-1.9,0-2.8v-3.9
			C24.3,23.5,12.5,8.8,0.8,16.2z"/>
		<path fill="#EC1C24" d="M18.5,16.5c-0.5,0.5-1.1,1-1.7,1.2c-3.1,1.2-7.4-0.3-9.6-3.1C4.9,12,5.6,7.3,8.7,5
			c3.1-2.2,7.4-0.2,9.6,3.6c-0.8,0.4-1.7,0.7-2.5,1.1c-1.2-2.1-3.6-3.1-5.3-2c-1.7,1.1-2.1,3.5-0.8,5.2c1.2,1.8,3.6,2.6,5.3,1.9
			c0.4-0.2,0.7-0.4,1-0.7C16.8,14.9,17.6,15.7,18.5,16.5L18.5,16.5z"/>
		<path fill="#FFF100" d="M12.7,7.3c2.1,0.5,3.8,2.7,3.8,4.8c0,2.1-1.7,3.3-3.8,2.8c-2.1-0.5-3.8-2.2-3.8-4.3
			C8.9,8.5,10.6,6.9,12.7,7.3L12.7,7.3z"/>
	</g>
</g>
<g id="Other_Assets" display="none">
</g>
</svg>
