<?xml version="1.0" encoding="utf-8"?>
<!-- Generator: Adobe Illustrator 18.0.0, SVG Export Plug-In . SVG Version: 6.00 Build 0)  -->
<!DOCTYPE svg PUBLIC "-//W3C//DTD SVG 1.1//EN" "http://www.w3.org/Graphics/SVG/1.1/DTD/svg11.dtd">
<svg version="1.1" xmlns="http://www.w3.org/2000/svg" xmlns:xlink="http://www.w3.org/1999/xlink" x="0px" y="0px"
	 viewBox="0 0 36.7 25.4" enable-background="new 0 0 36.7 25.4" xml:space="preserve">
<g id="Color_Background">
</g>
<g id="Illustrations">
	<g>
		<path fill="#FFFFFF" d="M0.4,8.7c12,6.6,23.9-6.6,35.9,0c0,2.6,0,5.1,0,7.7c-12-6.6-23.9,6.7-35.9,0C0.4,13.8,0.4,11.2,0.4,8.7
			L0.4,8.7z"/>
		<path fill="#2E3191" d="M0.4,16.2c12,6.7,24-6.7,35.9,0c0,2.3,0,4.6,0,6.8c-12-6.6-24,6.7-35.9,0C0.4,20.7,0.4,18.5,0.4,16.2
			L0.4,16.2z M0.4,2.2c12,6.7,24-6.7,35.9,0c0,2.3,0,4.6,0,7c-12-6.6-24,6.7-35.9,0C0.4,6.9,0.4,4.5,0.4,2.2L0.4,2.2z"/>
		<path fill="#EC1C24" d="M18.4,16.5c-0.5,0.8-1.1,1.6-1.7,2.3C13.6,22,9.1,22,6.9,18.6c-2.3-3.4-1.6-7.5,1.5-9.8
			c3.1-2.3,7.5-2.8,9.8-0.3c-0.8,0.9-1.7,1.7-2.5,2.6c-1.3-1.4-3.7-1.2-5.4,0.2c-1.7,1.4-2.1,3.8-0.9,5.5c1.3,1.7,3.7,1.6,5.4-0.1
			c0.4-0.4,0.7-0.8,1-1.3C16.7,15.8,17.5,16.2,18.4,16.5L18.4,16.5z"/>
		<path fill="#FFF100" d="M12.5,10.2c2.1-0.4,3.9,0.8,3.9,3c0,2.1-1.7,4.4-3.9,4.8c-2.1,0.4-3.9-1.3-3.9-3.4
			C8.6,12.4,10.4,10.7,12.5,10.2L12.5,10.2z"/>
	</g>
</g>
<g id="Other_Assets" display="none">
</g>
</svg>
