<?xml version="1.0" encoding="utf-8"?>
<!-- Generator: Adobe Illustrator 18.0.0, SVG Export Plug-In . SVG Version: 6.00 Build 0)  -->
<!DOCTYPE svg PUBLIC "-//W3C//DTD SVG 1.1//EN" "http://www.w3.org/Graphics/SVG/1.1/DTD/svg11.dtd">
<svg version="1.1" xmlns="http://www.w3.org/2000/svg" xmlns:xlink="http://www.w3.org/1999/xlink" x="0px" y="0px"
	 viewBox="0 0 27.8 12.4" enable-background="new 0 0 27.8 12.4" xml:space="preserve">
<g id="Color_Background">
</g>
<g id="Illustrations">
	<g>
		<path d="M2,11.9C1.9,11.9,1.9,11.9,2,11.9c-0.2-0.1-0.3-0.1-0.4-0.2c0,0,0,0-0.1,0c-0.1,0-0.1,0-0.2-0.1c0,0-0.1-0.1-0.1-0.1l0,0
			c0,0,0,0,0,0c0,0,0-0.1,0-0.1c0-0.1,0.1-0.2,0.1-0.2c0-0.1,0.1-0.2,0.1-0.2l0-0.1l0.1-0.2l0.1-0.2c0,0,0,0,0-0.1
			c0-0.1,0.1-0.1,0.1-0.1c0,0,0,0,0,0c0.1,0,0.2,0,0.2,0.1c0,0,0,0,0.1,0l0.1,0.1c0,0,0.1,0,0.2,0c0,0,0,0,0.1,0h0.1l0.1,0
			c0.1,0,0.3,0,0.4,0c0.1,0,0.2-0.1,0.3-0.1c0.1,0,0.1-0.1,0.1-0.1c0,0,0-0.1,0.1-0.1c0,0,0-0.1,0.1-0.1c0-0.1,0-0.1,0.1-0.2
			c0-0.1,0-0.1,0-0.2c0,0,0-0.1,0-0.1c0,0,0,0,0-0.1c0,0,0-0.1,0-0.2c0,0,0,0,0,0c0,0-0.1,0-0.2,0c-0.1,0-0.2,0-0.3,0c0,0,0,0-0.1,0
			H3.1c-0.1,0-0.1,0-0.2,0c0,0,0,0,0,0c0,0-0.1,0-0.1,0H2.6c0,0,0,0-0.1,0c-0.1,0-0.2,0-0.4,0l-0.1,0c0,0-0.1,0-0.1,0
			c-0.1,0-0.1,0-0.2,0c0,0,0,0-0.1,0L1.4,8.9l-0.1,0C1.2,8.8,1.1,8.7,1.1,8.6L1,8.6L0.8,8.4l0-0.1c0,0,0,0,0-0.1c0,0,0-0.1-0.1-0.1
			c0,0-0.1-0.1-0.1-0.1l0-0.2c0,0,0-0.1,0-0.2c0-0.1,0-0.1,0-0.2c0,0,0,0,0-0.1s0,0,0-0.1c0,0,0-0.1,0-0.1c0-0.1,0-0.1,0-0.2l0-0.1
			V6.8l0,0c0,0,0,0,0-0.1c0,0,0,0,0-0.1V6.4c0,0,0-0.1,0-0.1c0-0.1,0-0.2,0-0.3V5.9c0,0,0-0.1,0-0.1c0,0,0,0,0-0.1c0,0,0,0,0-0.1
			c0,0,0-0.1,0-0.1c0,0,0-0.1,0-0.1c0-0.1,0-0.1,0.1-0.2C0.6,5,0.6,5,0.7,4.9c0.1-0.1,0.1-0.3,0.2-0.4c0-0.1,0.1-0.1,0.2-0.2
			c0-0.1,0.1-0.1,0.2-0.2c0,0,0-0.1,0.1-0.1C1.4,4,1.5,3.9,1.5,3.9c0.1,0,0.1-0.1,0.2-0.1c0,0,0.1,0,0.1-0.1c0,0,0.1,0,0.1,0
			c0,0,0.1,0,0.1,0l0.1,0c0,0,0.1,0,0.1,0c0,0,0.1,0,0.1,0c0,0,0.1,0,0.1,0c0,0,0.1,0,0.1,0l0.2,0c0,0,0.1,0,0.1,0
			c0.1,0,0.3,0,0.4,0c0.1,0,0.2,0,0.3,0c0,0,0,0,0.1,0c0.1,0,0.1,0,0.2,0c0.1,0,0.1,0,0.2,0.1c0,0,0.1,0,0.1,0
			c0.1,0.1,0.2,0.1,0.3,0.1c0,0,0.1,0,0.2,0.1c0,0,0.1,0.1,0.1,0.1L4.9,4L5,4.1L5,4.2c0,0,0.1,0.1,0.1,0.1l0.1,0c0,0,0,0,0,0
			c0,0,0,0.1,0.1,0.1l0,0.1c0,0,0,0,0,0.1l0,0.1c0,0,0,0.1,0,0.1c0,0,0,0.1,0,0.1c0,0,0,0.1,0,0.1c0,0,0,0.1,0,0.1c0,0,0,0.1,0,0.1
			c0,0,0,0.1,0,0.1s0,0.1,0,0.1c0,0,0,0.1,0,0.1c0,0,0,0.1,0,0.1v0.1c0,0,0,0,0,0.1c0,0.1,0,0.2,0,0.3l0,0v0.2c0,0,0,0,0,0.1
			c0,0.1,0,0.2,0,0.3c0,0,0,0.1,0,0.1l0,0.1c0,0.4,0,0.8,0,1.1l0,0v0.4l0,0.1v0.3l0,0.1v0.2c0,0,0,0,0,0c0,0.1,0,0.1,0,0.2
			c0,0,0,0.1,0,0.2c0,0,0,0,0,0.1c0,0.1,0,0.1,0,0.2c0,0,0,0.1,0,0.1c0,0,0,0.1,0,0.1c0,0.1-0.1,0.2-0.1,0.3c0,0.1,0,0.1,0,0.2
			c0,0.1,0,0.1-0.1,0.2c0,0,0,0.1-0.1,0.1c0,0.1-0.1,0.1-0.1,0.2C5,11,5,11.1,5,11.1c0,0.1-0.1,0.1-0.1,0.2l-0.2,0.2
			c0,0-0.1,0.1-0.1,0.1c-0.1,0-0.1,0.1-0.2,0.1c0,0-0.1,0-0.2,0.1c0,0-0.1,0.1-0.1,0.1c0,0-0.1,0-0.1,0l-0.2,0.1l-0.1,0
			c-0.1,0-0.1,0-0.2,0c0,0-0.1,0-0.1,0.1H3.2l-0.1,0c0,0,0,0-0.1,0H2.5c0,0,0,0-0.1,0c-0.1,0-0.2,0-0.2,0C2.1,12,2.1,12,2,11.9z
			 M2.7,5.2C2.6,5.2,2.6,5.2,2.7,5.2C2.6,5.3,2.5,5.3,2.5,5.3L2.4,5.4C2.3,5.5,2.3,5.6,2.2,5.6c0,0.1,0,0.1-0.1,0.2s0,0.1,0,0.1
			c0,0.1,0,0.1,0,0.2c0,0.1,0,0.1,0,0.2v0.3c0,0,0,0,0,0c0,0,0,0,0,0c0,0,0,0.1,0,0.1C2.1,6.8,2.1,7,2.2,7c0,0,0.1,0.1,0.1,0.1
			c0,0,0.1,0.1,0.2,0.1l0.1,0.1c0,0,0.1,0,0.1,0c0,0,0.1,0,0.2,0c0,0,0,0,0.1,0h0.2c0,0,0,0,0.1,0c0,0,0.1,0,0.1,0
			c0.1,0,0.1,0,0.2-0.1c0,0,0.1-0.1,0.1-0.1C3.8,7.1,3.9,7,4,6.8v0c0,0,0,0,0-0.1c0,0,0-0.1,0-0.1c0,0,0-0.1,0-0.1c0,0,0-0.1,0-0.1
			c0-0.1,0-0.2,0-0.2c0,0,0-0.1,0-0.1c0-0.1,0-0.1,0-0.2c0,0,0,0,0-0.1c0-0.1-0.1-0.1-0.1-0.2c0-0.1-0.1-0.1-0.2-0.2
			c0,0-0.1,0-0.1-0.1L3.5,5.2c0,0,0,0,0,0c-0.1,0-0.2-0.1-0.3-0.1c0,0,0,0,0,0H2.9C2.8,5.1,2.8,5.1,2.7,5.2L2.7,5.2z"/>
		<path d="M6.5,0.5C6.5,0.5,6.5,0.5,6.5,0.5c0.1-0.2,0.2-0.3,0.3-0.3C6.9,0.1,7,0.1,7.1,0c0,0,0.1,0,0.1,0c0,0,0.1,0,0.1,0
			c0,0,0.1,0,0.1,0c0.1,0,0.1,0,0.2,0l0.1,0.1L8,0.3l0.1,0.1c0.1,0.1,0.1,0.2,0.1,0.3c0,0,0,0,0,0c0,0.1,0,0.2,0,0.2v0.1
			c0,0,0,0,0,0.1c0,0,0,0,0,0c0,0,0,0.1,0,0.2l0,0.1c0,0,0,0.1-0.1,0.1L7.8,2L7.7,2.1L7.5,2.3c0,0-0.1,0.1-0.2,0.1l-0.1,0
			c-0.1,0-0.2,0-0.2,0L6.8,2.3L6.7,2.2c0,0,0,0,0-0.1c0,0,0-0.1,0-0.1c0,0,0.1,0,0.1-0.1L7,1.8c0,0,0.1-0.1,0.1-0.2c0,0,0,0,0-0.1
			c-0.1,0-0.2,0-0.3,0c-0.1,0-0.1-0.1-0.2-0.2c0-0.1-0.1-0.1-0.1-0.2V0.8C6.5,0.7,6.5,0.7,6.5,0.5C6.5,0.6,6.5,0.6,6.5,0.5z"/>
		<path d="M13.5,1.7L13.5,1.7c0,0.1,0,0.1,0,0.1c0,0,0,0,0,0.1c0,0,0,0.1,0,0.1c0,0,0,0,0,0.1v0c0,0,0,0.1,0,0.1v0c0,0,0,0.1,0,0.1
			c0,0,0,0.1,0,0.1c0,0,0,0,0,0.1c0,0,0,0,0,0c0,0.1,0,0.1,0,0.2c0,0,0,0.1,0,0.1c0,0,0,0.1,0,0.1v0.2c0,0,0,0.1,0,0.1
			c0,0,0,0,0,0.1v0.2c0,0,0,0.1,0,0.1v0.1c0,0.1,0,0.1,0,0.2c0,0.1,0,0.1,0,0.2c0,0,0,0.1,0,0.1c0,0,0,0.1,0,0.1c0,0,0,0.1,0,0.1
			c0,0.1,0,0.2,0,0.2v0c0,0.1,0,0.2,0,0.3v0c0,0,0,0.1,0,0.1c0,0,0,0,0,0c0,0,0,0,0,0.1c0,0,0,0,0,0.1c0,0.1,0,0.2,0,0.2
			c0,0,0,0,0,0.1c0,0,0,0.1,0,0.1v0c0,0,0,0.1,0,0.1c0,0,0,0.1,0,0.1c0,0,0,0.1,0,0.1c0,0,0,0,0,0c0,0,0,0,0,0.1c0,0,0,0.1,0,0.1
			v0.1c0,0,0,0.1,0,0.1c0,0.1,0,0.1,0,0.2c0,0,0,0,0,0l0,0c0,0,0,0,0,0V7c0,0,0,0.1,0,0.1v0.3c0,0,0,0.1,0,0.1c0,0,0,0.1,0,0.1
			c0,0,0,0.1,0,0.1c0,0,0,0.1,0,0.2c0,0,0,0.1,0,0.1c0,0,0,0,0,0.1c0,0,0,0,0,0.1v0.3c0,0,0,0.1,0,0.1c0,0,0,0,0,0c0,0,0,0.1,0,0.1
			c0,0,0,0,0,0.1c0,0.1,0,0.2,0,0.2v0c-0.1,0-0.2,0.1-0.2,0.1c0,0,0,0,0,0l-0.1,0c-0.1,0-0.3,0-0.4,0h-0.3c0,0,0,0-0.1,0
			c0,0-0.1,0-0.1,0c0,0-0.1,0-0.1,0c0,0,0,0,0,0c0,0-0.1,0-0.1,0c-0.1,0-0.3,0-0.4,0c0,0-0.1,0-0.1,0c0,0-0.1,0-0.1,0c0,0,0,0-0.1,0
			h-0.1l-0.1,0c0,0,0,0,0,0c0,0-0.1,0-0.2,0c0,0,0,0-0.1,0c0,0-0.1,0-0.1,0c0,0-0.1,0-0.1,0c0,0,0,0-0.1,0c0,0,0,0,0,0l-0.1,0
			c0,0-0.1,0-0.1,0L10.1,9c0,0-0.1,0-0.1,0c0,0,0,0,0,0C9.9,9,9.9,9,9.8,8.9c0,0,0,0-0.1,0c0,0-0.1,0-0.1-0.1l-0.1,0l-0.1,0L9.3,8.7
			L9.3,8.6C9.1,8.5,9,8.4,9,8.3c0-0.1-0.1-0.1-0.1-0.2c0,0,0,0,0,0c0,0,0,0,0,0c0,0,0,0,0-0.1c0,0,0-0.1,0-0.1c0,0,0-0.1,0-0.1
			c0,0,0,0,0-0.1l0-0.1c0,0,0-0.1,0-0.1c0,0,0,0,0,0c0-0.1,0-0.1,0-0.2c0,0,0,0,0-0.1c0,0,0,0,0,0c0,0,0-0.1,0-0.1c0,0,0-0.1,0-0.1
			c0,0,0-0.1,0-0.1c0,0,0-0.1,0-0.1c0,0,0,0,0-0.1c0,0,0-0.1,0-0.1v0c0,0,0-0.1,0-0.1c0,0,0-0.1,0-0.1c0,0,0,0,0-0.1c0,0,0,0,0-0.1
			v0c0-0.1,0-0.2,0-0.2c0-0.1,0-0.2,0.1-0.3c0,0,0,0,0,0c0,0,0-0.1,0-0.1c0,0,0-0.1,0-0.1c0,0,0,0,0-0.1c0,0,0,0,0-0.1l0,0L9,5l0,0
			c0-0.1,0-0.1,0.1-0.2c0-0.1,0.1-0.1,0.1-0.2c0-0.1,0.1-0.1,0.2-0.2l0,0l0.1-0.1l0.2-0.1c0,0,0.1,0,0.1-0.1L9.9,4
			c0,0,0.1-0.1,0.1-0.1c0,0,0,0,0,0c0.1,0,0.1-0.1,0.2-0.1c0,0,0.1-0.1,0.2-0.1c0,0,0.1,0,0.2-0.1c0,0,0,0,0.1,0c0,0,0.1,0,0.1,0
			c0,0,0.1,0,0.1,0c0,0,0,0,0.1,0h0.2c0,0,0,0,0.1,0s0,0,0.1,0s0,0,0.1,0c0,0,0.1,0,0.1,0s0,0,0,0c0,0,0,0,0,0c0,0,0.1,0,0.1,0V3.5
			c0,0,0-0.1,0-0.1c0,0,0-0.1,0-0.1s0-0.1,0-0.1c0,0,0,0,0,0l0,0c0,0,0-0.1,0-0.1V2.7c0,0,0,0,0-0.1c0,0,0,0,0,0c0,0,0,0,0,0V2.4
			c0,0,0-0.1,0-0.1c0,0,0-0.1,0-0.1c0,0,0-0.1,0-0.1V1.9c0,0,0,0,0-0.1V1.6c0,0,0,0,0-0.1V1.4c0,0,0,0,0,0c0-0.1,0-0.1,0-0.2
			c0,0,0-0.1,0-0.1c0,0,0,0,0-0.1c0-0.1,0-0.1,0-0.2c0-0.1,0.1-0.1,0.1-0.1c0,0,0,0,0.1,0s0,0,0.1,0c0,0,0.1,0,0.1,0c0,0,0,0,0.1,0
			c0,0,0.1,0,0.1,0c0,0,0.1,0,0.1,0h0.1c0,0,0.1,0,0.1,0c0.1,0,0.2,0,0.3,0c0,0,0,0,0.1,0c0,0,0,0,0.1,0c0,0,0,0,0.1,0
			c0,0,0,0,0.1,0c0,0,0,0,0,0c0,0,0,0,0,0c0,0,0,0,0,0h0c0,0,0.1,0,0.1,0.1c0,0,0,0.1,0,0.1c0,0.1,0,0.2,0,0.2c0,0,0,0.1,0,0.1
			c0,0,0,0,0,0c0,0,0,0.1,0,0.1c0,0.1,0,0.1,0,0.2v0c0,0,0,0,0,0C13.5,1.6,13.5,1.6,13.5,1.7L13.5,1.7z M11.7,5.7c0-0.1,0-0.2,0-0.3
			c0,0-0.1,0-0.1,0c0,0-0.1,0-0.1,0h0c-0.1,0-0.1,0-0.2,0.1c0,0-0.1,0-0.1,0.1c0,0,0,0,0,0c-0.1,0-0.1,0.1-0.2,0.1l0,0c0,0,0,0,0,0
			l-0.1,0.1L10.5,6c0,0,0,0,0,0l-0.1,0.2c0,0,0,0.1,0,0.1s0,0.1,0,0.1c0,0,0,0.1,0,0.1v0c0,0.1,0,0.2,0.1,0.2v0.1l0,0.1
			c0.1,0.1,0.1,0.2,0.2,0.3c0,0,0.1,0,0.1,0.1c0,0,0.1,0,0.1,0c0,0,0,0,0.1,0c0.1,0,0.1,0,0.2,0h0c0,0,0,0,0,0c0,0,0.1,0,0.1,0h0.1
			c0,0,0,0,0.1,0c0,0,0,0,0,0c0,0,0,0,0,0c0,0,0-0.1,0-0.1c0,0,0-0.1,0-0.1c0,0,0-0.1,0-0.1c0,0,0-0.1,0-0.1V6.9c0,0,0,0,0-0.1
			c0,0,0-0.1,0-0.1c0,0,0-0.1,0-0.1v0c0,0,0-0.1,0-0.2c0,0,0,0,0,0v0c0,0,0,0,0-0.1V6.2c0,0,0,0,0,0v0c0-0.1,0-0.1,0-0.2
			C11.7,5.9,11.7,5.8,11.7,5.7C11.7,5.8,11.7,5.7,11.7,5.7z"/>
		<path d="M18.6,3.6L18.6,3.6c0.1,0,0.2,0.1,0.3,0.1c0,0,0,0,0,0V3.5c0,0,0,0,0,0c0,0,0,0,0,0c0.1,0,0.2,0,0.3,0l0.1,0c0,0,0,0,0,0
			c0,0,0,0,0,0c0,0,0.1,0,0.1,0c0,0,0,0,0.1,0c0,0,0,0,0.1,0c0,0,0,0,0,0c0,0,0,0,0,0c0,0,0,0,0,0c0,0,0.1,0,0.1,0c0,0,0.1,0,0.1,0
			c0,0,0,0,0.1,0h0.2c0,0,0,0,0.1,0c0,0,0,0,0.1,0h0.1l0.1,0.1c0,0,0,0.1,0,0.1c0,0,0,0,0,0c0,0,0,0.1,0,0.1c0,0,0,0.1,0,0.1
			s0,0.1,0,0.1c0,0,0,0.1,0,0.1c0,0,0,0.1,0,0.1c0,0,0,0.1,0,0.1c0,0,0,0,0,0.1c0,0,0,0.1,0,0.1c0,0.1,0,0.1,0,0.2v0.1
			c0,0,0,0.1,0,0.1c0,0,0,0,0,0c0,0.1,0,0.2,0,0.3c0,0,0,0.1,0,0.1v0.1c0,0,0,0,0,0.1c0,0,0,0,0,0c0,0,0,0,0,0c0,0,0,0,0,0.1
			c0,0.1,0,0.1,0,0.2c0,0,0,0,0,0c0,0,0,0.1,0,0.1v0.5c0,0,0,0,0,0.1c0,0,0,0.1,0,0.1c0,0,0,0.1,0,0.1l0,0c0,0,0,0.1,0,0.1
			c0,0,0,0.1,0.1,0.1c0,0,0,0.1,0.1,0.1l0,0l0.1,0.1c0.1,0,0.1,0,0.2,0.1c0.1,0,0.1,0,0.2,0l0,0c0,0,0,0,0,0v0.1c0,0,0,0.1,0,0.2
			c0,0.1,0,0.1,0,0.2c0,0,0,0,0,0v0c0,0.1,0,0.1,0,0.2c0,0,0,0,0,0.1v0.2c0,0,0,0.1,0,0.1c0,0,0,0.1,0,0.2c0,0,0,0.1,0,0.1
			c0,0.1,0,0.1,0,0.2c0,0,0,0.1-0.1,0.1c0,0-0.1,0-0.2,0.1c-0.1,0-0.2,0-0.2,0c0,0,0,0,0,0c0,0,0,0-0.1,0c0,0,0,0,0,0
			c0,0-0.1,0-0.1,0l-0.2,0c0,0,0,0,0,0c0,0,0,0,0,0h0C20.1,9,20,9,19.9,9l-0.1,0h0l-0.1-0.1c0,0-0.1-0.1-0.2-0.1c0,0,0,0,0-0.1
			c0,0,0,0,0,0l0-0.1l-0.2,0.1c0,0-0.1,0.1-0.2,0.1c0,0-0.1,0.1-0.2,0.1c0,0,0,0,0,0L18.7,9c0,0,0,0,0,0c0,0,0,0,0,0l-0.1,0
			c0,0-0.1,0-0.1,0c-0.1,0-0.2,0-0.2,0c0,0-0.1,0-0.1,0c0,0,0,0-0.1,0c0,0-0.1,0-0.1,0c0,0-0.1,0-0.1,0h-0.1c0,0-0.1,0-0.1,0h0
			c-0.1,0-0.1,0-0.2,0c0,0-0.1,0-0.1,0l-0.1,0l-0.1,0c0,0,0,0,0,0c0,0,0,0-0.1,0c0,0,0,0-0.1,0c0,0,0,0,0,0l-0.1,0c0,0,0,0,0,0
			c-0.1,0-0.1,0-0.2,0c0,0,0,0,0,0c-0.1,0-0.1,0-0.2-0.1c-0.1,0-0.1-0.1-0.2-0.1c0,0-0.1,0-0.1-0.1l0,0c0,0-0.1,0-0.1-0.1
			c0,0,0,0,0,0l0,0c0,0,0-0.1-0.1-0.1c0,0,0,0,0,0c-0.1-0.1-0.1-0.2-0.2-0.2c0,0,0-0.1-0.1-0.1l0,0c0,0,0,0,0-0.1l0-0.1
			c0-0.1,0-0.1-0.1-0.2c0,0,0,0,0-0.1c0,0,0-0.1,0-0.1c0,0,0-0.1,0-0.1c0,0,0-0.1,0-0.1c0,0,0-0.1,0-0.1c0-0.1,0-0.1,0-0.2
			c0,0,0,0,0-0.1c0,0,0,0,0-0.1c0,0,0-0.1,0-0.2c0-0.1,0-0.2,0-0.2c0,0,0,0,0,0c0,0,0,0,0,0c0,0,0,0,0-0.1c0,0,0,0,0-0.1
			c0,0,0,0,0,0c0,0,0,0,0,0c0-0.1,0-0.2,0-0.3c0,0,0-0.1,0-0.1c0,0,0-0.1,0-0.1c0,0,0,0,0,0c0,0,0,0,0-0.1c0,0,0,0,0,0c0,0,0,0,0,0
			l0-0.2c0,0,0-0.1,0-0.1c0,0,0-0.1,0-0.1l0-0.1c0-0.1,0-0.2,0.1-0.2c0,0,0,0,0-0.1l0-0.1c0,0,0.1-0.1,0.1-0.2c0,0,0-0.1,0.1-0.1
			c0,0,0,0,0,0c0,0,0,0,0,0l0.2-0.1c0,0,0,0,0,0L15.8,4c0,0,0.1,0,0.1-0.1h0c0,0,0,0,0.1,0l0,0c0,0,0.1-0.1,0.2-0.1
			c0,0,0.1,0,0.1-0.1c0,0,0.1,0,0.1,0l0.1-0.1c0,0,0.1,0,0.1,0c0.1,0,0.1,0,0.1-0.1c0,0,0,0,0,0c0,0,0,0,0.1,0l0.1,0h0l0,0
			c0,0,0,0,0.1,0h0.1c0,0,0.1,0,0.1,0c0,0,0,0,0,0c0,0,0,0,0,0c0,0,0,0,0.1,0c0,0,0.1,0,0.1,0h0.1c0,0,0.1,0,0.1,0h0.1
			c0,0,0.1,0,0.1,0c0,0,0.1,0,0.2,0l0.2,0h0c0,0,0.1,0,0.1,0c0,0,0.1,0,0.1,0C18.5,3.5,18.6,3.6,18.6,3.6
			C18.6,3.6,18.6,3.6,18.6,3.6z M16.8,5.8L16.8,5.8c0,0,0,0.1,0,0.1c0,0.1-0.1,0.2-0.1,0.3v0c0,0,0,0,0,0.1v0.2c0,0.1,0,0.1,0,0.1
			c0,0.1,0,0.1,0,0.2l0,0c0,0,0.1,0.1,0.1,0.1c0,0,0,0,0,0l0,0c0,0,0,0,0,0C17,7,17.1,7,17.1,7.1c0,0,0,0,0,0c0,0,0.1,0,0.1,0l0.1,0
			c0.1,0,0.1,0,0.2,0c0,0,0.1,0,0.1,0c0,0,0.1,0,0.1,0c0.1,0,0.1,0,0.2-0.1L18,7c0,0,0.1,0,0.1,0c0,0,0,0,0,0c0,0,0.1-0.1,0.1-0.1
			l0,0c0,0,0-0.1,0.1-0.1l0-0.1c0,0,0-0.1,0-0.1c0,0,0,0,0,0c0,0,0,0,0,0c0-0.1,0-0.1,0-0.1c0,0,0-0.1,0-0.1c0-0.1,0-0.1,0-0.2l0,0
			v0l-0.1-0.1l-0.1-0.1l-0.1-0.1c0,0,0,0-0.1,0l-0.1,0l-0.1-0.1h0c0,0,0,0,0,0l0,0h-0.1c0,0,0,0,0,0h0c0,0,0,0-0.1,0h-0.1
			c0,0-0.1,0-0.1,0s-0.1,0-0.1,0c0,0,0,0,0,0c0,0,0,0,0,0l-0.2,0.2c0,0,0,0,0,0C16.9,5.5,16.9,5.6,16.8,5.8z"/>
		<path d="M24.2,3.8c0,0,0,0.1,0,0.1c0,0.1,0,0.2,0,0.4c0,0,0,0,0,0.1c0,0.2,0,0.4,0,0.6v0.6c0,0,0,0,0,0.1c0,0,0,0,0,0.1
			c0,0,0,0,0,0.1c0,0,0,0.1,0,0.1v0.5c0,0,0,0,0,0.1v0.1c0,0,0,0.1,0,0.1c0,0,0,0.1,0,0.1c0,0.1,0,0.1,0,0.2l0.1,0.2
			c0,0,0,0.1,0.1,0.1c0,0,0.1,0,0.1,0l0.2,0.1H25c0,0,0,0,0,0c0.2,0,0.2,0,0.3-0.1c0,0,0,0,0,0c0,0,0,0,0.1-0.1c0,0,0,0,0.1-0.1
			l0.1-0.2c0,0,0.1-0.1,0.1-0.2c0-0.1,0-0.1,0-0.2c0-0.1,0-0.1,0-0.2c0,0,0,0,0-0.1c0-0.1,0-0.1,0-0.2c0,0,0,0,0-0.1V5.6
			c0,0,0-0.1,0-0.1c0,0,0,0,0-0.1v0c0,0,0,0,0,0c0,0,0-0.1,0-0.1c0,0,0-0.1,0-0.1c0,0,0-0.1,0-0.1c0-0.1,0-0.1,0-0.2c0,0,0,0,0-0.1
			c0-0.3,0-0.7,0-1c0,0,0-0.1,0-0.1c0,0,0,0,0-0.1c0,0,0,0,0-0.1c0,0,0-0.1,0-0.1c0,0,0,0,0,0h0.2c0.2,0,0.3,0,0.5,0h0.8l0.1,0
			c0,0,0.1,0.1,0.1,0.1c0,0,0.1,0,0.1,0.1c0,0.3,0,0.6,0,1c0,0,0,0,0,0.1c0,0.1,0,0.1,0,0.3c0,0,0,0,0,0c0,0,0,0,0,0.1
			c0,0,0,0,0,0.1c0,0,0,0.1,0,0.2c0,0,0,0,0,0c0,0,0,0.1,0,0.1v0.7c0,0.1,0,0.2,0,0.3c0,0,0,0,0,0c0,0,0,0,0,0c0,0.1,0,0.1,0,0.2
			v0.9c0,0,0,0.1,0,0.1v0.3c0,0,0,0.1,0,0.1v0.3c0,0,0,0.1,0,0.2c0,0,0,0.1,0,0.1v0.3l0,0.1c0,0,0,0.1,0,0.2c0,0,0,0,0,0.1
			c0,0,0,0.1,0,0.1c0,0,0,0.1,0,0.1c0,0,0,0.1,0,0.1v0.1c0,0,0,0.1,0,0.2c0,0,0,0.1-0.1,0.1c0,0.1,0,0.1,0,0.2c0,0,0,0.1,0,0.1
			s0,0.1,0,0.1c0,0,0,0.1,0,0.1c0,0,0,0,0,0.1c-0.1,0.1-0.1,0.3-0.3,0.3c0,0,0,0,0,0l-0.1,0.1c0,0-0.1,0.1-0.1,0.1
			c0,0-0.1,0-0.1,0.1c0,0.1-0.1,0.1-0.2,0.2l-0.1,0.1l-0.1,0.1c-0.1,0-0.2,0.1-0.3,0.1c0,0-0.1,0-0.1,0l-0.1,0.1c0,0-0.1,0-0.2,0
			c0,0,0,0-0.1,0l-0.1,0l-0.1,0h0c-0.1,0-0.1,0-0.2,0c-0.1,0-0.1,0-0.2,0h0l-0.1,0h-0.4c0,0,0,0-0.1,0c-0.1,0-0.2,0-0.3,0
			c0,0-0.1,0-0.1-0.1c0,0-0.1,0-0.1,0c0,0-0.1,0-0.1,0l-0.2-0.1c-0.1,0-0.1-0.1-0.2-0.1c0,0,0,0-0.1,0c-0.1,0-0.1-0.1-0.2-0.1
			c0,0-0.1-0.1-0.1-0.1c0,0,0,0-0.1-0.1l0-0.1c0,0,0-0.1,0-0.1c0,0,0-0.1,0-0.1c0-0.1,0.1-0.1,0.1-0.2c0,0,0-0.1,0.1-0.2
			c0,0,0-0.1,0.1-0.1c0-0.1,0.1-0.1,0.1-0.2c0,0,0,0,0,0l0-0.1c0,0,0-0.1,0.1-0.1h0.1c0,0,0.1,0,0.1,0c0,0,0.1,0,0.1,0l0.1,0.1
			c0,0,0.1,0,0.1,0h0.1c0,0,0.1,0,0.2,0c0,0,0,0,0,0c0,0,0.1,0,0.2,0c0.1,0,0.1,0,0.2,0c0,0,0.1,0,0.1,0h0.2l0.3-0.1l0.1-0.1
			l0.1-0.1c0,0,0,0,0.1,0c0,0,0,0,0-0.1l0.1-0.1c0-0.1,0-0.1,0.1-0.2l0-0.1c0,0,0,0,0-0.1c0-0.1,0-0.1,0-0.2V9.3c0,0,0,0,0,0
			c0,0-0.1,0-0.1,0h-0.8l-0.1,0c-0.1,0-0.3,0-0.4,0c0,0-0.1,0-0.1,0c0,0-0.1,0-0.1,0c0,0,0,0,0,0c-0.1,0-0.1,0-0.2,0
			c-0.1,0-0.1,0-0.2,0c0,0,0,0,0,0C23.5,9,23.4,9,23.3,8.9l-0.1,0L23,8.6c0-0.1-0.1-0.1-0.1-0.2l0-0.1c0-0.1-0.1-0.2-0.1-0.2
			c0,0,0,0,0,0c0-0.1,0-0.1-0.1-0.2c0,0,0-0.1,0-0.2c0,0,0-0.1,0-0.1l0-0.2c0,0,0-0.1,0-0.2V7.1c0,0,0-0.1,0-0.1c0,0,0-0.1,0-0.1
			l0-0.1c0-0.2,0-0.4,0-0.6c0,0,0,0,0-0.1V5c0,0,0,0,0-0.1c0-0.2,0-0.4,0-0.6c0,0,0,0,0-0.1c0,0,0-0.1,0-0.1c0,0,0-0.1,0-0.1
			c0-0.1,0-0.1,0-0.2c0-0.1,0-0.2,0-0.2l0,0l0.1,0l0.1,0c0.2,0,0.4,0,0.6,0c0.1,0,0.2,0,0.3,0c0,0,0.1,0,0.1,0c0,0,0.1,0,0.1,0
			c0,0,0.1,0,0.2,0l0.1,0C24.2,3.6,24.2,3.6,24.2,3.8C24.2,3.7,24.2,3.7,24.2,3.8z"/>
	</g>
</g>
<g id="Other_Assets" display="none">
</g>
</svg>
