<?xml version="1.0" encoding="utf-8"?>
<!-- Generator: Adobe Illustrator 18.0.0, SVG Export Plug-In . SVG Version: 6.00 Build 0)  -->
<!DOCTYPE svg PUBLIC "-//W3C//DTD SVG 1.1//EN" "http://www.w3.org/Graphics/SVG/1.1/DTD/svg11.dtd">
<svg version="1.1" xmlns="http://www.w3.org/2000/svg" xmlns:xlink="http://www.w3.org/1999/xlink" x="0px" y="0px"
	 viewBox="0 0 110.8 78.2" enable-background="new 0 0 110.8 78.2" xml:space="preserve">
<g id="Color_Background">
</g>
<g id="Illustrations">
	<g>
		<g>
			<g>
				<path fill="#020202" d="M1.8,64.2c-1.5,0.7,1.5,4,2,4.6c1.4,1.4,3.2,2.4,5.1,3.2c3.7,1.4,7.9,1.8,11.9,1.9
					c6,0.1,24.4-1.5,32.8-17.9c1.3-2.5,4.1,0.2,4.7,2.1c1.1,3.1-0.9,6.7-2.1,9.5C55.1,70,56.4,71,59,71.6c6.5,1.8,15.7,4.2,19.9,4.9
					c1,0.2,2,0.3,3,0.3c0.5,0,1.7,0.1,2.1-0.3c0.3-0.3-0.2-0.5-0.3-0.7c0.7-0.4,2.1-0.1,2.6-1c0.7-1.2-1.7-2.5-2.5-2.9
					c-1.5-0.8-3.3-1.2-5-1.3c-3.7-0.3-7.6,0.3-11.2-0.6c-1.6-0.4-3.2-1.3-4.1-2.7c-1.2-1.8-1.1-4.2-0.4-6.2c0.4-1.4,1-2.7,1.6-4
					c0.7-1.3,1.6-2.6,2.6-3.7c0,0,0.2,0.8,0.2,0.9c0.1,0.5,0.1,1,0.1,1.5c0,2.4-0.6,4.7-1.2,7c-0.3,1.1-0.4,2.3,0.8,2.9
					c0.8,0.4,1.8,0.5,2.7,0.6C76.6,67,86.1,68,90.3,68c4.2,0,5.7-0.9,4.8-1.3c-1.7-0.8,1.6,0.4,1-1.2c-1-2.6-3.3-2.7-5.7-2.8
					c-4-0.2-7.9,0.5-11.8,0.8c-1.8,0.1-3.8-0.1-5.2-1.2c-1.2-1-1.7-2.5-1.8-4.1c-0.1-1.5,0.3-3,0.7-4.5c0.2-0.8,0.4-1.6,0.7-2.5
					c0.2-0.7,0.8-2.3,0.8-2.3s2.7-1,3.5-1.4c2.5-1.3,4.6-2.2,6.7-3.8c0,0,4,4.7,4.7,5.6c0.7,0.9,0.3,2.5,0.3,2.5l-0.8,0.7
					c0,0-0.2-0.1-0.6-0.4c-0.4-0.3,0.1,0.5-0.5,0.1c-0.6-0.4-0.6,0.4-0.2,0.9c0.3,0.5,1.3,0.9,2.1,0.6c0.8-0.3,2.1-0.9,2.5-2.1
					c0.4-1.2-0.7-1.9-0.7-1.9L87,42.7l1.4-0.5c0,0,2,3,3.7,4.4c1.7,1.4,2.4,2.8,2.3,3.2c-0.1,0.4,0,1.5,0.1,1.9
					c0.1,0.4,0.1,1.3-0.2,2c-0.3,0.7-0.2,1.5,0.1,1.3c0.3-0.2,0.4-0.5,0.4-0.5s0.4-0.3,0,0.5c-0.4,0.8,0.1,0.6,0.1,0.6
					s0.3,0,0.4-0.2c0.2-0.2,0.2-0.4,0.4-0.4c0.2-0.1,0.9-0.3,0.8-1.3c0-1,0-3.4,0-3.4s-1.9-3.4-3.5-5.8c-0.7-1.1-1.4-2.6-1.4-4
					c0-1.3,1.4-2.7,2.1-3.7c0.8-1.4,1.5-2.8,2.1-4.2c0.6-1.5,1.2-3.1,1.6-4.7c0.2-0.8,0.4-1.7,0.5-2.6c0.1-0.7,0-1.6,0.5-2.2
					c0.5-0.6,1.4-0.8,2.1-0.6c1,0.2,1.8,0.9,2.7,1.3c1,0.5,2,0.9,3.1,1.2c0.2,0.1,0.4,0.1,0.7,0.1c1.4-0.2-1-1-1-1.5
					c0.1,0,0.2,0,0.3,0.1c3.6,2.3,3.4-2.3,2.9-3c-0.4-0.6-1-1.1-1.6-1.5c-1.3-0.9-2.6-1.7-3.8-2.6c-0.4-0.3-0.6-0.5-0.7-1
					c-0.1-0.5,0-1.2-0.4-1.6c-0.3-0.2-0.6-0.3-1-0.3c-1-0.2-1.5-1-2.4-1.4c-0.2-0.1-0.5-0.2-0.9-0.3c1-0.6,2.7-2.1,2.7-5.4
					c-0.1-4.6-0.1-4.7-0.1-4.7S99.8,1,98.3,4.5c-1.3,3-0.8,6.3-0.6,7.1c-0.3,0-0.7,0-1.1,0c-0.5-1.3-2-4-5.3-4.8
					c-4.2-1-4.9-1.3-4.9-1.3s-0.1,1.1,1.7,3.4c1.8,2.1,4.1,3.7,5.8,3.8c-0.2,0.1-0.4,0.3-0.6,0.4c-2.5,1.9-3.7,3.3-4.5,6.3
					c-0.5,1.9-1.4,3.9-3.3,4.5c-1.3,0.4-2.7-0.1-3.9-0.6c-3.7-1.6-6.9-3.2-10.9-3.6c-4-0.4-8,0.4-11.7,2
					c-5.2,2.3-10.1,5.8-13.3,10.5c-1.6,2.3-2.7,4.9-3.2,7.7c-0.6,3.5,0.4,6.8,0.2,10.3c-0.2,3.1-1.1,6.1-3.2,8.5
					c-2.1,2.6-5,4.4-8.1,5.7c-3.1,1.3-6.5,2.3-9.8,2.7c-3.4,0.4-6.9,0.4-10.2-0.2c-1.6-0.3-3.2-0.7-4.7-1.2
					c-0.8-0.3-1.5-0.5-2.3-0.8c-0.6-0.2-1.5-0.8-2.1-0.8C2.1,64.1,2,64.1,1.8,64.2z"/>
				<path fill="#FFFFFF" d="M100.8,1.6c0.2,0,0.2,0,0.2,0s0,0.1,0.1,4.7c0.1,3.3-1.7,4.8-2.7,5.4c0.3,0.1,0.6,0.2,0.9,0.3
					c0.9,0.4,1.4,1.2,2.4,1.4c0.3,0.1,0.7,0.1,1,0.3c0.4,0.4,0.4,1.1,0.4,1.6c0.1,0.5,0.3,0.7,0.7,1c1.3,0.9,2.6,1.7,3.8,2.6
					c0.6,0.4,1.2,0.8,1.6,1.5c0.4,0.6,0.6,3.7-1.2,3.7c-0.4,0-1-0.2-1.7-0.6c-0.1-0.1-0.2-0.1-0.3-0.1c0,0,0,0,0,0
					c0,0.5,2.4,1.4,1,1.5c0,0-0.1,0-0.1,0c-0.2,0-0.4-0.1-0.6-0.1c-1.1-0.3-2.1-0.7-3.1-1.2c-0.9-0.4-1.7-1.1-2.7-1.3
					c-0.2,0-0.4-0.1-0.6-0.1c-0.6,0-1.2,0.2-1.6,0.7c-0.5,0.6-0.4,1.5-0.5,2.2c-0.1,0.9-0.3,1.7-0.5,2.6c-0.4,1.6-0.9,3.2-1.6,4.7
					c-0.6,1.5-1.3,2.9-2.1,4.2c-0.6,1.1-2.1,2.4-2.1,3.7c0,1.4,0.7,2.8,1.4,4c1.5,2.4,3.5,5.8,3.5,5.8s0,2.4,0,3.4
					c0,1-0.7,1.3-0.8,1.3c-0.2,0.1-0.2,0.2-0.4,0.4c-0.2,0.2-0.4,0.2-0.4,0.2s0,0-0.1,0c-0.1,0-0.2-0.1,0-0.6
					c0.2-0.4,0.2-0.5,0.1-0.5c0,0-0.1,0-0.1,0s-0.1,0.3-0.4,0.5c0,0-0.1,0-0.1,0c-0.2,0-0.3-0.7,0-1.3c0.3-0.7,0.3-1.6,0.2-2
					c-0.1-0.4-0.2-1.6-0.1-1.9c0.1-0.4-0.5-1.8-2.3-3.2c-1.7-1.4-3.7-4.4-3.7-4.4L87,42.7l3.6,6.9c0,0,1.1,0.7,0.7,1.9
					c-0.4,1.2-1.8,1.8-2.5,2.1c-0.2,0.1-0.4,0.1-0.6,0.1c-0.6,0-1.2-0.3-1.5-0.7c-0.3-0.4-0.4-1,0-1c0.1,0,0.2,0,0.3,0.1
					c0.1,0.1,0.2,0.1,0.2,0.1c0.2,0,0-0.3,0.1-0.3c0,0,0.1,0,0.1,0.1c0.4,0.3,0.6,0.4,0.6,0.4l0.8-0.7c0,0,0.4-1.6-0.3-2.5
					c-0.7-0.9-4.7-5.6-4.7-5.6c-2.2,1.7-4.2,2.5-6.7,3.8c-0.7,0.4-3.5,1.4-3.5,1.4s-0.6,1.6-0.8,2.3c-0.2,0.8-0.4,1.7-0.7,2.5
					c-0.4,1.5-0.8,3-0.7,4.5c0.1,1.5,0.7,3.1,1.8,4.1c1.1,1,2.7,1.3,4.2,1.3c0.3,0,0.7,0,1,0c3.4-0.3,6.7-0.8,10.1-0.8
					c0.6,0,1.1,0,1.7,0c2.4,0.1,4.7,0.3,5.7,2.8c0.3,0.8-0.4,0.9-0.9,0.9c-0.2,0-0.3,0-0.4,0c-0.2,0-0.2,0,0.4,0.3
					c0.9,0.4-0.6,1.3-4.8,1.3c-0.1,0-0.1,0-0.2,0c-4.3,0-13.6-1-20.2-1.7c-0.9-0.1-1.9-0.2-2.7-0.6c-1.2-0.6-1-1.8-0.8-2.9
					c0.6-2.3,1.2-4.6,1.2-7c0-0.5,0-1-0.1-1.5c0-0.1-0.2-0.9-0.2-0.9c-1,1.1-1.9,2.3-2.6,3.7c-0.7,1.3-1.2,2.7-1.6,4
					c-0.6,2.1-0.7,4.4,0.4,6.2c0.9,1.4,2.5,2.3,4.1,2.7c1.8,0.5,3.6,0.5,5.5,0.5c1,0,2,0,3,0c0.9,0,1.9,0,2.8,0.1
					c1.7,0.2,3.4,0.5,5,1.3c0.8,0.4,3.2,1.7,2.5,2.9c-0.5,0.9-1.9,0.5-2.6,1c0.1,0.2,0.6,0.3,0.3,0.7c-0.3,0.3-1,0.3-1.5,0.3
					c-0.2,0-0.4,0-0.5,0c-1,0-2-0.1-3-0.3c-4.1-0.6-13.4-3.1-19.9-4.9c-2.6-0.7-3.9-1.6-2.8-4.2c1.2-2.8,3.2-6.5,2.1-9.5
					c-0.5-1.3-2-3-3.4-3c-0.5,0-1,0.3-1.4,1c-8.2,16-25.8,17.9-32.3,17.9c-0.2,0-0.3,0-0.5,0c-4-0.1-8.1-0.5-11.9-1.9
					c-1.9-0.7-3.7-1.7-5.1-3.2c-0.6-0.6-3.5-3.9-2-4.6c0.1-0.1,0.3-0.1,0.5-0.1c0,0,0,0,0,0c0.6,0,1.5,0.6,2.1,0.8
					c0.8,0.3,1.5,0.6,2.3,0.8c1.5,0.5,3.1,0.9,4.7,1.2c1.9,0.3,3.9,0.5,5.8,0.5c1.5,0,3-0.1,4.4-0.3c3.3-0.4,6.7-1.4,9.8-2.7
					c3-1.3,6-3.1,8.1-5.7c2-2.4,3-5.4,3.2-8.5c0.2-3.5-0.8-6.9-0.2-10.3c0.5-2.8,1.6-5.4,3.2-7.7c3.2-4.8,8.1-8.3,13.3-10.5
					c3-1.3,6.3-2.1,9.6-2.1c0.7,0,1.4,0,2,0.1c4,0.4,7.3,2,10.9,3.6c0.9,0.4,1.9,0.8,2.9,0.8c0.3,0,0.7,0,1-0.1
					c1.9-0.6,2.8-2.6,3.3-4.5c0.9-3,2.1-4.4,4.5-6.3c0.2-0.1,0.4-0.3,0.6-0.4c-1.7-0.1-4.1-1.6-5.8-3.8c-1.8-2.2-1.7-3.4-1.7-3.4
					s0.7,0.3,4.9,1.3c3.3,0.8,4.8,3.5,5.3,4.8c0.2,0,0.4,0,0.6,0c0.2,0,0.3,0,0.4,0c-0.2-0.9-0.6-4.1,0.6-7.1
					C99.4,1.9,100.4,1.6,100.8,1.6 M100.8,0.8L100.8,0.8c-1.2,0-2.2,1.1-3.2,3.4c-0.9,2.2-1,4.5-0.9,6c-0.8-1.5-2.4-3.4-5.2-4.1
					c-4-1-4.7-1.3-4.8-1.3l-0.9-0.4l-0.1,1c0,0.2-0.1,1.6,1.9,3.9c1.4,1.7,3.1,3,4.7,3.6c-2.1,1.7-3.3,3.2-4.1,6.1
					c-0.7,2.4-1.6,3.6-2.8,4c-0.2,0.1-0.5,0.1-0.8,0.1c-0.9,0-1.8-0.3-2.6-0.7c-0.4-0.2-0.8-0.3-1.2-0.5c-3.2-1.4-6.3-2.8-10-3.1
					c-0.7-0.1-1.4-0.1-2.1-0.1c-3.3,0-6.7,0.7-9.9,2.2c-5.9,2.6-10.6,6.3-13.6,10.8c-1.7,2.5-2.8,5.2-3.3,8c-0.4,2.1-0.2,4.2,0,6.1
					c0.1,1.4,0.3,2.9,0.2,4.3c-0.2,3.2-1.2,6-3,8.1c-1.8,2.2-4.4,4-7.8,5.4c-3.3,1.4-6.6,2.3-9.6,2.7c-1.4,0.2-2.9,0.3-4.3,0.3
					c-1.9,0-3.8-0.2-5.7-0.5c-1.5-0.2-3-0.6-4.6-1.2c-0.7-0.2-1.5-0.5-2.3-0.8c-0.2-0.1-0.4-0.2-0.6-0.3c-0.6-0.3-1.2-0.6-1.8-0.6
					c-0.3,0-0.6,0.1-0.9,0.2c-0.4,0.2-0.7,0.6-0.8,1.1c-0.3,1.8,2.6,4.7,2.6,4.7c1.4,1.4,3.2,2.5,5.4,3.3c3.3,1.2,7.2,1.8,12.1,1.9
					c0.2,0,0.3,0,0.5,0c3.9,0,24-0.9,33-18.3c0.3-0.6,0.6-0.6,0.7-0.6c0.9,0,2.3,1.4,2.7,2.6c0.9,2.4-0.5,5.5-1.6,7.9
					c-0.2,0.4-0.3,0.7-0.5,1c-0.5,1.3-0.6,2.3-0.2,3.1c0.6,1.2,2,1.8,3.5,2.1l0.2,0.1c6.6,1.8,15.6,4.2,19.7,4.8
					c1.2,0.2,2.2,0.3,3.1,0.3l0.2,0c0.1,0,0.2,0,0.3,0c0.8,0,1.6-0.1,2.1-0.6c0.2-0.2,0.3-0.5,0.3-0.7c0.7-0.1,1.6-0.2,2.1-1.1
					c0.2-0.4,0.3-0.8,0.2-1.3c-0.3-0.9-1.2-1.7-2.9-2.6c-1.5-0.8-3.2-1.2-5.3-1.4c-0.8-0.1-1.7-0.1-2.9-0.1c-0.5,0-1,0-1.5,0
					c-0.5,0-1,0-1.5,0c-1.7,0-3.5-0.1-5.3-0.5c-1.6-0.4-2.9-1.3-3.7-2.4c-1.2-1.9-0.7-4.3-0.3-5.6c0.4-1.4,1-2.7,1.6-3.9
					c0.4-0.8,0.9-1.6,1.5-2.3c0,0.2,0,0.5,0,0.7c0,2-0.5,4-1,6l-0.2,0.8c-0.2,0.7-0.7,2.7,1.1,3.7c1,0.5,2.1,0.6,3,0.7l0.3,0
					c6.6,0.7,15.7,1.7,20,1.7l0.2,0c2.5,0,5.5-0.3,5.8-1.6c0-0.1,0-0.1,0-0.2c0.2-0.1,0.4-0.2,0.6-0.5c0.2-0.2,0.3-0.7,0.1-1.3
					c-1.1-3-3.9-3.1-6.3-3.3l-0.1,0c-0.5,0-1.1-0.1-1.7-0.1c-2.3,0-4.6,0.3-6.8,0.5c-1.1,0.1-2.3,0.3-3.4,0.3c-0.3,0-0.6,0-0.9,0
					c-1.6,0-2.9-0.4-3.7-1.1c-0.9-0.8-1.5-2.1-1.6-3.5c-0.1-1.5,0.3-3,0.7-4.3c0.1-0.4,0.2-0.9,0.4-1.3c0.1-0.4,0.2-0.8,0.3-1.1
					c0.1-0.5,0.5-1.4,0.6-1.9c0.8-0.3,2.6-0.9,3.2-1.3c0.6-0.3,1.2-0.6,1.8-0.9c1.5-0.8,3-1.5,4.5-2.6c1.1,1.2,3.7,4.3,4.3,5
					c0.3,0.4,0.3,1.1,0.2,1.6L88,51.4c0,0-0.1-0.1-0.1-0.1c-0.1-0.1-0.3-0.2-0.6-0.2l-0.3,0l-0.1,0.1c-0.1,0-0.1,0-0.2,0
					c-0.3,0-0.7,0.2-0.8,0.5c-0.3,0.5-0.1,1.2,0.2,1.7c0.4,0.6,1.3,1.1,2.1,1.1c0.3,0,0.6-0.1,0.9-0.2c0.9-0.4,2.5-1.1,2.9-2.6
					c0.4-1.2-0.3-2.2-0.9-2.6l-3.1-6l0,0c0.6,0.9,2.1,3,3.6,4.1c1.4,1.1,1.9,2.2,2,2.5c-0.1,0.6,0.1,1.9,0.1,2.2
					c0.1,0.2,0.1,1-0.1,1.5c-0.2,0.6-0.3,1.5,0,2c0.1,0.1,0.2,0.2,0.4,0.3c0,0.1,0.1,0.1,0.1,0.2c0.2,0.3,0.4,0.4,0.7,0.4
					c0.1,0,0.2,0,0.2,0c0.2,0,0.6-0.1,0.9-0.5c0.1-0.1,0.1-0.2,0.2-0.3c0.8-0.4,1.2-1.1,1.2-2c0-1,0-3.3,0-3.4V50l-0.1-0.2
					c0,0-1.9-3.4-3.5-5.8c-0.8-1.3-1.3-2.5-1.3-3.6c0-0.6,0.6-1.5,1.2-2.2c0.3-0.4,0.6-0.7,0.8-1.1c0.8-1.4,1.5-2.8,2.2-4.3
					c0.7-1.6,1.2-3.2,1.6-4.8c0.2-0.9,0.4-1.7,0.6-2.7c0-0.2,0-0.4,0.1-0.5c0-0.5,0.1-1,0.3-1.3c0.2-0.2,0.6-0.4,1-0.4
					c0.1,0,0.3,0,0.4,0c0.6,0.1,1.1,0.4,1.7,0.8c0.3,0.2,0.6,0.3,0.9,0.5c1,0.5,2.1,0.9,3.2,1.2c0.2,0.1,0.5,0.1,0.8,0.1
					c0.1,0,0.1,0,0.2,0c0.2,0,0.9-0.1,1.1-0.7c0,0,0,0,0,0c0.6-0.1,1.2-0.4,1.5-1c0.6-1.1,0.5-3,0.1-3.7c-0.5-0.8-1.2-1.3-1.8-1.7
					l-1.3-0.9c-0.9-0.6-1.7-1.1-2.5-1.7c-0.3-0.2-0.3-0.3-0.4-0.5c0-0.1,0-0.2,0-0.3c0-0.5-0.1-1.3-0.7-1.8
					c-0.4-0.3-0.8-0.4-1.1-0.5c-0.1,0-0.1,0-0.2,0c-0.4-0.1-0.7-0.3-1.1-0.6c-0.2-0.2-0.5-0.4-0.8-0.6c1-1,2-2.6,1.9-5.2
					c-0.1-4.4-0.1-4.7-0.1-4.7l0-0.5l-0.4-0.2C101.3,0.9,101.1,0.8,100.8,0.8L100.8,0.8L100.8,0.8z"/>
			</g>
		</g>
		<path fill="#FFFFFF" d="M95,11.9c0,0-0.8-2.3-3-3c-2.2-0.8-2.8-1.3-3-1.1C88.8,8,90.9,11.3,95,11.9z"/>
	</g>
</g>
<g id="Other_Assets" display="none">
</g>
</svg>
