<?xml version="1.0" encoding="utf-8"?>
<!-- Generator: Adobe Illustrator 18.0.0, SVG Export Plug-In . SVG Version: 6.00 Build 0)  -->
<!DOCTYPE svg PUBLIC "-//W3C//DTD SVG 1.1//EN" "http://www.w3.org/Graphics/SVG/1.1/DTD/svg11.dtd">
<svg version="1.1" xmlns="http://www.w3.org/2000/svg" xmlns:xlink="http://www.w3.org/1999/xlink" x="0px" y="0px"
	 viewBox="0 0 194.9 63" enable-background="new 0 0 194.9 63" xml:space="preserve">
<g id="Color_Background">
</g>
<g id="Illustrations">
	<path fill="#020202" d="M96.8,15.9c-1.3-1.3-2.9-1.9-3.2-2.8c-0.2-0.6-0.3-1.2-0.6-1.7c-0.3-0.5-0.8-0.9-1.3-1.3
		c-0.3-0.2-0.5-0.3-0.8-0.5c-0.1-0.1-0.6-0.4-0.7-0.3c1.9-0.8,3.1-2.3,3.5-4.3c0.9-4.1,0.9-4.2,0.9-4.2s-1-0.8-3,2
		c-1.7,2.4-2,5.4-2,6.2c-0.3-0.1-0.6-0.2-0.9-0.2c-0.2-1.2-0.9-4-3.7-5.4c-3.5-1.8-4.1-2.2-4.1-2.2s-0.3,1,0.8,3.3
		c1,1.9,3.8,3.6,5.2,4.3c-0.3-0.2-1.1,0.1-1.4,0.2c-1.8,0.4-2.8,1.9-3.9,3.2c-0.8,0.9-1.8,1.8-3.1,1.5c-1.2-0.2-2.2-0.8-3.2-1.5
		C70.9,9.3,63.4,0.4,49.4,2C43,2.8,37.1,6,32.4,10.3c-2.3,2.2-4.4,4.7-6.2,7.3c-2.2,3.3-3.6,7.4-5.4,10.9
		C17.9,34.7,12,39.3,5.2,40.3c0,0-2.1,0.3-3.4,0C0.6,40,0,40.5,0.7,41.6C1.9,43.4,5.2,43.1,7,43c6.4-0.2,12.3-3.9,16.5-8.5
		c2.1-2.3,3.8-4.9,5.1-7.8c1.4-3.1,3.1-6.2,5.7-8.4c1.9-1.6,4.6-2.4,6.4-0.1c1.1,1.3,1.3,3.2,1.2,4.9c-0.2,2.9-1.3,5.7-2.9,8.2
		c-0.8,1.2-1.6,2.3-2.6,3.4c-0.7,0.8-1.3,1.8-2.1,2.5c-0.7,0.6-1.4,0.4-2.1,0.8c-0.8,0.4-1.2,1.4-1.4,2.2c-0.2,1.1,0,2.2,0.1,3.3
		c0.3,2.1,0.7,4.3,0.5,6.5c-0.2,2.4-1.3,3.9-2.3,5.9c-0.8,1.6-1.5,4.6-0.5,6.3c0.8,1.2,2.5-0.6,4-2.5c0.1,0.7,0.2,1.3,0.6,1.8
		c1.5,2.2,6-6.1,6-6.1s1.3-3.1,0.3-11.4c0,0-1.2-3.5,8-10.5c7.6-5.8,8.8-5.5,11-9.1c1.9,1.1,5.4,2.5,9.7,1.9c0,0,1,3.2-0.5,6.4
		c0,0,0,0.3-0.2,0.6c-0.2-0.2-0.5-0.4-0.8-0.3c-0.4,0-0.8,0.3-0.9,0.7c0,0,0,0.1,0,0.1c-0.7-0.2-1.7-0.3-2.4,0.4
		c-1,1.1,0.9,1.4,0.9,1.4s1.7,1,3.7,0.5c0.2,0,0.4,0,0.6,0c0.8,0,1.6,0.1,2.5-0.1c2.3-0.6,2.5-3.6,3.1-5.4c0.4-1.3,0.8-2.5,1.1-3.8
		c2.6-0.4,7.2-2,12.4-8.5c0,0,0.5,0.3,3.1,0.2c0,0,1.4,0,1.8,0.6c0.5,0.6,2.4,0.7,2.8,0.3c0,0,1.4,0.2,1.4-1.2
		C96.8,17.9,98.2,17.2,96.8,15.9z M70.7,33.1c-0.1,0.1-0.3,0.3-0.5,0.4c0.5-1.1,0.9-2.6,1.3-3.8C71.3,31.1,71,32.6,70.7,33.1z"/>
	<path fill="#FFFFFF" d="M82.6,3.4c0.1-0.1,0.3,0.1,0.4,0.2c0.3,0.2,0.7,0.5,1,0.7c1.2,0.9,2.3,2,3.2,3.2c0,0.1,0.1,0.1,0,0.2
		c0,0-0.1,0-0.2,0c-0.4-0.1-0.7-0.3-1.1-0.4C85.8,7.1,85.6,7,85.5,7c-0.5-0.2-1.6-1.1-2.1-1.6c0,0,0,0-0.1-0.1
		c-0.4-0.4-0.6-0.9-0.7-1.5C82.5,3.7,82.5,3.5,82.6,3.4z"/>
	<g>
		<g>
			<path fill="#020202" d="M97.8,52.1c-1.2,0.6,1.2,3.3,1.7,3.8c1.2,1.2,2.7,2,4.2,2.6c3.1,1.2,6.5,1.5,9.8,1.6
				c5,0.1,20.1-1.3,27.1-14.8c1-2,3.4,0.2,3.9,1.7c0.9,2.5-0.7,5.6-1.7,7.9c-0.9,2.2,0.2,2.9,2.3,3.5c5.4,1.5,13,3.5,16.5,4
				c0.8,0.1,1.6,0.2,2.5,0.2c0.4,0,1.4,0.1,1.7-0.3c0.3-0.3-0.2-0.4-0.3-0.5c0.6-0.3,1.7,0,2.2-0.8c0.6-1-1.4-2-2.1-2.4
				c-1.3-0.7-2.7-1-4.1-1.1c-3.1-0.3-6.3,0.3-9.3-0.5c-1.3-0.3-2.6-1.1-3.4-2.2c-1-1.5-0.9-3.5-0.4-5.2c0.3-1.1,0.8-2.3,1.4-3.3
				c0.6-1.1,1.3-2.1,2.1-3c0,0,0.1,0.7,0.2,0.7c0.1,0.4,0.1,0.8,0.1,1.3c0,2-0.5,3.9-1,5.8c-0.2,0.9-0.3,1.9,0.6,2.4
				c0.7,0.4,1.5,0.4,2.3,0.5c5.6,0.6,13.4,1.4,16.9,1.4c3.5,0,4.7-0.7,4-1.1c-1.4-0.7,1.3,0.3,0.8-1c-0.8-2.1-2.8-2.2-4.7-2.3
				c-3.3-0.2-6.5,0.4-9.7,0.7c-1.5,0.1-3.2,0-4.3-1c-1-0.8-1.4-2.1-1.5-3.4c-0.1-1.3,0.2-2.5,0.6-3.7c0.2-0.7,0.4-1.4,0.6-2
				c0.2-0.6,0.6-1.9,0.6-1.9s2.3-0.8,2.9-1.1c2.1-1.1,3.8-1.8,5.6-3.2c0,0,3.3,3.9,3.9,4.6c0.6,0.7,0.2,2,0.2,2l-0.7,0.6
				c0,0-0.2-0.1-0.5-0.3c-0.4-0.2,0.1,0.4-0.4,0.1c-0.5-0.3-0.5,0.3-0.2,0.8c0.3,0.4,1.1,0.8,1.7,0.5c0.6-0.3,1.8-0.8,2.1-1.7
				c0.3-1-0.6-1.6-0.6-1.6l-3-5.7l1.1-0.4c0,0,1.6,2.5,3.1,3.6c1.4,1.1,2,2.3,1.9,2.6c-0.1,0.3,0,1.3,0.1,1.6
				c0.1,0.3,0.1,1.1-0.1,1.6c-0.2,0.6-0.2,1.3,0.1,1.1c0.3-0.2,0.4-0.4,0.4-0.4s0.3-0.2,0,0.4c-0.3,0.6,0.1,0.5,0.1,0.5
				s0.2,0,0.4-0.2c0.1-0.2,0.2-0.3,0.3-0.4c0.1-0.1,0.7-0.3,0.7-1.1c0-0.8,0-2.8,0-2.8s-1.6-2.8-2.9-4.8c-0.6-0.9-1.1-2.1-1.2-3.3
				c0-1.1,1.2-2.2,1.7-3.1c0.7-1.1,1.3-2.3,1.8-3.5c0.5-1.3,1-2.6,1.3-3.9c0.2-0.7,0.4-1.4,0.4-2.1c0.1-0.6,0-1.3,0.5-1.8
				c0.4-0.5,1.1-0.6,1.8-0.5c0.8,0.2,1.5,0.7,2.2,1.1c0.8,0.4,1.7,0.7,2.6,1c0.2,0.1,0.4,0.1,0.6,0.1c1.2-0.1-0.8-0.8-0.9-1.3
				c0.1,0,0.1,0,0.2,0.1c3,1.9,2.8-1.9,2.4-2.5c-0.3-0.5-0.8-0.9-1.3-1.2c-1.1-0.7-2.1-1.4-3.2-2.1c-0.4-0.3-0.5-0.4-0.6-0.9
				c0-0.4,0-1-0.4-1.3c-0.2-0.2-0.5-0.2-0.8-0.3c-0.8-0.2-1.2-0.8-2-1.2c-0.2-0.1-0.4-0.2-0.7-0.2c0.8-0.5,2.3-1.8,2.2-4.5
				c-0.1-3.8-0.1-3.9-0.1-3.9s-1-0.5-2.3,2.4c-1.1,2.5-0.7,5.2-0.5,5.9c-0.3,0-0.6,0-0.9,0c-0.4-1.1-1.6-3.3-4.4-4
				c-3.5-0.9-4-1.1-4-1.1s-0.1,0.9,1.4,2.8c1.5,1.8,3.4,3,4.8,3.1c-0.2,0.1-0.3,0.2-0.5,0.3c-2,1.6-3,2.7-3.8,5.2
				c-0.4,1.5-1.2,3.3-2.7,3.7c-1.1,0.3-2.2-0.1-3.2-0.5c-3-1.3-5.7-2.6-9.1-3c-3.3-0.3-6.6,0.3-9.7,1.6c-4.3,1.9-8.3,4.8-11,8.7
				c-1.3,1.9-2.2,4.1-2.6,6.4c-0.5,2.9,0.3,5.6,0.1,8.6c-0.1,2.6-0.9,5.1-2.6,7.1c-1.8,2.1-4.2,3.6-6.7,4.7
				c-2.6,1.1-5.4,1.9-8.1,2.3c-2.8,0.3-5.7,0.3-8.5-0.2c-1.3-0.2-2.6-0.6-3.9-1c-0.6-0.2-1.3-0.4-1.9-0.7c-0.5-0.2-1.2-0.7-1.7-0.7
				C98,52,97.9,52.1,97.8,52.1z"/>
		</g>
		<path fill="#FFFFFF" d="M170,5.3c0.1-0.1,0.3,0,0.4,0.1c0.3,0.1,0.6,0.3,0.9,0.4c1.1,0.6,2.1,1.3,3,2.2c0,0,0.1,0.1,0.1,0.1
			c0,0-0.1,0-0.1,0c-0.3-0.1-0.6-0.1-0.9-0.2c-0.2,0-0.3-0.1-0.5-0.1c-0.4-0.1-1.5-0.6-1.9-1c0,0,0,0-0.1,0
			c-0.3-0.3-0.6-0.7-0.8-1.1C170,5.6,169.9,5.4,170,5.3z"/>
	</g>
</g>
<g id="Other_Assets" display="none">
</g>
</svg>
