<?xml version="1.0" encoding="utf-8"?>
<!-- Generator: Adobe Illustrator 18.0.0, SVG Export Plug-In . SVG Version: 6.00 Build 0)  -->
<!DOCTYPE svg PUBLIC "-//W3C//DTD SVG 1.1//EN" "http://www.w3.org/Graphics/SVG/1.1/DTD/svg11.dtd">
<svg version="1.1" xmlns="http://www.w3.org/2000/svg" xmlns:xlink="http://www.w3.org/1999/xlink" x="0px" y="0px"
	 viewBox="0 0 38.8 27.5" enable-background="new 0 0 38.8 27.5" xml:space="preserve">
<g id="Color_Background">
</g>
<g id="Illustrations">
	<path fill="#211D1E" d="M38.6,17.8c-0.1-0.3-0.2-0.6-0.3-0.9c-0.1-0.1-0.2-0.2-0.3-0.3c-0.4-0.2-0.7-0.4-0.7-0.8
		c0-0.3-0.1-0.6,0-0.9c0.1-0.9,0.4-1.9,0.8-2.7c0.1-0.2,0.2-0.4,0.2-0.6c0.1-0.6,0.2-1.3,0.4-1.9c0.2-1.3,0-2.4-0.5-3.6
		c-0.3-0.9-1-1.5-1.6-2.1c-0.3-0.3-0.6-0.5-0.9-0.8C35,2.7,34.6,2,34.4,1.4c-0.1-0.2-0.1-0.3-0.2-0.5c-0.1-0.2-0.2-0.3-0.3-0.5
		c0,0.1-0.1,0.1-0.1,0.2c-0.4,0.6-0.7,1.2-1.1,1.7c-0.5,0.7-1,1.4-1.4,2.2c-0.5,0.9-0.7,1.8-0.7,2.7c0,0.9,0,1.8,0.1,2.6
		c0.3,1.8,1.1,3.2,2.6,4.2c0.6,0.4,1.3,0.7,2,1.1c0.3,0.2,0.6,0.4,0.9,0.6c0.3,0.3,0.6,0.6,0.9,0.9c-0.1,0-0.2,0.1-0.2,0.1
		c-0.3,0-0.5-0.1-0.8-0.2c-0.3-0.2-0.6-0.4-0.9-0.6c-0.4-0.2-0.8-0.4-1.3-0.1c-0.1-0.4-0.2-0.7-0.3-1.1c-0.1-0.2-0.2-0.3-0.3-0.4
		c-0.8-0.5-1.5-1.2-2-2c-0.3-0.4-0.5-0.9-0.6-1.4c-0.2-0.8-0.4-1.6-0.3-2.4c0-0.2,0-0.3-0.2-0.5c-0.9-0.9-1.9-1.7-3-2.3
		c-1.8-1.1-3.7-1.8-5.7-2.3c-1.8-0.5-3.7-0.7-5.6-0.6C13.9,3,12.1,3.3,10.3,4c-2,0.8-3.7,1.9-5.1,3.5C4.8,8.1,4.3,8.7,3.8,9.2
		c-0.6,0.8-1.3,1.5-2.1,2.1c-0.5,0.4-0.9,1-1.1,1.6c-0.3,0.6-0.3,1.3-0.3,1.9c0,0.9,0.4,1.7,1.2,2.2c0.3,0.2,0.6,0.4,0.9,0.7
		c0.4,0.4,0.7,0.7,1,1.1c0.9,1.1,1.7,2.3,2.7,3.3c1.1,1.1,2.2,2.1,3.6,2.8c1.3,0.6,2.7,1.1,4.1,1.4c2.1,0.5,4.1,0.7,6.2,0.7
		c2,0,3.9-0.3,5.8-1.1c1.9-0.7,3.5-1.8,4.6-3.5c0.6-0.9,1.3-1.7,2.1-2.5c0.6-0.6,1.1-1.2,1.3-2c0-0.1,0.1-0.1,0.1-0.1
		c0.6-0.3,1.2-0.3,1.8,0c0.4,0.2,0.8,0.4,1.1,0.7c0.2,0.2,0.5,0.3,0.8,0.1c0.3-0.2,0.6-0.5,0.9-0.7C38.6,17.9,38.6,17.8,38.6,17.8z
		 M11.2,6.5c-0.1,0-0.1,0.1-0.2,0.2l0,0C11,6.6,11.1,6.6,11.2,6.5z M16.4,12.6C16.4,12.6,16.4,12.6,16.4,12.6
		C16.4,12.6,16.4,12.6,16.4,12.6z M16.5,12.6c0-0.1,0-0.1-0.1-0.2C16.4,12.4,16.5,12.5,16.5,12.6z"/>
</g>
<g id="Other_Assets" display="none">
</g>
</svg>
