<?xml version="1.0" encoding="utf-8"?>
<!-- Generator: Adobe Illustrator 18.0.0, SVG Export Plug-In . SVG Version: 6.00 Build 0)  -->
<!DOCTYPE svg PUBLIC "-//W3C//DTD SVG 1.1//EN" "http://www.w3.org/Graphics/SVG/1.1/DTD/svg11.dtd">
<svg version="1.1" xmlns="http://www.w3.org/2000/svg" xmlns:xlink="http://www.w3.org/1999/xlink" x="0px" y="0px"
	 viewBox="0 0 53.2 46.7" enable-background="new 0 0 53.2 46.7" xml:space="preserve">
<g id="Color_Background">
</g>
<g id="Illustrations">
	<path fill="#211D1E" d="M52.6,27.2c-0.1-1.2-0.4-2.4-1.2-3.4c-0.8-0.9-1.6-1.7-2.7-2.2c-0.6-0.3-1.3-0.6-1.9-0.9
		c-1-0.5-2-1-3.1-1.5c-1.2-0.6-2.4-1.2-3.5-1.8c-1-0.5-2-1.1-3.1-1.5c-1.2-0.6-2.5-1.2-3.8-1.5c-1.8-0.5-3.6-0.9-5.4-1.1
		c-3.3-0.4-6.6,0-9.9,0.8c-2.9,0.7-5.7,1.9-8.1,3.9c-1.2,1-2.3,2-3.2,3.3c-0.8,1.1-1.5,2.2-2,3.5c-0.2,0.6-0.6,0.7-1.1,0.7
		c-0.6,0-1.1-0.1-1.4-0.7c-0.2-0.3-0.3-0.7-0.4-1c-0.4-1.2-0.7-2.4,0.4-3.5c0,0,0,0,0-0.1c0.7-0.9,1.2-1.8,2.1-2.5
		C5.2,17,6,16.3,6.8,15.8c1.3-0.8,2.7-1.3,4.2-1.7c0.9-0.3,1.9-0.6,2.7-1.1c0.9-0.4,1.7-1.2,2.4-1.9c1.4-1.4,2.6-2.9,3.7-4.5
		c0.8-1.3,1.5-2.6,2.2-3.9c0.6-1.1,1.7-1.5,2.8-1.7c0.1,0,0.3,0,0.5,0c0,0,0-0.1,0-0.1c-0.1,0-0.3-0.1-0.4-0.1
		c-0.6-0.1-1.2-0.2-1.8-0.4c-1.6-0.5-3,0-4.5,0.5C17.8,1,17,1.4,16.2,1.6c-0.8,0.3-1.7,0.3-2.4,0.6c-1.6,0.6-2.7,1.8-3.5,3.3
		C9.5,7,8.6,8.4,7.8,9.9c-0.7,1.3-1.5,2.5-2.5,3.6c-1.5,1.6-2.5,3.4-3.4,5.4c-0.3,0.7-0.7,1.3-1.1,1.9c-0.3,0.4-0.4,0.7-0.3,1.1
		c0.1,0.6,0.3,1.2,0.4,1.9c0.1,0.7,0.2,1.4,0.1,2.1C1,26.6,1,27.2,1.4,27.8c0.1,0.1,0.1,0.2,0.1,0.4c0,0.5,0.3,0.9,0.8,1.1
		c0.5,0.2,0.9,0.5,1.3,0.8c0.1,0.1,0.2,0.2,0.2,0.4c0.1,0.8,0.1,1.6,0.3,2.3c0.8,3.2,2.5,5.9,5,8c0.7,0.6,1.5,1.1,2.3,1.6
		c1.1,0.6,2.3,1.2,3.4,1.7c1.5,0.5,3,1,4.6,1.3c2.2,0.4,4.5,0.6,6.7,0.8c2.7,0.2,5.4,0,8.1-0.5c3.8-0.7,7.5-1.9,10.6-4.4
		c1.3-1,2.5-2,3.5-3.3c1.5-1.9,2.7-3.9,3.5-6.2C52.4,30.3,52.7,28.8,52.6,27.2z"/>
</g>
<g id="Other_Assets" display="none">
</g>
</svg>
