<?xml version="1.0" encoding="utf-8"?>
<!-- Generator: Adobe Illustrator 18.0.0, SVG Export Plug-In . SVG Version: 6.00 Build 0)  -->
<!DOCTYPE svg PUBLIC "-//W3C//DTD SVG 1.1//EN" "http://www.w3.org/Graphics/SVG/1.1/DTD/svg11.dtd">
<svg version="1.1" xmlns="http://www.w3.org/2000/svg" xmlns:xlink="http://www.w3.org/1999/xlink" x="0px" y="0px"
	 viewBox="0 0 236.8 98.8" enable-background="new 0 0 236.8 98.8" xml:space="preserve">
<g id="Color_Background">
</g>
<g id="Illustrations">
	<polygon fill="#00A7E1" points="234.1,73.9 231.6,69.5 229.2,73.9 224.8,73.9 231.9,64.4 230.4,61 216.8,71.9 211.9,62.9 
		206.6,57.1 195.1,52 183.9,52 170.8,56.9 163.7,56.9 152,62.2 141.3,66.6 126.5,68.3 117.2,73.9 108.2,73.9 99.2,66.6 102.4,64.4 
		103.8,60.5 104.1,55.1 99.2,41.5 96.5,31.8 90.4,22.8 90.4,18.4 94.8,16.9 91.2,9.6 92.1,1 1,1 1,97.7 235.7,97.7 235.7,78.8 
		234.1,78.8 	"/>
</g>
<g id="Other_Assets" display="none">
</g>
</svg>
