<?xml version="1.0" encoding="utf-8"?>
<!-- Generator: Adobe Illustrator 18.0.0, SVG Export Plug-In . SVG Version: 6.00 Build 0)  -->
<!DOCTYPE svg PUBLIC "-//W3C//DTD SVG 1.1//EN" "http://www.w3.org/Graphics/SVG/1.1/DTD/svg11.dtd">
<svg version="1.1" xmlns="http://www.w3.org/2000/svg" xmlns:xlink="http://www.w3.org/1999/xlink" x="0px" y="0px"
	 viewBox="0 0 521.3 184.6" enable-background="new 0 0 521.3 184.6" xml:space="preserve">
<g id="Color_Background">
</g>
<g id="Illustrations">
	<path fill="#FFFFFF" d="M150,65.1c2.1-0.2,9.2-4.9,12-4.2c4.5,1.1,7.7,11.6,12.3,12c3.1,0.2,8.3-6.1,8.3-6.1s6-8.8,8.3-6.7
		c6.4,5.6,14.1,4.2,15.9,3.8c-8-8.7-29.2-30.5-30.4-29.8c-5.1,2.8-19.4,15-31.5,25.5C145.5,61.1,147.6,65.3,150,65.1z"/>
	<path fill="#FFFFFF" d="M403.9,82.3c1.9-0.5,3.8-0.9,4.5-1.1c1.2-0.3-1.4,7.1,0.2,7.4c2.7,0.5,7.9-11,10.5-1.1
		c0.5,1.9,4.5,1.3,5.3,0.6c1.8-1.4,2.9-5.8,4.6-4.8c11,6.2,12.4,5.1,12.6,4.2C430,76,421.3,67.5,420.9,67.7
		c-3.8,2.3-12.5,8.5-20.1,14C400.1,82.8,402.9,82.6,403.9,82.3z"/>
	<path fill="#FFFFFF" d="M295.2,47.2c4.1,0.6,9.1-9.7,13.9,3.6c0.9,2.6,4.8,2.6,6,1.6c2.6-2.1,4.9-12.1,7.6-10.9
		c14.4,6.4,17.2,4.1,17.7,2.8l-31.4-27l-29.7,20.4c3.5-0.2,12.8-0.1,14.9-0.6C296,36.6,292.7,46.8,295.2,47.2z"/>
	<polygon points="373.3,30.2 365,98.7 366.5,98.7 374.6,30.1 	"/>
	<rect x="368.1" y="60.6" width="14.4" height="2.2"/>
	<rect x="365.9" y="34.6" width="18.9" height="1.8"/>
	<rect x="368.3" y="33.7" width="14.3" height="1"/>
	<polygon points="370.6,62.8 383.6,89.7 384.1,94.1 370.1,65.5 	"/>
	<polygon points="380.2,62.6 367.3,89.5 366.7,93.9 380.8,65.2 	"/>
	<polygon points="377.5,39 370.8,59.6 371.3,53.5 377.2,35.6 	"/>
	<polygon points="373.1,38.5 379.8,59.1 379.3,53 373.8,36.2 	"/>
	<polygon points="392.2,15.7 406,18.3 406,8.1 392.1,10.9 	"/>
	<rect x="376.1" y="13.1" width="16.2" height="0.8"/>
	<polyline points="376.3,9.8 378.4,17.4 375.7,20 372.7,17.4 374.8,9.6 376.3,9.6 	"/>
	<rect x="375.3" y="17.4" transform="matrix(-0.8788 -0.4772 0.4772 -0.8788 702.8859 213.6191)" width="6.5" height="0.3"/>
	
		<rect x="376.8" y="16.1" transform="matrix(-0.9965 8.381551e-02 -8.381551e-02 -0.9965 760.0348 0.5403)" width="6.5" height="0.3"/>
	<rect x="379.5" y="14.7" transform="matrix(-3.125706e-03 1 -1 -3.125706e-03 396.8373 -365.7646)" width="2.4" height="0.4"/>
	<rect x="376" y="14.9" transform="matrix(-0.8027 0.5964 -0.5964 -0.8027 690.849 -198.4472)" width="4.5" height="0.3"/>
	<rect x="375.7" y="14.9" transform="matrix(-0.6335 0.7738 -0.7738 -0.6335 628.1471 -267.3883)" width="3.4" height="0.3"/>
	<rect x="370.1" y="18.2" transform="matrix(-0.9268 0.3755 -0.3755 -0.9268 724.6039 -104.5378)" width="4.8" height="0.3"/>
	<rect x="369.7" y="17.7" transform="matrix(-0.8075 0.5899 -0.5899 -0.8075 682.795 -187.0323)" width="4.4" height="0.3"/>
	<rect x="369.9" y="13.7" transform="matrix(-0.9102 -0.4142 0.4142 -0.9102 705.0345 180.6297)" width="4.4" height="0.3"/>
	<polyline points="376.2,17.6 376.5,22.3 375.6,22.4 374.7,22.3 375,17.6 	"/>
	<polygon points="377.6,30.2 385.8,98.7 384.3,98.7 376.3,30.1 	"/>
	<path fill="#020202" d="M511.1,184.6c8.7-3.8,14.3-9.7,6.5-17.1c0,0-51.9-56-76-80c-0.2,1-1.6,2.1-12.6-4.2c-1.7-1-2.8,3.4-4.6,4.8
		c-0.8,0.7-4.8,1.3-5.3-0.6c-2.6-9.9-7.8,1.6-10.5,1.1c-1.7-0.3,1-7.7-0.2-7.4c-0.8,0.2-2.7,0.6-4.5,1.1c-1,0.3-3.8,0.5-3.2-0.7
		c-1.5,1.1-3,2.1-4.4,3.1c-3.2,2.3-7.4,2.4-9.8-0.7l-46.1-39.7c-0.5,1.3-3.3,3.7-17.7-2.8c-2.7-1.2-5,8.8-7.6,10.9
		c-1.2,1-5,0.9-6-1.6c-4.8-13.3-9.8-3-13.9-3.6c-2.5-0.3,0.8-10.6-1-10.1c-2,0.5-11.3,0.4-14.9,0.6l-21,14.4
		c-0.2,0.1-0.5,0.3-0.7,0.5c-1.6,1.3-3.4,2.1-5.2,2.4l-13.1,0.5c-2,0.3-4,2.5-5.7,4.1l-9.2,8.5c-4.3,4-9.8,3.9-14-0.2
		c-0.2-0.2-0.5-0.5-0.7-0.8c-0.4-0.5-1.4-1.7-2.9-3.3c-1.8,0.4-9.4,1.8-15.9-3.8c-2.4-2-8.3,6.7-8.3,6.7s-5.3,6.3-8.3,6.1
		c-4.6-0.4-7.8-10.9-12.3-12c-2.8-0.7-9.9,4-12,4.2c-2.4,0.3-4.5-4-5.1-5.5c-8.5,7.4-15.9,14-18,15.8c-0.4,0.3-0.7,0.8-1.1,1.1
		c-3.2,2.3-7,2.5-10.3,0.5l-4.9-2.8c-4.3-2.5-9.1-1.4-12.7,2.7l-22.2,25.6c-3.7,4.3-8.7,5.2-13,2.5l-3.1-1.9
		c-4.9-3.1-10.6-1.4-14.3,4.2L2.7,162.3c-3.4,5.2-2,14.3,2.5,22.3H511.1z"/>
</g>
<g id="Other_Assets" display="none">
</g>
</svg>
