<?xml version="1.0" encoding="utf-8"?>
<!-- Generator: Adobe Illustrator 18.0.0, SVG Export Plug-In . SVG Version: 6.00 Build 0)  -->
<!DOCTYPE svg PUBLIC "-//W3C//DTD SVG 1.1//EN" "http://www.w3.org/Graphics/SVG/1.1/DTD/svg11.dtd">
<svg version="1.1" id="Layer_1" xmlns="http://www.w3.org/2000/svg" xmlns:xlink="http://www.w3.org/1999/xlink" x="0px" y="0px"
	 viewBox="0 0 792 612" enable-background="new 0 0 792 612" xml:space="preserve">
<g id="Color_Background">
</g>
<g id="Illustrations">
	<g>
		<path fill="#211D1E" d="M411,186l2-6v-2v-4c2-6,0-10,4-14v-16c0-2,0-6,0-10l-6-6c0,0,0-2,0-4l0,0l-14-12c-8,0-18,0-26,0
			c-8,4-16,6-22,12c-2,2-4,4-4,6l-6,8c-4,6-8,14-12,22c0,2,0,4,0,6c-2,4-4,4-8,6c-2,0-6-4-10-4c-2-2-6,0-8-2c-2,0-4-2-6-2
			c-4-2-8-2-10-6l-4-2c-2,0-4,0-6,0c-6-4-14-6-22-10h-6l-4-2l-4-6c0-2,2-2,0-4c0-4,2-8,4-12c0-6,4-8,4-10l2-6c2-6,6-12,10-18
			c2-2,4-6,4-8c4-6,6-12,8-16c4-4,6-8,8-12c0-2,2-4,4-6l2-2c2,0,4-2,4-4l6-6l4-2c2,0,4-2,6-4l10-6c8-2,12-4,18-6c2,0,6-2,10-4
			c2-2,6,0,10-2c2,0,4,0,6,0c6,0,14,0,20,0c6-2,14-4,20-2c0,0,2,0,4,0c4,0,8,0,12,2c2,0,4,0,6,0c4,0,8,0,10,2c2,0,4,0,6,0
			c2,0,6,0,6,2h4c4,0,6,0,10,2s6,0,10,2c2,0,4,0,6,0c4,0,8,2,12,4s6,2,8,4c4,2,6,4,10,6c2,4,4,8,8,10c0,0,0,0,2,2c4,6,10,10,16,16
			c4,6,6,12,10,18c4,6,6,14,10,18c0,4,0,6,4,10c0,6,4,12,4,16c0,2,2,4,2,6v12c0,2,0,2,0,4s0,4,0,6v10c0,6-2,10-2,14c-2,4-2,6-2,10v8
			c0,4-2,6-2,8v6c-2,6-4,10-6,14c0,2,0,4,0,6c-2,6-6,10-6,14c-2,4-4,8-6,10c-2,2-4,4-6,8c0,2-2,4-4,4l-12,12c-4,4-8,6-12,10
			c-2,2-6,6-8,8c-6,4-12,8-16,12l-8,6c-2,0-2,2-4,4c0,0,0,2-2,4c-6,4-12,10-16,16c-2,4-4,8-6,12l-6,12l-8,20c0,2,0,4,0,6v8
			c0,0,0,2,0,4c0,4,0,4,0,8c0,6,0,10,0,16c0,2,0,6,0,6c2,4,0,6-2,8l-4,2l-6,2h-14c-4,0-8,0-12,0l-4,2h-12l-6-2c0,0-2,0-4,2
			c-4,0-8,0-12,0l-4-2h-14c-2,0-4,0-6-2v-4c0-6,0-14,0-20c0-2,0-4,2-6v-30c0-4,0-6,0-10c0-2,0-4,0-6v-14c0-2,0-2,2-4v-10
			c2-4,2-6,2-10c2-4,2-6,2-12c2-2,2-6,2-10s2-6,2-10l10-22c2-6,8-12,10-18c4,0,8-2,8-6c0-2,2-4,4-6l10-12c2,0,6-4,8-6c0-2,4-6,6-8
			c6-6,12-14,16-22C411,190,411,188,411,186z M431,514c2,4,4,8,6,12c0,2,2,6,2,8s0,6,0,8c0,4-2,10-2,14c-2,4,0,8-4,10c-2,2-4,6-6,10
			c-4,4-6,8-10,12l-8,8l-12,6c-8,2-14,4-22,4c-6,0-14-2-18-4c-6-2-12-6-20-8c-2,0-6-4-6-6c-2-6-6-10-8-16c0-2,0-6-4-10c0-4-2-8-2-12
			c0-2,0-6,2-10c0-6,2-12,6-18c2-2,6-8,10-14l6-6l6-8c4-4,8-6,14-8h2c4,0,6,0,10,0c2,0,4,0,6,0s4,0,6,0l12,2c2,0,6,2,8,4
			c4,0,6,2,8,4c4,4,6,4,10,6L431,514z"/>
	</g>
</g>
<g id="Other_Assets" display="none">
</g>
</svg>
