<?xml version="1.0" encoding="utf-8"?>
<!-- Generator: Adobe Illustrator 18.0.0, SVG Export Plug-In . SVG Version: 6.00 Build 0)  -->
<!DOCTYPE svg PUBLIC "-//W3C//DTD SVG 1.1//EN" "http://www.w3.org/Graphics/SVG/1.1/DTD/svg11.dtd">
<svg version="1.1" xmlns="http://www.w3.org/2000/svg" xmlns:xlink="http://www.w3.org/1999/xlink" x="0px" y="0px"
	 viewBox="0 0 38.8 37.5" enable-background="new 0 0 38.8 37.5" xml:space="preserve">
<g id="Color_Background">
</g>
<g id="Illustrations">
	<path fill="#211D1E" d="M38.3,14.5c-0.2-0.9-0.6-1.6-1.2-2.3c-0.7-0.8-1.5-1.5-2.3-2c-0.1,0-0.1-0.1-0.2-0.1c0-0.1,0-0.2,0-0.3
		c0-1-0.3-1.8-1.1-2.4c-0.3-0.3-0.7-0.5-1.1-0.6c-0.5-0.2-1.1-0.3-1.7-0.4c-0.2,0-0.3-0.1-0.3-0.2c-0.5-0.7-1.1-1.3-1.9-1.8
		c-0.7-0.5-1.5-0.7-2.4-0.8c-0.7,0-1.3,0.1-2,0.3c-0.1,0-0.2,0-0.3-0.1c-0.3-0.3-0.7-0.6-1.1-0.8c-0.8-0.4-1.5-0.6-2.4-0.4
		c0,0-0.1-0.1-0.1-0.1c-0.3-0.3-0.6-0.6-0.9-0.9c-0.5-0.4-1.1-0.8-1.7-1c-0.6-0.2-1.2-0.3-1.8-0.2c-0.5,0.1-1.1,0.3-1.5,0.5
		c-0.4,0.2-0.8,0.4-1.2,0.6c-0.3,0.1-0.5,0.2-0.8,0.3c-0.6,0-1.2,0.1-1.7,0.2C9.8,2.3,9,2.6,8.2,3C7.1,3.6,6.3,4.5,5.8,5.7
		C5.6,6.4,5.5,7,5.5,7.6c0,0.1,0,0.2-0.1,0.2C5,8.4,4.5,8.9,4,9.4c-0.2,0.2-0.5,0.4-0.7,0.7c-0.9,1-1.4,2.1-1.6,3.4
		c-0.1,0.6-0.1,1.3-0.1,1.9c0,0.1,0,0.2,0,0.3c-0.1,0.3-0.1,0.5-0.2,0.8c-0.1,0.3-0.2,0.5-0.3,0.7c-0.2,0.2-0.3,0.4-0.4,0.6
		c-0.3,0.8-0.4,1.6-0.3,2.5c0.1,0.6,0.3,1.2,0.7,1.6c0.1,0.1,0.2,0.3,0.2,0.5c0.1,0.3,0.1,0.6,0,0.9c-0.1,0.5-0.2,1-0.2,1.5
		c0,1,0.2,1.9,0.8,2.8c0.4,0.6,0.9,1.1,1.4,1.5c0.3,0.2,0.4,0.5,0.3,0.9c0,0.1,0,0.2,0,0.4c0,1.1,0.5,2,1.5,2.5
		c0.4,0.3,0.9,0.4,1.4,0.5c0.1,0,0.1,0,0.2,0c0,0.3,0.1,0.5,0.2,0.7c0.3,0.6,0.7,1,1.3,1.3c0.6,0.3,1.2,0.4,1.8,0.4
		c0.7,0,1.4,0,2.1-0.1c0.2,0,0.4-0.1,0.6-0.1c0,0,0,0.1,0.1,0.1c0.2,0.4,0.5,0.7,0.8,0.9c0.6,0.4,1.3,0.6,2,0.7c0.5,0,1,0,1.5,0
		c0.4,0,0.7-0.1,1.1-0.2c0.2-0.1,0.4-0.2,0.5-0.4c0,0,0.1,0,0.1,0c0.3,0.2,0.7,0.3,1,0.4c1.6,0.3,3,0,4.2-1.1
		c0.5-0.4,0.8-0.9,1.2-1.4c0.1-0.1,0.1-0.2,0.2-0.2c0.1,0,0.3-0.1,0.4-0.1c0.5-0.1,0.9-0.1,1.4-0.2c0.9-0.3,1.6-0.7,2.2-1.4
		c0.2-0.3,0.4-0.6,0.6-0.9c0.1-0.2,0.2-0.3,0.4-0.3c0.2,0,0.4-0.1,0.6-0.1c0.8-0.3,1.6-0.8,2.2-1.4c0.6-0.6,1.1-1.3,1.3-2.2
		c0-0.1,0.1-0.1,0.1-0.1c0.6-0.5,1-1.1,1.2-1.8c0.2-0.8,0.2-1.6,0.1-2.3c0-0.1-0.1-0.3-0.1-0.4c0.1,0,0.2-0.1,0.3-0.1
		c0.1,0,0.2-0.1,0.3-0.2c0.7-0.5,1.2-1.2,1.4-2.1c0.3-0.9,0.3-1.8,0.2-2.7c0-0.3,0-0.6,0.1-0.9c0.1-0.1,0.1-0.3,0.1-0.4
		C38.5,15.9,38.5,15.2,38.3,14.5z M21.5,19.7c0.1,0.1,0.2,0.2,0.2,0.3v0C21.6,19.8,21.5,19.8,21.5,19.7z M23.3,7
		C23.3,7,23.4,7,23.3,7C23.4,7,23.3,7,23.3,7c-0.2,0-0.2,0-0.3,0.1C23.1,7,23.2,7,23.3,7z M21.7,20.1c0,0,0,0.1,0,0.1
		C21.7,20.2,21.7,20.1,21.7,20.1z"/>
</g>
<g id="Other_Assets" display="none">
</g>
</svg>
