<?xml version="1.0" encoding="utf-8"?>
<!-- Generator: Adobe Illustrator 18.0.0, SVG Export Plug-In . SVG Version: 6.00 Build 0)  -->
<!DOCTYPE svg PUBLIC "-//W3C//DTD SVG 1.1//EN" "http://www.w3.org/Graphics/SVG/1.1/DTD/svg11.dtd">
<svg version="1.1" xmlns="http://www.w3.org/2000/svg" xmlns:xlink="http://www.w3.org/1999/xlink" x="0px" y="0px"
	 viewBox="0 0 49.9 36.7" enable-background="new 0 0 49.9 36.7" xml:space="preserve">
<g id="Color_Background">
</g>
<g id="Illustrations">
	<path fill="#FFFFFF" d="M46.1,28.5c-0.4-0.6-0.7-1.2-0.9-1.8c-0.9-3.1,1.2-5.4,1.4-8.4c0.1-2.5-0.6-5-1.5-7.3
		c-1.5-3.8-4.6-7-8.2-8.7c-6-3-13.2-1.9-19,1c-1.1,0.5-2,1.2-3.2,1.5c-2.8,1-6.1,0.7-8.7,2.1c-2.3,1.3-4,3.6-4.8,6.1
		c-1.8,5.4-0.6,12.5,3.4,16.7c2.1,2.2,4.8,3.7,7.8,4.3c2.5,0.5,5-0.1,7.5-0.2c2.3-0.1,4.5,0.4,6.5,1.4c2.1,1,4.5,1.1,6.8,0.6
		c2-0.4,4.7-1.2,5.9-3.1c1.9-2.9,4.6-0.1,6.4,0.2c1.8,0.3,3.8,0,3.9-0.8c0-1-1.6-1.9-2.3-2.4C46.9,29.4,46.5,29,46.1,28.5z"/>
</g>
<g id="Other_Assets" display="none">
</g>
</svg>
