<?xml version="1.0" encoding="utf-8"?>
<!-- Generator: Adobe Illustrator 18.0.0, SVG Export Plug-In . SVG Version: 6.00 Build 0)  -->
<!DOCTYPE svg PUBLIC "-//W3C//DTD SVG 1.1//EN" "http://www.w3.org/Graphics/SVG/1.1/DTD/svg11.dtd">
<svg version="1.1" id="Layer_1" xmlns="http://www.w3.org/2000/svg" xmlns:xlink="http://www.w3.org/1999/xlink" x="0px" y="0px"
	 viewBox="0 0 792 612" enable-background="new 0 0 792 612" xml:space="preserve">
<g id="Color_Background">
</g>
<g>
	<g id="Your_Icon_2_">
		<path fill="#211D1E" d="M118.1,316.6c-34-1.8-81.1-2.4-97.5,3.4c-20.8,7.4-18.5,14.2-17.6,18.6c1.8,8.2,26.6,16.9,44.8,23.2
			s114.2,29,161.4,17.2s69.9-33.6,76.2-42.6s14.5-17.2,78.9-28.1c64.4-10.9,121.5-17.2,163.2-25.4s205.8-27.2,231.2-28.1
			c25.4-0.9,44.5-19.9,19.9-24.5s-161.4,13.6-184.1,17.2c-22.7,3.7-195.9,33.6-220.3,38.1c-24.5,4.5-66.8,9.9-78,17.2
			c0,0-16.3,13.6-37.2,15.4c-20.8,1.8-87.1,2.7-117,0c-2.2-0.2-4.6-0.4-7.1-0.6"/>
	</g>
	<path fill="#FFFFFF" d="M219.5,301.2c-4.4,0.5-8.8,1.3-13,0.1c-2.9-0.8-5.4-2.6-8.2-3.7c-6.9-2.7-16-1.3-22.9,0.6
		c-7,1.9-13.6,5.1-20.7,6.5c-1.6,0.3-3.2,0.5-4.8,0.6c-1.5,0.1-2.9,0.1-4.4,0.1c-12.1,0.3-23.8-4.6-35.5-7.1
		c-5.8-1.3-11.8-2.2-17.8-1.5c-6.2,0.7-11,3.3-16.1,6.6c-0.9,0.5-1.8,1.1-2.7,1.6c-3.5,1.9-7.4,3.1-11.3,3.7
		c-3.3,0.4-6.6-0.3-9.9,0.3c-3,0.5-6.1,1.6-8.8,2.7c-9.5,4-20.4,11.7-15.5,23.2c2.2,5.2,11.8,6.1,16.7,7c6.5,1.2,37.9,4.2,47.1,5
		c18.2,1.5,36.4,2.7,54.7,3.2c15.5,0.4,30.9,1,46.4,0.5c10.8-0.4,21.7-1.2,32.4-2.9c8.5-1.4,17.6-3.3,25.1-7.9
		c4.6-2.8,9-8.1,8.5-13.9c-0.6-6.7-7.5-10.3-12.2-14.1c-5.8-4.6-12-8.8-19.4-10.3C224.7,300.8,222.1,301,219.5,301.2z"/>
</g>
<g id="Other_Assets" display="none">
	<g id="Your_Icon_4_" display="inline">
		<path d="M-594.7,356.8c-32.1-1.7-76.5-2.2-92,3.2c-19.7,6.9-17.5,13.3-16.6,17.5c1.6,7.8,25.1,15.9,42.2,21.9
			s107.8,27.4,152.2,16.3c44.5-11.1,65.9-31.7,71.8-40.2c6-8.6,13.7-16.3,74.4-26.5c60.7-10.3,114.7-16.3,154-24
			c39.4-7.7,194.3-25.7,218.3-26.5c24-0.9,41.9-18.9,18.8-23.1c-23.1-4.4-152.3,12.8-173.7,16.2s-184.8,31.7-207.9,35.9
			c-23.1,4.3-63,9.4-73.6,16.3c0,0-15.4,12.8-35.1,14.6c-19.7,1.7-82.1,2.6-110.4,0c-2-0.2-4.3-0.3-6.7-0.5"/>
	</g>
</g>
</svg>
