<?xml version="1.0" encoding="utf-8"?>
<!-- Generator: Adobe Illustrator 18.0.0, SVG Export Plug-In . SVG Version: 6.00 Build 0)  -->
<!DOCTYPE svg PUBLIC "-//W3C//DTD SVG 1.1//EN" "http://www.w3.org/Graphics/SVG/1.1/DTD/svg11.dtd">
<svg version="1.1" xmlns="http://www.w3.org/2000/svg" xmlns:xlink="http://www.w3.org/1999/xlink" x="0px" y="0px"
	 viewBox="0 0 33.8 33.3" enable-background="new 0 0 33.8 33.3" xml:space="preserve">
<g id="Color_Background">
</g>
<g id="Illustrations">
	<g>
		<polygon points="22,1.3 18.6,0.4 17.6,9.9 19.2,10.3 		"/>
		<polygon points="16.5,1 12.7,1 15.2,10.2 16.8,10 		"/>
		<polygon points="11.1,2 7.4,3.1 13,11.2 14.6,10.3 		"/>
		<polygon points="6,4.8 3.4,7.2 11.5,13 12.9,11.7 		"/>
		<polygon points="2.6,9.5 1.1,12.4 10.8,15.1 11.1,13.4 		"/>
		<polygon points="1.1,14.6 0.6,18 10.6,17.4 10.7,15.7 		"/>
		<polygon points="1.1,20.1 2.5,23.6 11,19.5 10.5,18.1 		"/>
		<polygon points="3.6,25.5 5.8,28.3 12.5,21.5 11.5,20.3 		"/>
		<polygon points="7.1,29.3 10.1,31.5 14.3,22.7 13.3,21.9 		"/>
		<polygon points="15.7,32.7 12.1,31.9 15.1,22.9 16.8,23 		"/>
		<polygon points="20.8,21.8 26.9,29.3 23.5,31.2 19.5,22.6 		"/>
		<polygon points="28.1,28.1 30.8,25.4 22.6,20.1 21.6,21.1 		"/>
		<polygon points="33,20.6 31.3,24 23.1,19.3 23.5,18 		"/>
		<polygon points="33.1,15 33,18.7 23.6,17.5 23.6,15.7 		"/>
		<polygon points="32.7,13.1 23.5,15.2 23,13.7 31.6,9.3 		"/>
		<polygon points="30.6,8.3 22.8,13.2 21.6,11.8 28.6,5.1 		"/>
		<polygon points="27,4 24,1.8 19.7,10.5 21,11.6 		"/>
		<path d="M17,9.9c3.7,0,6.7,3,6.7,6.7s-3,6.7-6.7,6.7s-6.7-3-6.7-6.7S13.3,9.9,17,9.9z M10.8,16.5c0,3.4,2.8,6.2,6.2,6.2
			s6.2-2.8,6.2-6.2s-2.8-6.2-6.2-6.2S10.8,13.1,10.8,16.5z"/>
		<path d="M17.3,3.9c6.7,0,12.2,5.5,12.2,12.2s-5.5,12.2-12.2,12.2S5.1,22.9,5.1,16.2S10.6,3.9,17.3,3.9z M5.7,16.2
			c0,6.4,5.2,11.7,11.7,11.7S29,22.6,29,16.2S23.8,4.5,17.3,4.5S5.7,9.8,5.7,16.2z"/>
		<polygon points="17.9,32.7 21.5,31.9 18.5,22.9 16.8,23 		"/>
	</g>
</g>
<g id="Other_Assets" display="none">
</g>
</svg>
