<svg xmlns="http://www.w3.org/2000/svg" viewBox="-778 36 612 428" enable-background="new -778 36 612 428"><path fill="#fff" d="M-202.9 421.1c-8.8 14.5-26.5 11.6-40.9 10.8-20.8-1.2-41.6-.3-62.3-.2-23.7.2-46.9-3.1-70.5-3.5-37.9-.7-75.5 3.9-113.3 5.2-64.9 2.2-130.1-7.8-194.8-4.2-18.5 1-41.7 8.6-56.7-6.5-14.8-14.9-11.7-37.6-9.4-56.4 3.1-26.4-.4-52.9-2.3-79.2-2-27.6-4.9-55.2-3.9-82.9.9-25.9 7.4-51.8 4.8-77.8-1.7-17.5-8.6-43.6 6.2-57.4 17.2-16.2 42.6-10.2 63.7-9.7 40.4.9 79.9 2.6 120.3 2.7 51.4.2 103-5 154.3-6.8 46.8-1.7 93.5 3.9 140.2 4.1 28.3.1 76.2-7.9 74 34.8-2.1 39.9-2.8 78.3-.1 118.2 2.5 36.1-2.1 72-4.2 107.9-1.1 18.3-1.5 36.6 0 54.9 1.1 15.8 3.6 31.5-5.1 46zM-778 464h612V36h-612v428z"/></svg>