<svg xmlns="http://www.w3.org/2000/svg" viewBox="0 0 100 100" enable-background="new 0 0 100 100"><g><g fill="#fff"><path d="M73.1 48.7c0 12.8-10.4 23.1-23.1 23.1-12.8 0-23.1-10.4-23.1-23.1 0-2.9.6-5.6 1.5-8.2H0V75c0 13.8 11.2 25 25 25h50c13.8 0 25-11.2 25-25V40.5H71.6c1 2.6 1.5 5.3 1.5 8.2z"/><circle cx="50" cy="48.7" r="13.9"/><path d="M75 0H26.3v26.1h-5.5V.4c-1.9.3-3.7.8-5.5 1.5V26H9.9V5C3.9 9.7 0 16.9 0 25v7.3h33.7c4.2-4.2 10-6.7 16.3-6.7s12.1 2.6 16.3 6.7H100V25c0-13.8-11.2-25-25-25zm11.2 23.6c0 1.5-1.3 2.8-2.8 2.8H75c-1.6 0-2.8-1.3-2.8-2.8v-8.4c0-1.6 1.3-2.8 2.8-2.8h8.4c1.6 0 2.8 1.3 2.8 2.8v8.4z"/></g></g></svg>