<svg xmlns="http://www.w3.org/2000/svg" viewBox="0 0 29.6 38.2" enable-background="new 0 0 29.6 38.2"><path fill="#fff" d="M15.7 0C5.3 0 0 7.5 0 13.7c0 3.8 1.4 7.1 4.5 8.4.5.2 1 0 1.1-.5.1-.4.3-1.4.4-1.8.1-.6.1-.7-.3-1.2-.9-1-1.4-2.4-1.4-4.3 0-5.5 4.1-10.5 10.8-10.5 5.9 0 9.1 3.6 9.1 8.4 0 6.3-2.8 11.7-7 11.7-2.3 0-4-1.9-3.5-4.2.7-2.8 1.9-5.8 1.9-7.8 0-1.8-1-3.3-3-3.3-2.3 0-4.2 2.4-4.2 5.7 0 2.1.7 3.5.7 3.5s-2.3 10-2.7 11.8c-.8 3.5-.1 7.9-.1 8.3 0 .3.4.3.5.1.2-.3 3-3.7 4-7.2.3-1 1.5-6 1.5-6 .8 1.5 3 2.7 5.4 2.7 7 0 11.8-6.4 11.8-15C29.6 6.1 24 0 15.7 0z"/></svg>