<svg xmlns="http://www.w3.org/2000/svg" viewBox="0 0 90 89.3" enable-background="new 0 0 90 89.3"><path fill="#E40D62" d="M78.7 31.8v-8.6c0-1.2-.4-2.1-1.1-2.8L58.3 1.1C57.5.5 56.7 0 55.4 0h-40c-2.2 0-3.9 1.8-3.9 4v27.8H4c-2.2 0-4 1.9-4 4.2v37c0 2.1 1.8 3.9 4 3.9h7.4v8.4c0 2.2 1.8 4 3.9 4h59.2c2.3 0 4.1-1.8 4.1-4v-8.4H86c2.3 0 4-1.8 4-3.9V36c0-2.3-1.7-4.2-4-4.2h-7.3zM19.5 80.9V55h51.2v25.9H19.5zm0-49.1V8.1h31.8v15.1c0 2.3 1.9 4.1 4.1 4.1h15.3v4.6l-51.2-.1zm59.2 15.6c-2.3 0-4-1.9-4-4.3 0-2.2 1.8-4.1 4-4.1 2.3 0 4.1 1.9 4.1 4.1 0 2.4-1.8 4.3-4.1 4.3zM25.5 59.6v6h38.8v-6H25.5zm0 9.7v5.9h38.8v-5.9H25.5z"/></svg>