<?xml version="1.0" encoding="utf-8"?>
<!-- Generator: Adobe Illustrator 18.1.0, SVG Export Plug-In . SVG Version: 6.00 Build 0)  -->
<svg version="1.1" id="Layer_1" xmlns="http://www.w3.org/2000/svg" xmlns:xlink="http://www.w3.org/1999/xlink" x="0px" y="0px"
	 viewBox="22.9 3.9 58.8 62.4" enable-background="new 22.9 3.9 58.8 62.4" xml:space="preserve">
<g id="Layer_2">
	<path d="M47.4,52.9c-13.5,0-24.5-11-24.5-24.5c0-13.5,11-24.5,24.5-24.5c13.5,0,24.5,11,24.5,24.5C71.9,41.9,60.9,52.9,47.4,52.9z
		 M47.4,14.3c-7.8,0-14.1,6.3-14.1,14.1c0,7.8,6.3,14.1,14.1,14.1c7.8,0,14.1-6.3,14.1-14.1C61.5,20.6,55.2,14.3,47.4,14.3z"/>
	<path d="M55.3,47.7c5.8,5.7,11.6,11.4,17.5,17.1c4.8,4.7,12.1-2.7,7.3-7.3c-5.8-5.7-11.6-11.4-17.5-17.1
		C57.8,35.7,50.5,43,55.3,47.7L55.3,47.7z"/>
</g>
</svg>
