<svg xmlns="http://www.w3.org/2000/svg" viewBox="0 0 146 42" enable-background="new 0 0 146 42"><style>.style0{fill: #FFFFFF;}</style><path d="M0 0v42h146.8V0H0zm145.5 29c-2 4.5-5.2 7.2-8.9 8.5-9.4 3.4-22.6-1.1-31.4-2.7C90.4 32 75.7 38 61.3 40.6 54 42 46.5 42.7 39.2 41c-5.6-1.3-10.5-4.6-16.1-5.8-5.9-1.2-12.6 2.2-18-.5-3.2-1.6-5-5.4-5.1-9-.1-3.6 1.3-7.1 3.1-10.2 4.5-7.8 8.7-9.2 17.1-9.8C30.3 5 39.7.7 49.7.1c10-.6 19.5 2.6 29.3 3.2 12.3.7 22-.5 33.9-2.2 5.8-.8 12.1-.8 17.7 1.2 10.1 3.6 19.7 16 14.9 26.7z" class="style0"/></svg>