<svg xmlns="http://www.w3.org/2000/svg" viewBox="0 0 305.1 341.7" enable-background="new 0 0 305.1 341.7"><path fill="#231F20" d="M294.7 102.8c8.1-11.5 12-26.4 9.8-40.4-3.3-20.3-20.5-40.2-48.5-51.8-23.3-9.6-49.9-12.9-74.9-9-11.6 1.8-23.4 5.1-33.4 11.5-10.7 6.9-19.6 16.5-31.4 21.8-30.8 13.8-72.1 8-97.7 32.3-13.5 12.8-21 34-18 52.4 1.6 9.4 6.1 17.8 13.7 23.7 7.8 6 17.4 8.5 24.1 16.1 13.3 15.2 5.3 36-.9 52.5-8.4 22.2-12.1 44.3.5 65.8 10.9 18.6 29.2 32.1 48.2 41.5 43.9 21.7 103.9 32.5 149.8 10.5 9.4-4.5 19.4-12.1 22-22.7 3.1-12.5-4.1-25-1.8-37.6 2.3-12.8 16.5-23.6 23.1-35.8 10.5-19.3 1.4-39.7-5-58.9-3.3-10-6.7-20.4-6-30.7 1.1-15.2 14-26.1 23.2-36.9 1.1-1.5 2.2-2.9 3.2-4.3zM285.8 273.1c8.8-13.7-8.7-17.6-10-17.7-1.9 0-6.2-1.6-10 8.3-1.1 2.9-1 5.8 1.3 8.4 3.9 4.8 15.7 5.7 18.7 1z"/></svg>